<svg width="216" height="270" viewBox="0 0 216 270" fill="none" xmlns="http://www.w3.org/2000/svg">
<path opacity="0.08" d="M194.166 -4.49518C198.991 0.324112 205.523 3.04837 212.346 3.0867C219.168 3.12502 225.73 0.474335 230.61 -4.29044L230.813 -4.49518C251.305 -24.7246 284.312 -24.6841 304.682 -4.33089C325.134 16.1032 325.092 49.2482 304.641 69.6824L119.522 254.654C99.0702 275.088 65.8993 275.129 45.4479 254.695C24.9966 234.261 25.0384 201.115 45.4892 180.681L165.535 60.7319C166.215 60.1609 166.845 59.5319 167.416 58.8521C171.861 53.9157 174.241 47.4637 174.066 40.8258C173.89 34.188 171.173 27.8703 166.474 23.1749C161.775 18.4796 155.452 15.7646 148.809 15.5894C142.166 15.4143 135.709 17.7924 130.768 22.2336C130.088 22.8046 129.458 23.4336 128.887 24.1134L89.365 63.2285C79.5477 73.0379 66.2326 78.5488 52.3488 78.5488C38.465 78.5488 25.1499 73.0379 15.3326 63.2285C5.5153 53.4191 1.03442e-07 40.1147 0 26.2421C-1.03442e-07 12.3695 5.5153 -0.934891 15.3326 -10.7443L148.724 -143.653C169.175 -164.088 202.347 -164.129 222.798 -143.695C243.248 -123.261 243.207 -90.1156 222.756 -69.6807L194.167 -41.1144C191.76 -38.7104 189.85 -35.8562 188.547 -32.7146C187.245 -29.573 186.574 -26.2057 186.574 -22.8051C186.574 -19.4044 187.244 -16.0371 188.547 -12.8954C189.849 -9.75377 191.759 -6.89932 194.166 -4.49518Z" fill="url(#paint0_linear)"/>
<defs>
<linearGradient id="paint0_linear" x1="0" y1="55.5" x2="320" y2="55.5" gradientUnits="userSpaceOnUse">
<stop stop-color="#0C97FE" stop-opacity="0.8"/>
<stop offset="1" stop-color="#0CE8F9"/>
</linearGradient>
</defs>
</svg>
