<svg width="435" height="435" viewBox="0 0 435 435" fill="none" xmlns="http://www.w3.org/2000/svg">
<g clip-path="url(#clip0)">
<path d="M189.306 132.519C200.299 143.508 218.234 143.739 229.458 132.75L229.69 132.519C252.253 110.194 288.587 110.31 311.035 132.75C333.599 155.306 333.484 191.743 311.035 214.299L107.034 418.112C84.4703 440.668 48.0208 440.668 25.4569 418.112C2.89292 395.556 3.00864 359.12 25.4569 336.564L157.716 204.351C158.179 204.004 158.411 203.773 158.758 203.31C159.105 202.963 159.452 202.616 159.799 202.269C169.982 191.049 169.519 173.814 158.758 162.94C147.996 152.067 130.64 151.72 119.415 161.899C119.068 162.246 118.721 162.478 118.374 162.94C118.027 163.287 117.68 163.635 117.333 163.982L98.3558 182.952C75.7918 205.508 39.3424 205.508 16.7784 182.952C-5.78552 160.396 -5.78552 123.959 16.7784 101.403L139.087 -20.8618C161.651 -43.4178 198.1 -43.4178 220.664 -20.8618C243.228 1.69415 243.112 38.1307 220.664 60.6867L189.19 92.1494C178.082 103.37 178.197 121.414 189.306 132.519Z" fill="#081B44"/>
<path opacity="0.17" d="M336.377 -14.7315C347.37 -3.74269 365.305 -3.51135 376.529 -14.5002L376.761 -14.7315C399.325 -37.0561 435.658 -36.9405 458.107 -14.5002C480.67 8.05582 480.555 44.4924 458.107 67.0483L254.105 270.862C231.541 293.418 195.092 293.418 172.528 270.862C149.964 248.306 150.08 211.869 172.528 189.313L304.787 57.1006C305.25 56.7536 305.482 56.5222 305.829 56.0595C306.176 55.7125 306.523 55.3655 306.87 55.0185C317.053 43.7984 316.59 26.5633 305.829 15.6901C295.068 4.81702 277.711 4.47 266.487 14.6491C266.139 14.9961 265.792 15.2275 265.445 15.6901C265.098 16.0372 264.751 16.3842 264.404 16.7312L220.896 59.8767C198.332 82.4327 161.882 82.4327 139.318 59.8767C116.755 37.3207 116.755 0.884171 139.318 -21.6718L286.273 -168.112C308.837 -190.668 345.287 -190.668 367.851 -168.112C390.415 -145.556 390.299 -109.12 367.851 -86.5636L336.377 -55.1009C325.153 -43.8807 325.269 -25.836 336.377 -14.7315Z" fill="#081B43"/>
</g>
<defs>
<clipPath id="clip0">
<rect width="475" height="620" fill="white" transform="translate(0 -185)"/>
</clipPath>
</defs>
</svg>
