<svg width="5" height="4" viewBox="0 0 5 4" fill="none" xmlns="http://www.w3.org/2000/svg">
<path d="M2.29415 3.8848C2.31708 3.92033 2.34777 3.94938 2.38357 3.96945C2.41938 3.98951 2.45922 4 2.49966 4C2.54011 4 2.57995 3.98951 2.61575 3.96945C2.65155 3.94938 2.68224 3.92033 2.70518 3.8848L4.95535 0.418371C4.9814 0.378389 4.99667 0.331559 4.99952 0.282969C5.00236 0.234379 4.99266 0.185887 4.97148 0.142762C4.95029 0.0996371 4.91843 0.0635285 4.87936 0.0383596C4.84028 0.0131906 4.79549 -7.63531e-05 4.74984 3.30551e-07H0.249485C0.203942 0.000200959 0.159312 0.0136385 0.120395 0.0388678C0.0814776 0.064097 0.049745 0.100164 0.0286098 0.143189C0.00747463 0.186214 -0.00226347 0.234569 0.000442734 0.283056C0.00314894 0.331542 0.018197 0.378324 0.0439688 0.418371L2.29415 3.8848Z" fill="#0046F5"/>
</svg>
