<svg width="226" height="429" viewBox="0 0 226 429" fill="none" xmlns="http://www.w3.org/2000/svg">
<path opacity="0.08" d="M100.166 154.505C104.991 159.324 111.523 162.048 118.346 162.087C125.168 162.125 131.73 159.474 136.61 154.71L136.813 154.505C157.305 134.275 190.312 134.316 210.682 154.669C231.134 175.103 231.092 208.248 210.641 228.682L25.5216 413.654C5.07023 434.088 -28.1007 434.129 -48.5521 413.695C-69.0034 393.261 -68.9616 360.115 -48.5108 339.681L71.5347 219.732C72.2151 219.161 72.8445 218.532 73.416 217.852C77.8608 212.916 80.2408 206.464 80.0656 199.826C79.8904 193.188 77.1732 186.87 72.4741 182.175C67.775 177.48 61.4523 174.765 54.8091 174.589C48.1659 174.414 41.7086 176.792 36.7683 181.234C36.0879 181.805 35.4585 182.434 34.887 183.113L-4.63503 222.229C-14.4523 232.038 -27.7674 237.549 -41.6512 237.549C-55.535 237.549 -68.8501 232.038 -78.6674 222.229C-88.4847 212.419 -94 199.115 -94 185.242C-94 171.37 -88.4847 158.065 -78.6674 148.256L54.7239 15.3465C75.1753 -5.08838 108.347 -5.12885 128.798 15.3053C149.248 35.7394 149.207 68.8844 128.756 89.3193L100.167 117.886C97.7599 120.29 95.8503 123.144 94.5474 126.285C93.2445 129.427 92.5739 132.794 92.5737 136.195C92.5736 139.596 93.244 142.963 94.5467 146.105C95.8493 149.246 97.7587 152.101 100.166 154.505Z" fill="url(#paint0_linear)"/>
<defs>
<linearGradient id="paint0_linear" x1="-94" y1="214.5" x2="226" y2="214.5" gradientUnits="userSpaceOnUse">
<stop stop-color="#0C97FE" stop-opacity="0.8"/>
<stop offset="1" stop-color="#0CE8F9"/>
</linearGradient>
</defs>
</svg>
