<svg width="831" height="758" viewBox="0 0 831 758" fill="none" xmlns="http://www.w3.org/2000/svg">
<path opacity="0.1" d="M533.956 2.9783C547.225 16.2341 565.189 23.7274 583.95 23.8329C602.712 23.9383 620.759 16.6473 634.176 3.54144L634.737 2.9783C691.09 -52.6643 781.859 -52.5529 837.876 3.43018C894.118 59.6359 894.002 150.804 837.762 207.01L328.684 715.789C272.443 771.995 181.223 772.108 124.982 715.902C68.7405 659.697 68.8556 568.526 125.095 512.32L455.22 182.391C457.091 180.82 458.822 179.09 460.394 177.22C472.617 163.642 479.162 145.895 478.68 127.637C478.198 109.38 470.726 92.0021 457.804 79.0872C444.881 66.1724 427.494 58.7044 409.225 58.2227C390.956 57.7409 373.199 64.2822 359.613 76.498C357.742 78.0686 356.011 79.7986 354.439 81.6685L245.754 189.258C218.756 216.24 182.14 231.398 143.959 231.398C105.779 231.398 69.1622 216.24 42.1647 189.258C15.1671 162.276 2.84466e-07 125.681 0 87.5237C-2.84466e-07 49.366 15.1671 12.7711 42.1647 -14.2104L408.991 -379.788C465.232 -435.996 556.455 -436.107 612.693 -379.902C668.932 -323.696 668.82 -232.528 612.58 -176.32L533.959 -97.746C527.34 -91.1336 522.088 -83.2827 518.505 -74.6415C514.922 -66.0003 513.078 -56.7383 513.078 -47.3846C513.077 -38.0309 514.921 -28.7688 518.503 -20.1273C522.086 -11.4859 527.336 -3.63452 533.956 2.9783Z" fill="url(#paint0_linear)"/>
<defs>
<linearGradient id="paint0_linear" x1="0" y1="168" x2="880" y2="168" gradientUnits="userSpaceOnUse">
<stop stop-color="#0C97FE" stop-opacity="0.8"/>
<stop offset="1" stop-color="#0CE8F9"/>
</linearGradient>
</defs>
</svg>
