<svg width="511" height="830" viewBox="0 0 511 830" fill="none" xmlns="http://www.w3.org/2000/svg">
<path opacity="0.05" d="M245.568 250.297C255.747 260.475 269.526 266.228 283.916 266.309C298.307 266.39 312.15 260.792 322.442 250.729L322.872 250.297C366.097 207.575 435.721 207.66 478.689 250.644C521.829 293.798 521.74 363.797 478.602 406.952L88.1159 797.59C44.9763 840.745 -24.9937 840.832 -68.1333 797.678C-111.273 754.523 -111.185 684.522 -68.0462 641.368L185.175 388.049C186.61 386.843 187.938 385.515 189.143 384.079C198.519 373.654 203.539 360.028 203.17 346.01C202.8 331.991 197.068 318.649 187.156 308.733C177.244 298.817 163.907 293.083 149.894 292.713C135.881 292.343 122.26 297.366 111.839 306.745C110.404 307.951 109.076 309.279 107.871 310.715L24.5043 393.322C3.79588 414.038 -24.2907 425.676 -53.5768 425.676C-82.8628 425.676 -110.949 414.038 -131.658 393.322C-152.366 372.605 -164 344.508 -164 315.211C-164 285.913 -152.366 257.816 -131.658 237.099L149.715 -43.5898C192.854 -86.7461 262.826 -86.8316 305.964 -43.677C349.101 -0.522423 349.015 69.4762 305.877 112.632L245.571 172.961C240.493 178.038 236.465 184.066 233.717 190.701C230.969 197.335 229.554 204.447 229.554 211.628C229.554 218.81 230.968 225.922 233.716 232.556C236.464 239.191 240.491 245.22 245.568 250.297Z" fill="url(#paint0_linear)"/>
<defs>
<linearGradient id="paint0_linear" x1="-164" y1="377" x2="511" y2="377" gradientUnits="userSpaceOnUse">
<stop stop-color="#0C97FE" stop-opacity="0.8"/>
<stop offset="1" stop-color="#0CE8F9"/>
</linearGradient>
</defs>
</svg>
