<svg width="217" height="429" viewBox="0 0 217 429" fill="none" xmlns="http://www.w3.org/2000/svg">
<path opacity="0.08" d="M194.166 154.505C198.991 159.324 205.523 162.048 212.346 162.087C219.168 162.125 225.73 159.474 230.61 154.71L230.813 154.505C251.305 134.275 284.312 134.316 304.682 154.669C325.134 175.103 325.092 208.248 304.641 228.682L119.522 413.654C99.0702 434.088 65.8993 434.129 45.4479 413.695C24.9966 393.261 25.0384 360.115 45.4892 339.681L165.535 219.732C166.215 219.161 166.845 218.532 167.416 217.852C171.861 212.916 174.241 206.464 174.066 199.826C173.89 193.188 171.173 186.87 166.474 182.175C161.775 177.48 155.452 174.765 148.809 174.589C142.166 174.414 135.709 176.792 130.768 181.234C130.088 181.805 129.458 182.434 128.887 183.113L89.365 222.229C79.5477 232.038 66.2326 237.549 52.3488 237.549C38.465 237.549 25.1499 232.038 15.3326 222.229C5.5153 212.419 1.03442e-07 199.115 0 185.242C-1.03442e-07 171.37 5.5153 158.065 15.3326 148.256L148.724 15.3465C169.175 -5.08838 202.347 -5.12885 222.798 15.3053C243.248 35.7394 243.207 68.8844 222.756 89.3193L194.167 117.886C191.76 120.29 189.85 123.144 188.547 126.285C187.245 129.427 186.574 132.794 186.574 136.195C186.574 139.596 187.244 142.963 188.547 146.105C189.849 149.246 191.759 152.101 194.166 154.505Z" fill="url(#paint0_linear)"/>
<defs>
<linearGradient id="paint0_linear" x1="0" y1="214.5" x2="320" y2="214.5" gradientUnits="userSpaceOnUse">
<stop stop-color="#0C97FE" stop-opacity="0.8"/>
<stop offset="1" stop-color="#0CE8F9"/>
</linearGradient>
</defs>
</svg>
