<svg width="670" height="1016" viewBox="0 0 670 1016" fill="none" xmlns="http://www.w3.org/2000/svg">
<path opacity="0.1" d="M533.956 260.152C547.225 273.408 565.189 280.901 583.95 281.007C602.712 281.112 620.759 273.821 634.176 260.715L634.737 260.152C691.09 204.51 781.859 204.621 837.876 260.604C894.118 316.81 894.002 407.978 837.762 464.184L328.684 972.963C272.443 1029.17 181.223 1029.28 124.982 973.076C68.7405 916.87 68.8556 825.699 125.095 769.494L455.22 439.565C457.091 437.994 458.822 436.264 460.394 434.394C472.617 420.816 479.162 403.069 478.68 384.811C478.198 366.553 470.726 349.176 457.804 336.261C444.881 323.346 427.494 315.878 409.225 315.396C390.956 314.915 373.199 321.456 359.613 333.672C357.742 335.242 356.011 336.972 354.439 338.842L245.754 446.432C218.756 473.413 182.14 488.571 143.959 488.571C105.779 488.571 69.1622 473.413 42.1647 446.432C15.1671 419.45 2.84466e-07 382.855 0 344.698C-2.84466e-07 306.54 15.1671 269.945 42.1647 242.963L408.991 -122.614C465.232 -178.822 556.455 -178.933 612.693 -122.728C668.932 -66.522 668.82 24.6461 612.58 80.8541L533.959 159.428C527.34 166.04 522.088 173.891 518.505 182.532C514.922 191.173 513.078 200.436 513.078 209.789C513.077 219.143 514.921 228.405 518.503 237.046C522.086 245.688 527.336 253.539 533.956 260.152Z" fill="url(#paint0_linear)"/>
<defs>
<linearGradient id="paint0_linear" x1="0" y1="425.174" x2="880" y2="425.174" gradientUnits="userSpaceOnUse">
<stop stop-color="#0C97FE" stop-opacity="0.8"/>
<stop offset="1" stop-color="#0CE8F9"/>
</linearGradient>
</defs>
</svg>
