<svg width="190" height="69" viewBox="0 0 190 69" fill="none" xmlns="http://www.w3.org/2000/svg">
<g clip-path="url(#clip0)">
<path d="M19.114 17.1299C19.3781 17.4093 19.6959 17.6318 20.048 17.7838C20.4001 17.9358 20.7792 18.0141 21.1622 18.0141C21.5453 18.0141 21.9244 17.9358 22.2765 17.7838C22.6286 17.6318 22.9463 17.4093 23.2105 17.1299C24.297 16.0356 25.7705 15.4209 27.307 15.4209C28.8435 15.4209 30.3171 16.0356 31.4036 17.1299C32.49 18.2242 33.1004 19.7083 33.1004 21.2558C33.1004 22.8033 32.49 24.2875 31.4036 25.3817L10.9209 46.0119C9.81864 47.0757 8.351 47.6696 6.82437 47.6696C5.29773 47.6696 3.83009 47.0757 2.72783 46.0119C1.6716 44.9018 1.08193 43.4236 1.08193 41.886C1.08193 40.3484 1.6716 38.8703 2.72783 37.7601L16.044 24.3506L16.1902 24.2033L16.3365 24.056C16.588 23.786 16.7839 23.4684 16.9128 23.1217C17.0417 22.775 17.101 22.4059 17.0874 22.0359C17.0738 21.666 16.9875 21.3024 16.8335 20.9662C16.6795 20.63 16.4609 20.3279 16.1902 20.0774C15.6228 19.5786 14.8951 19.3038 14.142 19.3038C13.3888 19.3038 12.6612 19.5786 12.0937 20.0774L11.9474 20.2247L11.8012 20.372L9.89917 22.2876C8.79699 23.3516 7.32932 23.9456 5.80264 23.9456C4.27595 23.9456 2.80828 23.3516 1.7061 22.2876C-0.634679 20.0746 -0.49117 16.3934 1.7061 14.0358L13.9971 1.65672C15.0993 0.592916 16.567 -0.000976562 18.0936 -0.000976562C19.6202 -0.000976562 21.0879 0.592916 22.1901 1.65672C23.2464 2.76689 23.836 4.24505 23.836 5.78263C23.836 7.32021 23.2464 8.79837 22.1901 9.90853L19.1174 13.0033C18.8397 13.2691 18.6184 13.589 18.4671 13.9436C18.3159 14.2981 18.2377 14.68 18.2374 15.0659C18.2371 15.4518 18.3146 15.8337 18.4653 16.1885C18.616 16.5433 18.8367 16.8636 19.114 17.1299Z" fill="url(#paint0_linear)"/>
<path d="M39.7425 41.4443C40.4483 41.9374 41.0462 42.571 41.4993 43.306C41.9523 44.041 42.2509 44.8617 42.3765 45.7175H37.6943C37.6212 45.303 37.4672 44.9072 37.2411 44.5531C37.015 44.199 36.7214 43.8936 36.3773 43.6546C35.6466 43.1501 34.7758 42.8922 33.8902 42.9181C33.55 42.8789 33.2054 42.911 32.8781 43.0124C32.5507 43.1138 32.2478 43.2823 31.9882 43.5073C31.7595 43.6773 31.5739 43.8995 31.4468 44.1557C31.3197 44.4118 31.2546 44.6947 31.257 44.981C31.2459 45.2111 31.294 45.4402 31.3965 45.6461C31.4989 45.852 31.6524 46.0279 31.842 46.1567C32.2819 46.4887 32.7775 46.7382 33.3052 46.8932C34.0715 47.1423 34.8535 47.3392 35.646 47.4824C37.1092 47.777 38.2793 48.0716 39.3038 48.3663C40.2183 48.6772 41.0288 49.2386 41.6445 49.9873C42.0129 50.3774 42.2948 50.8419 42.4714 51.3501C42.648 51.8582 42.7154 52.3984 42.669 52.9348C42.6762 53.6588 42.5065 54.3735 42.1748 55.016C41.8431 55.6584 41.3597 56.2088 40.767 56.6188C39.1799 57.5753 37.3471 58.0369 35.4997 57.9452C33.0127 57.9452 30.9644 57.5033 29.5012 56.4715C28.7587 55.9698 28.1281 55.3179 27.6494 54.5573C27.1707 53.7967 26.8546 52.9441 26.721 52.0537H31.4025C31.4568 52.4743 31.603 52.8775 31.8308 53.2343C32.0585 53.591 32.3621 53.8924 32.7195 54.1167C33.559 54.6201 34.5223 54.8753 35.4991 54.8532C35.8393 54.8924 36.1839 54.8603 36.5112 54.7589C36.8386 54.6575 37.1415 54.489 37.4011 54.264C37.6177 54.0828 37.7946 53.8582 37.9205 53.6045C38.0464 53.3508 38.1185 53.0735 38.1324 52.7902C38.1434 52.5601 38.0953 52.3311 37.9928 52.1252C37.8904 51.9192 37.7369 51.7434 37.5473 51.6146C37.1075 51.2825 36.6118 51.033 36.0841 50.878C35.2722 50.6144 34.4405 50.4173 33.597 50.2888C32.4101 50.0637 31.2375 49.7674 30.0855 49.4015C29.1976 49.1099 28.394 48.6039 27.7448 47.9278C27.0846 47.1465 26.7218 46.1542 26.721 45.1283C26.6975 44.4015 26.8602 43.6808 27.1933 43.0356C27.5264 42.3904 28.0188 41.8424 28.623 41.4443C30.1939 40.4359 32.028 39.9228 33.8902 39.9706C36.5235 39.8205 38.4256 40.4125 39.7425 41.4443Z" fill="white"/>
<path d="M59.2002 53.822V57.6533H56.5669C54.3697 57.6533 52.7629 57.2114 51.5922 56.1796C50.4249 55.2957 49.8364 53.6747 49.8364 51.4645V43.8019H47.2031V39.9706H49.8364V35.55H54.8112V39.9706H59.2002V43.8019H54.8112V51.4645C54.8112 52.3483 54.9574 52.9382 55.3962 53.2328C55.9719 53.5687 56.6346 53.7227 57.2982 53.6747H59.2002V53.822Z" fill="white"/>
<path d="M76.9043 40.8552C78.0222 41.4803 78.8983 42.4665 79.3913 43.6547V39.9707H84.2164V57.6535H79.3913V53.9695C78.8979 55.1569 78.0218 56.1423 76.9043 56.7669C75.6139 57.5054 74.1438 57.8648 72.6608 57.8042C71.1334 57.8465 69.6211 57.4891 68.2718 56.7669C66.9751 56.0523 65.9081 54.9795 65.1963 53.6749C64.4001 52.182 63.9982 50.5081 64.029 48.8138C64.0159 47.1209 64.4168 45.4507 65.1963 43.9507C65.907 42.6454 66.973 41.5717 68.269 40.8559C69.6197 40.135 71.1329 39.7792 72.6608 39.8234C74.145 39.7427 75.6202 40.1013 76.9043 40.8552ZM69.5908 45.1285C68.6408 46.1154 68.1145 47.4392 68.1255 48.8138C68.0726 49.4998 68.1773 50.1888 68.4314 50.8274C68.6855 51.466 69.0822 52.0371 69.5908 52.4964C70.5884 53.4077 71.9033 53.8845 73.2486 53.8229C74.5939 53.8845 75.9088 53.4077 76.9064 52.4964C77.4028 52.0279 77.791 51.4551 78.0434 50.8188C78.2958 50.1824 78.4062 49.4979 78.3669 48.8138C78.4203 48.1278 78.316 47.4387 78.0623 46.7998C77.8085 46.1609 77.4121 45.5895 76.9036 45.1298C75.8927 44.2413 74.5871 43.7679 73.2459 43.8034C72.5773 43.7387 71.9028 43.824 71.2708 44.0531C70.6388 44.2822 70.0651 44.6495 69.5908 45.1285Z" fill="white"/>
<path d="M120.212 41.739C120.907 42.4879 121.447 43.3693 121.798 44.3314C122.15 45.2934 122.307 46.3166 122.26 47.3407V68.4107H117.432V47.7805C117.455 47.2121 117.363 46.6448 117.162 46.113C116.962 45.5811 116.656 45.0957 116.265 44.6857C115.848 44.3136 115.361 44.0303 114.833 43.8529C114.305 43.6756 113.747 43.6079 113.192 43.6539C112.672 43.645 112.155 43.7453 111.676 43.9484C111.196 44.1515 110.764 44.453 110.406 44.8337C109.529 45.5703 109.239 46.7494 109.239 48.2224V57.5061H103.825V47.7805C103.848 47.2121 103.756 46.6448 103.556 46.113C103.355 45.5811 103.05 45.0957 102.658 44.6857C102.242 44.3136 101.755 44.0303 101.227 43.8529C100.698 43.6756 100.14 43.6079 99.5853 43.6539C98.4013 43.6092 97.2466 44.0309 96.3663 44.8296C95.4888 45.5661 95.199 46.7452 95.199 48.2183V57.5061H90.2188V39.8233H95.1935V43.212C95.6975 42.0679 96.5752 41.132 97.6805 40.5598C98.8581 39.9574 100.164 39.654 101.485 39.676C102.92 39.6132 104.344 39.9717 105.581 40.7078C106.744 41.3875 107.666 42.4188 108.214 43.6553C108.816 42.4073 109.787 41.3776 110.994 40.7078C112.232 39.9715 113.655 39.6131 115.091 39.676C116.987 39.7321 118.801 40.463 120.212 41.739Z" fill="white"/>
<path d="M143.912 40.8552C145.208 41.571 146.274 42.6447 146.985 43.95C147.781 45.4435 148.183 47.1181 148.152 48.8131C148.165 50.5061 147.764 52.1762 146.985 53.6762C146.274 54.9815 145.208 56.0552 143.912 56.771C142.562 57.4913 141.05 57.8468 139.523 57.8028C138.04 57.8636 136.57 57.5047 135.28 56.7668C134.162 56.1418 133.286 55.1556 132.793 53.9674V68.5581H127.818V39.9707H132.793V43.6547C133.286 42.4665 134.162 41.4802 135.28 40.8552C136.564 40.1014 138.039 39.7428 139.523 39.8234C141.053 39.744 142.575 40.1017 143.912 40.8552ZM135.426 45.1284C134.929 45.597 134.54 46.1701 134.287 46.807C134.034 47.4439 133.924 48.129 133.963 48.8138C133.924 49.4984 134.035 50.1832 134.288 50.8198C134.54 51.4565 134.929 52.0293 135.426 52.4978C136.437 53.3863 137.743 53.8598 139.084 53.8242C139.752 53.8681 140.421 53.7729 141.05 53.5447C141.68 53.3165 142.255 52.9601 142.742 52.4978C143.691 51.5108 144.216 50.1876 144.205 48.8138C144.259 48.1278 144.154 47.4386 143.901 46.7997C143.647 46.1609 143.25 45.5894 142.742 45.1298C141.744 44.2186 140.429 43.7417 139.084 43.8034C138.415 43.7383 137.74 43.8233 137.108 44.0525C136.475 44.2816 135.901 44.649 135.426 45.1284Z" fill="white"/>
<path d="M172.15 49.6962H157.958C157.937 50.3566 158.057 51.0138 158.31 51.6238C158.562 52.2337 158.941 52.7823 159.421 53.2328C160.315 54.0083 161.46 54.4266 162.64 54.4085C163.617 54.4306 164.58 54.1754 165.419 53.672C166.139 53.187 166.658 52.4546 166.881 51.6118H172.148C171.914 52.8198 171.358 53.9407 170.538 54.8539C169.66 55.8791 168.558 56.6859 167.319 57.2114C165.936 57.8156 164.44 58.118 162.932 58.0987C161.216 58.1575 159.511 57.8038 157.958 57.0669C156.55 56.4035 155.376 55.324 154.593 53.9721C153.73 52.5052 153.323 50.8112 153.426 49.109C153.413 47.416 153.814 45.7459 154.593 44.2459C155.415 42.926 156.578 41.8562 157.958 41.1511C159.516 40.4285 161.218 40.0751 162.932 40.1179C164.65 40.0433 166.359 40.3978 167.907 41.1497C169.247 41.8461 170.401 42.857 171.272 44.0972C172.031 45.3917 172.434 46.8668 172.439 48.3704C172.311 48.8047 172.214 49.2478 172.15 49.6962ZM166.151 44.3911C165.193 43.6282 164.008 43.2132 162.787 43.2132C161.566 43.2132 160.38 43.6282 159.422 44.3911C158.946 44.7811 158.567 45.2768 158.313 45.8392C158.059 46.4017 157.938 47.0157 157.959 47.6332H167.323C167.412 47.0372 167.352 46.4281 167.148 45.8617C166.943 45.2953 166.6 44.7896 166.151 44.3911Z" fill="white"/>
<path d="M186.049 40.7078C187.267 40.0565 188.62 39.703 189.999 39.676V44.5391H188.536C184.878 44.5391 183.123 46.0129 183.123 49.107V57.6568H178.148V39.9706H183.123V43.3593C183.918 42.2925 184.912 41.3919 186.049 40.7078Z" fill="white"/>
<path d="M31.1087 66.2005C31.2922 66.4588 31.3942 66.7668 31.4012 67.0844C31.422 67.2798 31.3925 67.4773 31.3157 67.658C31.2388 67.8387 31.1172 67.9965 30.9625 68.1162C30.7834 68.2747 30.5745 68.3954 30.3484 68.4713C30.1222 68.5472 29.8832 68.5767 29.6455 68.5581H27.7435C27.5972 68.5581 27.4509 68.5581 27.4509 68.4108C27.3047 68.2635 27.3047 68.2635 27.3047 68.1162V63.695C27.3047 63.5477 27.3047 63.4004 27.4509 63.4004C27.5972 63.2531 27.5972 63.2531 27.7435 63.2531H29.6455C29.8832 63.2344 30.1222 63.2639 30.3484 63.3398C30.5745 63.4157 30.7834 63.5365 30.9625 63.695C31.1055 63.8247 31.2187 63.9841 31.2945 64.1623C31.3703 64.3405 31.4067 64.5331 31.4012 64.7268C31.3957 64.9999 31.2917 65.2617 31.1087 65.4633C30.942 65.6453 30.7438 65.795 30.5237 65.9052C30.7437 65.9422 30.9476 66.0451 31.1087 66.2005ZM28.036 65.464H29.353C30.0842 65.464 30.3774 65.1694 30.3774 64.7275C30.3753 64.6136 30.3479 64.5015 30.2973 64.3996C30.2467 64.2976 30.1741 64.2084 30.0849 64.1383C29.8657 64.0048 29.607 63.9527 29.3536 63.991H28.1863V65.4647L28.036 65.464ZM30.2332 67.677C30.3235 67.6084 30.3968 67.5196 30.4472 67.4176C30.4977 67.3156 30.5239 67.2032 30.5239 67.0892C30.5239 66.9753 30.4977 66.8629 30.4472 66.7609C30.3968 66.6589 30.3235 66.57 30.2332 66.5014C29.9896 66.2925 29.675 66.1869 29.3557 66.2068H28.036V67.8278H29.353C29.7917 67.8216 30.0842 67.8216 30.2312 67.6736L30.2332 67.677ZM38.1338 68.2663C38.1338 68.4136 38.1338 68.4136 37.9875 68.5609C37.8413 68.7082 37.8413 68.7082 37.695 68.7082H37.3984L37.2521 68.5609L36.8134 67.529H34.1815L33.7427 68.4129C33.7431 68.4323 33.7395 68.4516 33.7323 68.4697C33.7251 68.4877 33.7143 68.5041 33.7007 68.5179C33.687 68.5316 33.6708 68.5425 33.6528 68.5497C33.6349 68.557 33.6157 68.5606 33.5964 68.5602H33.3039C33.1577 68.5602 33.0114 68.5602 33.0114 68.4129C32.8652 68.2656 32.8652 68.2656 32.8652 68.1183V67.971L34.9134 63.4031C34.9134 63.2558 35.0597 63.2558 35.0597 63.1085C35.2059 63.1085 35.2059 62.9612 35.3522 62.9612C35.4984 62.9612 35.4984 62.9612 35.6447 63.1085C35.791 63.1085 35.791 63.2558 35.791 63.4031L37.8392 67.971C38.1317 68.1162 38.1317 68.1162 38.1317 68.2635L38.1338 68.2663ZM34.476 66.4979H36.5243L35.4998 64.2849L34.476 66.4979ZM44.4228 68.2635C44.4228 68.4108 44.4228 68.4108 44.2765 68.5581C44.1303 68.7054 44.1303 68.7054 43.984 68.7054H43.6915C43.6722 68.7058 43.653 68.7022 43.6351 68.695C43.6172 68.6877 43.6009 68.6769 43.5873 68.6631C43.5736 68.6493 43.5628 68.633 43.5556 68.6149C43.5484 68.5969 43.5449 68.5776 43.5453 68.5581L42.5208 66.7898C42.3745 66.6425 42.3745 66.4952 42.2283 66.4952C42.082 66.4952 41.9358 66.3478 41.7895 66.3478H41.0575V68.1162C41.0575 68.2635 41.0575 68.4108 40.9113 68.4108C40.765 68.5581 40.765 68.5581 40.6188 68.5581C40.4725 68.5581 40.3263 68.5581 40.3263 68.4108C40.18 68.2635 40.18 68.2635 40.18 68.1162V63.695C40.18 63.5477 40.18 63.4004 40.3263 63.4004C40.4725 63.2531 40.4725 63.2531 40.6188 63.2531H42.5208C42.7585 63.2344 42.9975 63.2639 43.2237 63.3398C43.4499 63.4157 43.6587 63.5365 43.8378 63.695C44.13 64.0146 44.2874 64.4363 44.2765 64.8707C44.2681 65.2341 44.1674 65.5893 43.984 65.9025C43.6976 66.1831 43.3451 66.3859 42.9595 66.4917C43.1058 66.4917 43.2521 66.639 43.3983 66.639C43.5446 66.7863 43.6908 66.7863 43.6908 67.0809L44.4221 68.1127C44.2765 68.1162 44.4228 68.1162 44.4228 68.2635ZM42.9602 65.4633C43.0505 65.3947 43.1238 65.3059 43.1742 65.2038C43.2247 65.1018 43.2509 64.9894 43.2509 64.8755C43.2509 64.7615 43.2247 64.6491 43.1742 64.5471C43.1238 64.4451 43.0505 64.3563 42.9602 64.2877C42.814 64.1404 42.5215 64.1404 42.0827 64.1404H40.763V65.9087H42.08C42.5208 65.6106 42.8133 65.6106 42.9602 65.4633ZM46.4717 68.4108C46.3255 68.2635 46.3255 68.2635 46.3255 68.1162V63.695C46.3255 63.5477 46.3255 63.4004 46.4717 63.4004C46.618 63.2531 46.618 63.2531 46.7643 63.2531H48.2268C48.9787 63.221 49.7134 63.4852 50.2751 63.9896C50.7507 64.512 51.012 65.1965 51.0064 65.9052C51.0116 66.6582 50.7526 67.3888 50.2751 67.9682C50.0166 68.2464 49.6959 68.4584 49.3396 68.5867C48.9833 68.7149 48.6018 68.7556 48.2268 68.7054H46.7636C46.6173 68.5602 46.4711 68.5602 46.4711 68.4108H46.4717ZM48.2275 67.8216C48.4851 67.8548 48.7468 67.828 48.9926 67.7435C49.2384 67.659 49.4616 67.5188 49.6453 67.3339C49.8289 67.1489 49.9681 66.9241 50.052 66.6765C50.1359 66.429 50.1624 66.1654 50.1295 65.9059C50.1295 64.5795 49.5445 63.9903 48.2275 63.9903H47.3486V67.8216H48.2275ZM56.7131 68.1162C56.7216 68.1762 56.7161 68.2374 56.697 68.2949C56.678 68.3524 56.6459 68.4047 56.6033 68.4476C56.5608 68.4904 56.5089 68.5227 56.4518 68.5419C56.3947 68.5611 56.3339 68.5666 56.2743 68.5581H53.0539C52.9077 68.5581 52.7614 68.5581 52.7614 68.4108C52.7614 68.2635 52.6152 68.2635 52.6152 68.1162C52.6152 67.9689 52.6152 67.8216 52.7614 67.8216L55.541 63.9903H53.2009C53.0845 63.9903 52.9729 63.9437 52.8906 63.8609C52.8083 63.778 52.7621 63.6656 52.7621 63.5484C52.7621 63.4312 52.8083 63.3188 52.8906 63.2359C52.9729 63.153 53.0845 63.1065 53.2009 63.1065H56.2736C56.4199 63.1065 56.5661 63.1065 56.5661 63.2538C56.5661 63.4011 56.7124 63.4011 56.7124 63.5484C56.7124 63.6957 56.7124 63.843 56.5661 63.843L53.7866 67.6743H56.2736C56.5661 67.8214 56.7124 67.9687 56.7124 68.1162H56.7131ZM58.6151 68.5581C58.4688 68.4108 58.4688 68.4108 58.4688 68.2635V63.695C58.4688 63.5477 58.4688 63.4004 58.6151 63.4004C58.7614 63.2531 58.7614 63.2531 58.9076 63.2531C59.0539 63.2531 59.2001 63.2531 59.2001 63.4004C59.3464 63.5477 59.3464 63.5477 59.3464 63.695V68.2628C59.3464 68.4101 59.3464 68.5574 59.2001 68.5574C59.0539 68.7047 59.0539 68.7047 58.9076 68.7047C58.9069 68.5602 58.7607 68.5602 58.6158 68.5602L58.6151 68.5581ZM61.8341 68.4108C61.6878 68.2635 61.6878 68.2635 61.6878 68.1162V63.695C61.6878 63.5477 61.6878 63.4004 61.8341 63.4004C61.9804 63.2531 61.9804 63.2531 62.1266 63.2531H64.9062C65.0524 63.2531 65.1987 63.2531 65.1987 63.4004C65.3449 63.4004 65.3449 63.5477 65.3449 63.695C65.3449 63.8423 65.3449 63.9896 65.1987 63.9896C65.0524 63.9896 65.0524 64.1369 64.9062 64.1369H62.7089V65.6106H64.7572C64.9034 65.6106 65.0497 65.6106 65.0497 65.7579C65.1959 65.7579 65.1959 65.9052 65.1959 66.0525C65.1959 66.1998 65.1959 66.1999 65.0497 66.3472C64.9034 66.3472 64.9034 66.4945 64.7572 66.4945H62.7109V68.1155H64.9082C65.0545 68.1155 65.2007 68.1155 65.2007 68.2628C65.347 68.2628 65.347 68.4101 65.347 68.5574C65.347 68.7047 65.347 68.7047 65.2007 68.852C65.0545 68.852 65.0545 68.9993 64.9082 68.9993H62.1259C61.9804 68.5602 61.9804 68.5602 61.8334 68.4108H61.8341ZM66.6626 68.2635C66.6626 68.1162 66.6626 68.1162 66.8089 67.9689C66.9551 67.8216 66.9551 67.8216 67.1014 67.8216H67.3939C67.5469 67.796 67.695 67.7463 67.8326 67.6743C67.9789 67.527 67.9789 67.3797 67.9789 67.0851V63.6964C67.9789 63.5491 67.9789 63.4018 68.1252 63.4018C68.2714 63.2545 68.2714 63.2545 68.4177 63.2545C68.5639 63.2545 68.7102 63.2545 68.7102 63.4018C68.7102 63.5491 68.8564 63.5491 68.8564 63.6964V67.0851C68.8564 68.1169 68.4177 68.5588 67.3932 68.7061H67.1007C67.041 68.7147 66.9802 68.7091 66.923 68.6899C66.8659 68.6707 66.8139 68.6383 66.7714 68.5954C66.7288 68.5524 66.6967 68.5 66.6777 68.4424C66.6587 68.3848 66.6533 68.3236 66.6619 68.2635H66.6626ZM74.2713 68.4108C74.1251 68.2635 74.1251 68.2635 74.1251 68.1162V63.695C74.1251 63.5477 74.1251 63.4004 74.2713 63.4004C74.4176 63.2531 74.4176 63.2531 74.5638 63.2531C74.7101 63.2531 74.8564 63.2531 74.8564 63.4004C75.0026 63.5477 75.0026 63.5477 75.0026 63.695V67.8209H77.1999C77.3163 67.8209 77.4279 67.8674 77.5101 67.9503C77.5924 68.0332 77.6386 68.1456 77.6386 68.2628C77.6386 68.38 77.5924 68.4924 77.5101 68.5753C77.4279 68.6582 77.3163 68.7047 77.1999 68.7047H74.7087C74.5625 68.5602 74.4162 68.5602 74.2713 68.4108ZM80.1236 68.2635C79.7195 68.0345 79.4087 67.669 79.2461 67.2317C79.0529 66.7647 78.9534 66.2638 78.9534 65.7579C78.9534 65.252 79.0529 64.7512 79.2461 64.2842C79.4087 63.8468 79.7195 63.4814 80.1236 63.2524C80.5205 63.016 80.9817 62.9129 81.4406 62.9578C81.8964 62.9512 82.3474 63.052 82.7576 63.2524C83.1617 63.4814 83.4725 63.8468 83.6351 64.2842C83.8283 64.7512 83.9278 65.252 83.9278 65.7579C83.9278 66.2638 83.8283 66.7647 83.6351 67.2317C83.4725 67.669 83.1617 68.0345 82.7576 68.2635C82.3607 68.4998 81.8995 68.603 81.4406 68.5581C81.2133 68.6169 80.9755 68.6208 80.7464 68.5696C80.5174 68.5184 80.3035 68.4135 80.1223 68.2635H80.1236ZM82.7569 67.3797C83.0433 66.9423 83.1959 66.4299 83.1959 65.9059C83.1959 65.382 83.0433 64.8696 82.7569 64.4322C82.4327 64.1472 82.0169 63.9901 81.5865 63.9901C81.1562 63.9901 80.7404 64.1472 80.4161 64.4322C80.1298 64.8696 79.9771 65.382 79.9771 65.9059C79.9771 66.4299 80.1298 66.9423 80.4161 67.3797C80.7404 67.6647 81.1562 67.8218 81.5865 67.8218C82.0169 67.8218 82.4327 67.6647 82.7569 67.3797ZM85.0977 68.2635C85.0977 68.1162 85.0977 68.1162 85.244 67.9689C85.3902 67.8216 85.3902 67.8216 85.5365 67.8216H85.829C85.982 67.796 86.1301 67.7463 86.2677 67.6743C86.414 67.527 86.414 67.3797 86.414 67.0851V63.6964C86.414 63.5491 86.414 63.4018 86.5603 63.4018C86.7065 63.2545 86.7065 63.2545 86.8528 63.2545C86.999 63.2545 87.1453 63.2545 87.1453 63.4018C87.1453 63.5491 87.2915 63.5491 87.2915 63.6964V67.0851C87.2915 68.1169 86.8528 68.5588 85.8283 68.7061H85.5323C85.4185 68.6987 85.3114 68.6496 85.231 68.568C85.1507 68.4865 85.1028 68.3782 85.0963 68.2635H85.0977ZM94.4615 68.2635C94.4615 68.4108 94.4615 68.4108 94.3152 68.5581C94.169 68.7054 94.169 68.7054 94.0227 68.7054H93.7302L93.584 68.5581L93.1452 67.5263H90.5119L90.0711 68.5602C90.0715 68.5796 90.0679 68.5989 90.0607 68.617C90.0535 68.635 90.0427 68.6514 90.0291 68.6652C90.0154 68.6789 89.9991 68.6898 89.9812 68.697C89.9633 68.7043 89.9441 68.7079 89.9248 68.7075H89.6323C89.4861 68.7075 89.3398 68.7075 89.3398 68.5602C89.1935 68.4129 89.1935 68.4129 89.1935 68.2656V68.1183L91.2418 63.5504C91.2418 63.4031 91.3881 63.4031 91.3881 63.2558C91.5343 63.2558 91.5343 63.1085 91.6806 63.1085C91.8268 63.1085 91.8268 63.1085 91.9731 63.2558C92.1193 63.2558 92.1193 63.4031 92.1193 63.5504L94.1676 68.1183C94.4588 68.1162 94.4588 68.1162 94.4588 68.2635H94.4615ZM90.8037 66.4952H92.852L91.8275 64.2821L90.8037 66.4952ZM96.3656 68.4108C96.2193 68.2635 96.2193 68.2635 96.2193 68.1162V63.695C96.2193 63.5477 96.2193 63.4004 96.3656 63.4004C96.5118 63.2531 96.5118 63.2531 96.6581 63.2531C96.8043 63.2531 96.9506 63.2531 96.9506 63.4004C97.0968 63.5477 97.0968 63.5477 97.0968 63.695V67.8209H99.2941C99.4105 67.8209 99.5221 67.8674 99.6044 67.9503C99.6867 68.0332 99.7329 68.1456 99.7329 68.2628C99.7329 68.38 99.6867 68.4924 99.6044 68.5753C99.5221 68.6582 99.4105 68.7047 99.2941 68.7047H96.656C96.656 68.5602 96.5084 68.5602 96.3621 68.4108H96.3656ZM105.876 63.2531C106.022 63.4004 106.022 63.4004 106.022 63.5477V68.1155C106.022 68.2628 106.022 68.4101 105.876 68.4101C105.729 68.5574 105.729 68.5574 105.583 68.5574C105.504 68.5673 105.423 68.5592 105.347 68.5337C105.271 68.5082 105.202 68.466 105.144 68.4101L102.365 64.7261V68.1148C102.365 68.2621 102.365 68.4094 102.219 68.4094C102.072 68.5567 102.072 68.5567 101.926 68.5567C101.78 68.5567 101.634 68.5567 101.634 68.4094C101.487 68.2621 101.487 68.2621 101.487 68.1148V63.5477C101.487 63.4004 101.487 63.2531 101.634 63.2531C101.78 63.1058 101.78 63.1058 101.926 63.1058C102.072 63.1058 102.219 63.1058 102.219 63.2531L104.998 66.9371V63.695C104.998 63.5477 104.998 63.4004 105.144 63.4004C105.291 63.4004 105.291 63.2531 105.437 63.2531C105.726 63.1058 105.872 63.2531 105.872 63.2531H105.876ZM108.363 68.5581C108.216 68.4108 108.216 68.4108 108.216 68.2635V63.695C108.216 63.5477 108.216 63.4004 108.363 63.4004C108.509 63.2531 108.509 63.2531 108.655 63.2531C108.801 63.2531 108.948 63.2531 108.948 63.4004C109.094 63.5477 109.094 63.5477 109.094 63.695V68.2628C109.094 68.4101 109.094 68.5574 108.948 68.5574C108.801 68.7047 108.801 68.7047 108.655 68.7047C108.505 68.5602 108.505 68.5602 108.359 68.5602L108.363 68.5581Z" fill="#1DEEFD"/>
</g>
<defs>
<linearGradient id="paint0_linear" x1="-4.6296" y1="33.7021" x2="32.3583" y2="23.3758" gradientUnits="userSpaceOnUse">
<stop stop-color="#0C97FE"/>
<stop offset="0.182" stop-color="#0D9EFE"/>
<stop offset="0.453" stop-color="#11B2FE"/>
<stop offset="0.778" stop-color="#18D3FD"/>
<stop offset="1" stop-color="#1DEEFD"/>
</linearGradient>
<clipPath id="clip0">
<rect width="190" height="69" fill="white"/>
</clipPath>
</defs>
</svg>
