<svg width="767" height="402" viewBox="0 0 767 402" fill="none" xmlns="http://www.w3.org/2000/svg">
<path opacity="0.25" d="M21.6289 190.103C-3.78248 227.53 -2.77896 260.462 6.63341 292.28C16.0458 324.097 40.6418 352.637 71.6819 378.784C83.1339 388.436 97.0328 398.3 122.051 400.561C159.028 403.9 205.905 389.095 236.105 372.211C266.306 355.326 286.406 335.908 315.462 318.689C320.02 315.989 325.627 313.082 332.188 312.336C336.523 311.906 340.901 312.364 345.053 313.682C366.833 320.024 376.222 332.66 399.298 338.201C421.238 343.485 452.246 341.482 481.462 337.039C525.251 330.382 568.75 318.392 605.506 302.82C669.119 275.866 709.498 239.968 734.469 205.321C763.325 165.289 774.535 124.683 759.458 89.3321C744.381 53.9807 702.018 24.0536 635.674 8.55952C603.741 1.10597 563.489 -2.88248 521.501 4.742C469.678 14.1568 429.216 38.6943 405.825 62.1916C382.433 85.6889 370.875 109.831 346.801 133.273C330.494 149.153 304.389 166.185 269.297 172.549C238.299 178.169 209.272 173.623 189.848 165.793C170.425 157.964 157.815 147.146 140.236 138.494C132.096 134.465 120.846 130.742 106.398 132.759C95.7584 134.243 86.3354 138.491 78.4748 142.715C50.6733 157.626 35.302 169.965 21.6289 190.103Z" fill="#709AE6"/>
</svg>
