<svg width="89" height="89" viewBox="0 0 89 89" fill="none" xmlns="http://www.w3.org/2000/svg">
<path d="M44.5 85C22.1184 85 4 66.8816 4 44.5C4 22.1184 22.1184 4 44.5 4C66.8816 4 85 22.1184 85 44.5C85 66.8816 66.8816 85 44.5 85Z" fill="#0C1438"/>
<path d="M44.5 85C22.1184 85 4 66.8816 4 44.5C4 22.1184 22.1184 4 44.5 4C66.8816 4 85 22.1184 85 44.5C85 66.8816 66.8816 85 44.5 85Z" stroke="#25408F" stroke-width="6.09022"/>
<path d="M31.8626 51.8082C25.4679 50.8946 20.5957 45.5657 20.5957 38.8665C20.5957 31.7104 26.3814 25.7725 33.6897 25.7725C40.2367 25.7725 45.7179 30.6447 46.6314 37.0394" stroke="#0046F5" stroke-width="2.58835" stroke-miterlimit="10" stroke-linecap="round" stroke-linejoin="round"/>
<path d="M37.6493 34.7554L29.5797 42.8249M32.9293 36.2779C32.9293 37.3437 32.0158 38.2572 30.95 38.2572C29.8842 38.2572 28.9707 37.3437 28.9707 36.2779C28.9707 35.2121 29.8842 34.2986 30.95 34.2986C32.0158 34.2986 32.9293 35.0599 32.9293 36.2779ZM38.106 41.4546C38.106 42.5204 37.1925 43.4339 36.1267 43.4339C35.0609 43.4339 34.1474 42.5204 34.1474 41.4546C34.1474 40.3888 35.0609 39.4753 36.1267 39.4753C37.1925 39.4753 38.106 40.3888 38.106 41.4546Z" stroke="#0CE8F9" stroke-width="2.58835" stroke-miterlimit="10" stroke-linecap="round" stroke-linejoin="round"/>
<path d="M53.4822 39.9321H66.8807M58.9634 58.2027H32.1664C30.6438 58.2027 29.4258 56.9847 29.4258 55.6144V55.0054M50.5893 34.7554H64.2923C65.8149 34.7554 67.0329 35.9734 67.0329 37.3437V50.2854" stroke="#0046F5" stroke-width="2.58835" stroke-miterlimit="10" stroke-linecap="round" stroke-linejoin="round"/>
<path d="M69.7753 59.2687H66.2734M67.9482 57.4417V60.9435V57.4417Z" stroke="#0CE8F9" stroke-width="2.58835" stroke-miterlimit="10" stroke-linecap="round" stroke-linejoin="round"/>
<path d="M46.4786 40.9976C45.7173 46.1743 41.6064 50.2852 36.4297 51.0464" stroke="#0CE8F9" stroke-width="2.58835" stroke-miterlimit="10" stroke-linecap="round" stroke-linejoin="round"/>
</svg>
