<svg width="15" height="18" viewBox="0 0 15 18" fill="none" xmlns="http://www.w3.org/2000/svg">
<path d="M3 13.5C3 13.9125 3.3375 14.25 3.75 14.25H4.5V16.875C4.5 17.4975 5.0025 18 5.625 18C6.2475 18 6.75 17.4975 6.75 16.875V14.25H8.25V16.875C8.25 17.4975 8.7525 18 9.375 18C9.9975 18 10.5 17.4975 10.5 16.875V14.25H11.25C11.6625 14.25 12 13.9125 12 13.5V6H3V13.5ZM1.125 6C0.5025 6 0 6.5025 0 7.125V12.375C0 12.9975 0.5025 13.5 1.125 13.5C1.7475 13.5 2.25 12.9975 2.25 12.375V7.125C2.25 6.5025 1.7475 6 1.125 6ZM13.875 6C13.2525 6 12.75 6.5025 12.75 7.125V12.375C12.75 12.9975 13.2525 13.5 13.875 13.5C14.4975 13.5 15 12.9975 15 12.375V7.125C15 6.5025 14.4975 6 13.875 6ZM10.1475 1.62L11.1225 0.645C11.2725 0.495 11.2725 0.2625 11.1225 0.1125C10.9725 -0.0375 10.74 -0.0375 10.59 0.1125L9.48 1.2225C8.86626 0.91169 8.18795 0.749819 7.5 0.75C6.78 0.75 6.105 0.9225 5.505 1.2225L4.3875 0.1125C4.2375 -0.0375 4.005 -0.0375 3.855 0.1125C3.705 0.2625 3.705 0.495 3.855 0.645L4.8375 1.6275C4.26792 2.04426 3.80467 2.58951 3.4854 3.21893C3.16612 3.84836 2.99982 4.54423 3 5.25H12C12 3.7575 11.2725 2.4375 10.1475 1.62ZM6 3.75H5.25V3H6V3.75ZM9.75 3.75H9V3H9.75V3.75Z" fill="white"/>
</svg>
