<svg width="15" height="18" viewBox="0 0 15 18" fill="none" xmlns="http://www.w3.org/2000/svg">
<path d="M12.418 9.5651C12.3952 7.28521 14.3044 6.19162 14.3893 6.13761C13.3165 4.58948 11.6456 4.37796 11.0503 4.35366C9.62864 4.21145 8.2755 5.17903 7.55328 5.17903C6.83379 5.17903 5.71987 4.37436 4.5402 4.39597C2.99166 4.41847 1.56274 5.28344 0.764729 6.65155C-0.845896 9.40578 0.352029 13.4876 1.92157 15.7216C2.68853 16.8152 3.60341 18.0438 4.80407 17.9988C5.96 17.9538 6.39735 17.2616 7.79523 17.2616C9.19312 17.2616 9.58664 17.9997 10.8101 17.9772C12.0546 17.9538 12.8426 16.862 13.6041 15.7657C14.4852 14.4966 14.8477 13.268 14.8696 13.205C14.8422 13.1933 12.4427 12.2869 12.4189 9.5642L12.418 9.5651ZM10.119 2.87484C10.7563 2.11248 11.1863 1.05489 11.0685 0C10.1509 0.036003 9.0379 0.60305 8.37959 1.36361C7.78884 2.03867 7.27114 3.11426 7.40993 4.14845C8.43437 4.22765 9.48073 3.6354 10.119 2.87484Z" fill="white"/>
</svg>
