<svg width="19" height="14" viewBox="0 0 19 14" fill="none" xmlns="http://www.w3.org/2000/svg">
<path fill-rule="evenodd" clip-rule="evenodd" d="M11.5541 0.591941C11.6428 0.502975 11.7483 0.43239 11.8643 0.384229C11.9804 0.336069 12.1048 0.311279 12.2305 0.311279C12.3561 0.311279 12.4805 0.336069 12.5966 0.384229C12.7127 0.43239 12.8181 0.502975 12.9068 0.591941L18.6388 6.32388C18.7277 6.41262 18.7983 6.51804 18.8465 6.63411C18.8946 6.75017 18.9194 6.87459 18.9194 7.00025C18.9194 7.12591 18.8946 7.25033 18.8465 7.36639C18.7983 7.48246 18.7277 7.58788 18.6388 7.67662L12.9068 13.4086C12.7275 13.5879 12.4842 13.6887 12.2305 13.6887C11.9768 13.6887 11.7335 13.5879 11.5541 13.4086C11.3747 13.2292 11.2739 12.9859 11.2739 12.7322C11.2739 12.4785 11.3747 12.2352 11.5541 12.0558L16.6116 7.00025L11.5541 1.94468C11.4651 1.85594 11.3945 1.75052 11.3464 1.63445C11.2982 1.51839 11.2734 1.39397 11.2734 1.26831C11.2734 1.14265 11.2982 1.01823 11.3464 0.902166C11.3945 0.786103 11.4651 0.680682 11.5541 0.591941Z" fill="white"/>
<path fill-rule="evenodd" clip-rule="evenodd" d="M0 7.00049C0 6.74712 0.10065 6.50413 0.279808 6.32497C0.458966 6.14582 0.701956 6.04517 0.955324 6.04517H17.0432C17.2966 6.04517 17.5396 6.14582 17.7188 6.32497C17.8979 6.50413 17.9986 6.74712 17.9986 7.00049C17.9986 7.25386 17.8979 7.49685 17.7188 7.67601C17.5396 7.85516 17.2966 7.95581 17.0432 7.95581H0.955324C0.701956 7.95581 0.458966 7.85516 0.279808 7.67601C0.10065 7.49685 0 7.25386 0 7.00049Z" fill="white"/>
</svg>
