<svg width="17" height="20" viewBox="0 0 17 20" fill="none" xmlns="http://www.w3.org/2000/svg">
<path d="M14.6836 10.5811C14.7582 10.4587 14.8085 10.3218 14.8315 10.1787C14.8546 10.0355 14.8499 9.88899 14.8178 9.74775C14.7857 9.60652 14.7268 9.47346 14.6446 9.35647C14.5624 9.23948 14.4586 9.14094 14.3393 9.06669L3.79733 2.36445C3.6259 2.25593 3.42929 2.19867 3.2289 2.19889C2.63391 2.19889 2.1526 2.69112 2.1526 3.2989V16.7C2.1526 16.9056 2.20891 17.1067 2.31516 17.2812C2.62966 17.7967 3.29265 17.9545 3.79733 17.6334L14.3393 10.9322C14.4785 10.8434 14.5975 10.7222 14.6846 10.58L14.6836 10.5811ZM15.4762 12.8L4.93526 19.5012C3.42121 20.4645 1.42905 19.99 0.487682 18.4445C0.169413 17.9235 0.000202774 17.3183 0 16.7V3.30001C0 1.47667 1.44498 0 3.22996 0C3.83239 0 4.42314 0.172223 4.93526 0.497779L15.4762 7.20002C16.9902 8.16224 17.4545 10.1956 16.5121 11.7423C16.2507 12.1711 15.8959 12.5334 15.4762 12.8Z" fill="white"/>
</svg>
