<svg width="175" height="148" viewBox="0 0 175 148" fill="none" xmlns="http://www.w3.org/2000/svg">
<path d="M124.301 74.5999C139.901 75.8999 155.501 76.6999 171.301 76.8999C172.201 56.8999 172.801 36.9999 173.101 17.0999C158.701 16.9999 144.501 16.2999 130.301 15.0999C128.601 34.8999 126.601 54.7999 124.301 74.5999Z" fill="#001432"/>
<path d="M124.301 74.5999C139.901 75.8999 155.501 76.6999 171.301 76.8999C172.201 56.8999 172.801 36.9999 173.101 17.0999C158.701 16.9999 144.501 16.2999 130.301 15.0999C128.601 34.8999 126.601 54.7999 124.301 74.5999Z" stroke="#7499D0" stroke-width="2" stroke-miterlimit="10" stroke-linecap="round" stroke-linejoin="round"/>
<path d="M155.9 37.7998C157.1 37.8998 158.3 37.8998 159.5 37.9998C159.5 39.2998 159.4 40.6998 159.4 41.9998" fill="#001432"/>
<path d="M155.9 37.7998C157.1 37.8998 158.3 37.8998 159.5 37.9998C159.5 39.2998 159.4 40.6998 159.4 41.9998" stroke="#7499D0" stroke-width="2" stroke-miterlimit="10" stroke-linecap="round" stroke-linejoin="round"/>
<path d="M139.701 40.6998C139.801 39.5998 140.001 38.3998 140.101 37.2998C141.501 37.2998 142.901 37.3998 144.301 37.3998" fill="#001432"/>
<path d="M139.701 40.6998C139.801 39.5998 140.001 38.3998 140.101 37.2998C141.501 37.2998 142.901 37.3998 144.301 37.3998" stroke="#7499D0" stroke-width="2" stroke-miterlimit="10" stroke-linecap="round" stroke-linejoin="round"/>
<path d="M142.302 55.6999C141.102 55.5999 139.802 55.4999 138.602 55.3999C138.702 54.0999 138.802 52.6999 138.802 51.3999" fill="#001432"/>
<path d="M142.302 55.6999C141.102 55.5999 139.802 55.4999 138.602 55.3999C138.702 54.0999 138.802 52.6999 138.802 51.3999" stroke="#7499D0" stroke-width="2" stroke-miterlimit="10" stroke-linecap="round" stroke-linejoin="round"/>
<path d="M158.802 52.6998C158.702 53.7998 158.602 54.9999 158.502 56.0999C157.002 56.0999 155.602 56.0999 154.102 56.0999" fill="#001432"/>
<path d="M158.802 52.6998C158.702 53.7998 158.602 54.9999 158.502 56.0999C157.002 56.0999 155.602 56.0999 154.102 56.0999" stroke="#7499D0" stroke-width="2" stroke-miterlimit="10" stroke-linecap="round" stroke-linejoin="round"/>
<path d="M153.9 43.5999C154 44.0999 154.2 44.6998 154.3 45.1998L153.9 43.5999Z" fill="#001432"/>
<path d="M153.9 43.5999C154 44.0999 154.2 44.6998 154.3 45.1998" stroke="#7499D0" stroke-width="2" stroke-miterlimit="10" stroke-linecap="round" stroke-linejoin="round"/>
<path d="M148.602 47.6998C148.702 48.1998 148.902 48.7998 149.002 49.2998L148.602 47.6998Z" fill="#001432"/>
<path d="M148.602 47.6998C148.702 48.1998 148.902 48.7998 149.002 49.2998" stroke="#7499D0" stroke-width="2" stroke-miterlimit="10" stroke-linecap="round" stroke-linejoin="round"/>
<path d="M144.301 43.1998C144.901 43.0998 145.501 42.8998 146.101 42.7998L144.301 43.1998Z" fill="#001432"/>
<path d="M144.301 43.1998C144.901 43.0998 145.501 42.8998 146.101 42.7998" stroke="#7499D0" stroke-width="2" stroke-miterlimit="10" stroke-linecap="round" stroke-linejoin="round"/>
<path d="M143.8 50.6998C143.7 49.8998 143.6 49.0998 143.5 48.2998L143.8 50.6998Z" fill="#001432"/>
<path d="M143.8 50.6998C143.7 49.8998 143.6 49.0998 143.5 48.2998" stroke="#7499D0" stroke-width="2" stroke-miterlimit="10" stroke-linecap="round" stroke-linejoin="round"/>
<path d="M171.4 66.9C156 66.9 140.7 66.3 125.6 65.2L171.4 66.9Z" fill="#001432"/>
<path d="M171.4 66.9C156 66.9 140.7 66.3 125.6 65.2" stroke="#7499D0" stroke-width="2" stroke-miterlimit="10" stroke-linecap="round" stroke-linejoin="round"/>
<path d="M99.8004 74.5C113.9 69 128 63 142 56.4C134.7 37.6 126.9 19.2 118.6 1C105.6 7.2 92.5004 12.9 79.4004 18.1C86.7004 36.6 93.5004 55.4 99.8004 74.5Z" fill="#001432"/>
<path d="M99.8004 74.5C113.9 69 128 63 142 56.4C134.7 37.6 126.9 19.2 118.6 1C105.6 7.2 92.5004 12.9 79.4004 18.1C86.7004 36.6 93.5004 55.4 99.8004 74.5Z" stroke="#7499D0" stroke-width="2" stroke-miterlimit="10" stroke-linecap="round" stroke-linejoin="round"/>
<path d="M112 27.5C113.1 27 114.3 26.5 115.4 26C115.9 27.2 116.4 28.4 116.9 29.6" fill="#001432"/>
<path d="M112 27.5C113.1 27 114.3 26.5 115.4 26C115.9 27.2 116.4 28.4 116.9 29.6" stroke="#7499D0" stroke-width="2" stroke-miterlimit="10" stroke-linecap="round" stroke-linejoin="round"/>
<path d="M99.2004 37.0999C98.8004 35.9999 98.4004 34.8999 97.9004 33.7999C99.1004 33.2999 100.4 32.8 101.6 32.2" fill="#001432"/>
<path d="M99.2004 37.0999C98.8004 35.9999 98.4004 34.8999 97.9004 33.7999C99.1004 33.2999 100.4 32.8 101.6 32.2" stroke="#7499D0" stroke-width="2" stroke-miterlimit="10" stroke-linecap="round" stroke-linejoin="round"/>
<path d="M107.7 49.3C106.5 49.8 105.4 50.3 104.2 50.7C103.8 49.5 103.3 48.3 102.9 47.1" fill="#001432"/>
<path d="M107.7 49.3C106.5 49.8 105.4 50.3 104.2 50.7C103.8 49.5 103.3 48.3 102.9 47.1" stroke="#7499D0" stroke-width="2" stroke-miterlimit="10" stroke-linecap="round" stroke-linejoin="round"/>
<path d="M120.801 39.5C121.201 40.6 121.701 41.7 122.101 42.8C120.801 43.4 119.601 43.9 118.301 44.5" fill="#001432"/>
<path d="M120.801 39.5C121.201 40.6 121.701 41.7 122.101 42.8C120.801 43.4 119.601 43.9 118.301 44.5" stroke="#7499D0" stroke-width="2" stroke-miterlimit="10" stroke-linecap="round" stroke-linejoin="round"/>
<path d="M112.701 33.3C113.001 33.9 113.301 34.4001 113.501 35.0001L112.701 33.3Z" fill="#001432"/>
<path d="M112.701 33.3C113.001 33.9 113.301 34.4001 113.501 35.0001" stroke="#7499D0" stroke-width="2" stroke-miterlimit="10" stroke-linecap="round" stroke-linejoin="round"/>
<path d="M109.801 39.4C110.101 40 110.301 40.6 110.601 41.1L109.801 39.4Z" fill="#001432"/>
<path d="M109.801 39.4C110.101 40 110.301 40.6 110.601 41.1" stroke="#7499D0" stroke-width="2" stroke-miterlimit="10" stroke-linecap="round" stroke-linejoin="round"/>
<path d="M103.9 37.2C104.5 36.9 105.1 36.6 105.7 36.2L103.9 37.2Z" fill="#001432"/>
<path d="M103.9 37.2C104.5 36.9 105.1 36.6 105.7 36.2" stroke="#7499D0" stroke-width="2" stroke-miterlimit="10" stroke-linecap="round" stroke-linejoin="round"/>
<path d="M106.5 44.6C106.1 43.8 105.8 42.9 105.4 42.1L106.5 44.6Z" fill="#001432"/>
<path d="M106.5 44.6C106.1 43.8 105.8 42.9 105.4 42.1" stroke="#7499D0" stroke-width="2" stroke-miterlimit="10" stroke-linecap="round" stroke-linejoin="round"/>
<path d="M138.599 47.7C124.699 53.8 110.699 59.5 96.6992 64.8L138.599 47.7Z" fill="#001432"/>
<path d="M138.599 47.7C124.699 53.8 110.699 59.5 96.6992 64.8" stroke="#7499D0" stroke-width="2" stroke-miterlimit="10" stroke-linecap="round" stroke-linejoin="round"/>
<path d="M47.8 146.9C57.3 134.1 66.3 120.4 74.5 106C58.2 93.1 41.2 81.5 23.9 71.2C16.9 84.3 9.2 96.7 1 108.3C17.2 119.8 32.9 132.7 47.8 146.9Z" fill="#001432"/>
<path d="M47.8 146.7C57.3 133.9 66.3 120.2 74.5 105.8C58.2 92.9 41.2 81.3 23.9 71C16.9 84.1 9.2 96.5 1 108.1C17.2 119.6 32.9 132.5 47.8 146.7Z" stroke="#7499D0" stroke-width="2" stroke-miterlimit="10" stroke-linecap="round" stroke-linejoin="round"/>
<path d="M33.3008 97.5999C34.0008 96.5999 34.8007 95.4999 35.5007 94.3999C36.6007 95.0999 37.7008 95.7999 38.8008 96.3999" stroke="#7499D0" stroke-width="2" stroke-miterlimit="10" stroke-linecap="round" stroke-linejoin="round"/>
<path d="M27.8 113.8C26.9 113 25.9 112.2 25 111.4C25.7 110.2 26.4 109.1 27 107.9" stroke="#7499D0" stroke-width="2" stroke-miterlimit="10" stroke-linecap="round" stroke-linejoin="round"/>
<path d="M41.9004 119.7C41.1004 120.8 40.3004 121.8 39.5004 122.9C38.5004 122.1 37.4004 121.3 36.4004 120.6" stroke="#7499D0" stroke-width="2" stroke-miterlimit="10" stroke-linecap="round" stroke-linejoin="round"/>
<path d="M47.6992 103C48.6992 103.8 49.5992 104.6 50.5992 105.4C49.8992 106.7 49.2992 108 48.5992 109.2" stroke="#7499D0" stroke-width="2" stroke-miterlimit="10" stroke-linecap="round" stroke-linejoin="round"/>
<path d="M37.5996 102.3C37.9996 102.7 38.3996 103 38.7996 103.4" stroke="#7499D0" stroke-width="2" stroke-miterlimit="10" stroke-linecap="round" stroke-linejoin="round"/>
<path d="M38.5 109.4C38.9 109.8 39.3 110.1 39.6 110.5" stroke="#7499D0" stroke-width="2" stroke-miterlimit="10" stroke-linecap="round" stroke-linejoin="round"/>
<path d="M32 110.7C32.3 110.2 32.7 109.8 33 109.3" stroke="#7499D0" stroke-width="2" stroke-miterlimit="10" stroke-linecap="round" stroke-linejoin="round"/>
<path d="M38.1008 115.8C37.5008 115.3 36.9008 114.7 36.3008 114.2" stroke="#7499D0" stroke-width="2" stroke-miterlimit="10" stroke-linecap="round" stroke-linejoin="round"/>
<path d="M66.3992 100.1C58.4992 114.1 49.8992 127.3 40.6992 139.8L66.3992 100.1Z" fill="#001432"/>
<path d="M66.3992 100.1C58.4992 114.1 49.8992 127.3 40.6992 139.8" stroke="#7499D0" stroke-width="2" stroke-miterlimit="10" stroke-linecap="round" stroke-linejoin="round"/>
</svg>
