<svg width="9" height="7" viewBox="0 0 9 7" fill="none" xmlns="http://www.w3.org/2000/svg">
<path fill-rule="evenodd" clip-rule="evenodd" d="M8.82812 0.737259C8.93814 0.847315 8.99995 0.996562 8.99995 1.15218C8.99995 1.3078 8.93814 1.45705 8.82812 1.5671L4.13311 6.26211C4.02305 6.37213 3.8738 6.43394 3.71819 6.43394C3.56257 6.43394 3.41332 6.37213 3.30326 6.26211L0.955759 3.91461C0.848854 3.80392 0.789701 3.65567 0.791038 3.5018C0.792375 3.34792 0.854096 3.20072 0.962908 3.09191C1.07172 2.9831 1.21892 2.92138 1.37279 2.92004C1.52667 2.91871 1.67492 2.97786 1.7856 3.08476L3.71819 5.01735L7.99827 0.737259C8.10833 0.627237 8.25758 0.56543 8.4132 0.56543C8.56881 0.56543 8.71806 0.627237 8.82812 0.737259Z" fill="#0046F5"/>
</svg>
