<svg width="34" height="34" viewBox="0 0 34 34" fill="none" xmlns="http://www.w3.org/2000/svg">
<path d="M14.8141 23.6353C14.4498 23.6335 14.0977 23.5039 13.8192 23.2691L8.47537 18.7558C8.16325 18.4913 7.96889 18.1137 7.935 17.706C7.9011 17.2983 8.03044 16.8938 8.2946 16.5814C8.55884 16.2705 8.93519 16.0766 9.34172 16.0419C9.74824 16.0072 10.152 16.1344 10.4651 16.396L14.6045 19.8981L22.517 10.1307C22.7744 9.81362 23.1471 9.61173 23.5532 9.56936C23.9594 9.52698 24.3657 9.6476 24.683 9.90471C24.8404 10.0318 24.9712 10.1888 25.0678 10.3666C25.1644 10.5444 25.2249 10.7395 25.2459 10.9408C25.2669 11.142 25.2479 11.3454 25.1901 11.5393C25.1323 11.7332 25.0367 11.9138 24.9089 12.0707L16.01 23.0596C15.8816 23.2198 15.7222 23.3526 15.5414 23.4501C15.3606 23.5475 15.162 23.6076 14.9575 23.6268L14.8141 23.6353Z" fill="#0CE8F9"/>
<path d="M16.5934 33.192C12.1933 33.1868 7.97508 31.4362 4.86421 28.3245C1.75335 25.2128 0.00398671 20.9941 0 16.594C0.00485375 12.1946 1.75462 7.97677 4.86541 4.86586C7.9762 1.75494 12.194 0.0050274 16.5934 0C20.9924 0.00571884 25.2097 1.75577 28.3203 4.86639C31.431 7.97702 33.181 12.1943 33.1867 16.5934C33.1821 20.9932 31.4325 25.2117 28.3218 28.3233C25.2111 31.435 20.9932 33.1859 16.5934 33.192ZM16.5934 3.08355C13.0113 3.08736 9.57698 4.51198 7.044 7.04484C4.51102 9.5777 3.08622 13.0119 3.08223 16.594C3.08535 20.1768 4.50973 23.612 7.04277 26.1458C9.57581 28.6795 13.0106 30.1049 16.5934 30.1091C20.1759 30.1042 23.6103 28.6786 26.1432 26.145C28.6761 23.6114 30.1007 20.1766 30.1045 16.594C30.0997 13.0122 28.6746 9.57847 26.1418 7.0458C23.609 4.51312 20.1752 3.08823 16.5934 3.08355Z" fill="#0046F5"/>
</svg>
