<svg width="89" height="88" viewBox="0 0 89 88" fill="none" xmlns="http://www.w3.org/2000/svg">
<path d="M44.5 84.2002C22.1184 84.2002 4 66.0818 4 43.7002C4 21.3186 22.1184 3.2002 44.5 3.2002C66.8816 3.2002 85 21.3186 85 43.7002C85 66.0818 66.8816 84.2002 44.5 84.2002Z" fill="#0C1438"/>
<path d="M44.5 84.2002C22.1184 84.2002 4 66.0818 4 43.7002C4 21.3186 22.1184 3.2002 44.5 3.2002C66.8816 3.2002 85 21.3186 85 43.7002C85 66.0818 66.8816 84.2002 44.5 84.2002Z" stroke="#25408F" stroke-width="6.09022"/>
<path d="M45.5658 52.2264H23.9455C22.2707 52.2264 20.9004 50.856 20.9004 49.3335V37.4575C20.9004 35.7827 22.2707 34.5647 23.9455 34.5647H45.5658C47.2406 34.5647 48.6109 35.935 48.6109 37.4575V49.3335C48.6109 51.0083 47.2406 52.2264 45.5658 52.2264Z" stroke="#0046F5" stroke-width="2.58835" stroke-miterlimit="10" stroke-linecap="round" stroke-linejoin="round"/>
<path d="M55.7667 45.2224H65.3587C67.0335 45.2224 68.4038 46.5927 68.4038 48.1153V59.9912C68.4038 61.666 67.0335 62.8841 65.3587 62.8841H43.7385C42.0637 62.8841 40.6934 61.5138 40.6934 59.9912V58.7732" stroke="#0CE8F9" stroke-width="2.58835" stroke-miterlimit="10" stroke-linecap="round" stroke-linejoin="round"/>
<path d="M20.9004 37.762H48.6109" stroke="#0046F5" stroke-width="2.58835" stroke-miterlimit="10" stroke-linecap="round" stroke-linejoin="round"/>
<path d="M56.9844 48.4199H68.4035" stroke="#0CE8F9" stroke-width="2.58835" stroke-miterlimit="10" stroke-linecap="round" stroke-linejoin="round"/>
<path d="M65.206 37.4576C65.206 32.7377 60.9428 28.9313 55.6138 28.9313H54.2435M34.9071 33.1945L37.1909 29.2358C37.7999 28.3223 38.8657 27.7132 39.9315 27.7132H41.1495C42.8244 27.7132 44.3469 28.9313 44.3469 30.4539C44.3469 31.9764 42.9766 33.1945 41.1495 33.1945H34.9071V33.1945ZM35.6684 33.1945L33.3845 29.2358C32.7755 28.3223 31.7097 27.7132 30.6439 27.7132H29.4259C27.7511 27.7132 26.2285 28.9313 26.2285 30.4539C26.2285 31.9764 27.5988 33.1945 29.4259 33.1945H35.6684V33.1945ZM54.3958 26.6475L51.8074 28.9313L54.3958 31.2151V26.6475Z" stroke="#0046F5" stroke-width="2.58835" stroke-miterlimit="10" stroke-linecap="round" stroke-linejoin="round"/>
</svg>
