<svg width="55" height="46" viewBox="0 0 55 46" fill="none" xmlns="http://www.w3.org/2000/svg">
<path d="M8.46798 44.0149H1.31242C0.964392 44.0147 0.630655 43.8764 0.384561 43.6303C0.138467 43.3842 0.000147815 43.0505 0 42.7024V25.2004C0.000147815 24.8523 0.138467 24.5186 0.384561 24.2725C0.630655 24.0264 0.964392 23.8881 1.31242 23.8879H8.46798C8.81601 23.8881 9.14974 24.0264 9.39583 24.2725C9.64193 24.5186 9.78025 24.8523 9.7804 25.2004V42.7024C9.78025 43.0505 9.64193 43.3842 9.39583 43.6303C9.14974 43.8764 8.81601 44.0147 8.46798 44.0149ZM2.62261 41.3872H7.15556V26.5105H2.62261V41.3872Z" fill="#0046F5"/>
<path d="M33.6897 38.7641H22.3113C21.9631 38.764 21.6293 38.6256 21.3832 38.3793C21.1371 38.1331 20.9988 37.7993 20.9988 37.4511C20.999 37.1031 21.1373 36.7694 21.3834 36.5233C21.6295 36.2772 21.9632 36.1389 22.3113 36.1387H33.6897C34.0377 36.1386 34.3714 36.0002 34.6175 35.7541C34.8636 35.5081 35.0019 35.1743 35.0021 34.8263C35.0013 34.4784 34.8628 34.145 34.6169 33.8991C34.3709 33.6531 34.0375 33.5146 33.6897 33.5139H25.8135C25.673 33.5147 25.5333 33.4923 25.4002 33.4475L15.1022 30.0133H8.46867C8.12064 30.0132 7.78691 29.8749 7.54081 29.6288C7.29472 29.3827 7.1564 29.0489 7.15625 28.7009C7.15625 28.3528 7.2945 28.0189 7.54062 27.7727C7.78673 27.5265 8.12054 27.3881 8.46867 27.3879H15.3124C15.4539 27.3892 15.5943 27.4116 15.7291 27.4543L26.0271 30.8879H33.6897C34.7337 30.889 35.7347 31.3042 36.473 32.0424C37.2112 32.7807 37.6264 33.7817 37.6275 34.8257C37.6266 35.8699 37.2114 36.871 36.4732 37.6094C35.7349 38.3478 34.7338 38.7631 33.6897 38.7641Z" fill="#0046F5"/>
<path d="M29.967 45.9866C29.8214 45.9863 29.677 45.9614 29.5397 45.9129L8.53768 38.6938C8.20904 38.5794 7.93893 38.3397 7.78619 38.027C7.63346 37.7143 7.61046 37.354 7.72222 37.0244C7.77707 36.8604 7.86409 36.709 7.97818 36.5791C8.09226 36.4491 8.23112 36.3432 8.38663 36.2676C8.54213 36.192 8.71117 36.1481 8.88383 36.1386C9.05649 36.1292 9.22931 36.1542 9.39217 36.2123L29.9993 43.2959L51.2819 37.0266C51.479 36.9691 51.6622 36.8718 51.8202 36.7408C51.9781 36.6098 52.1076 36.4477 52.2006 36.2647C52.2966 36.0852 52.3548 35.8879 52.3717 35.6851C52.3885 35.4822 52.3637 35.278 52.2987 35.0851C52.1843 34.7192 51.9339 34.4112 51.5992 34.2244C51.2644 34.0377 50.8708 33.9864 50.4994 34.0811L36.1927 37.4968C36.0249 37.5371 35.8508 37.5438 35.6804 37.5166C35.51 37.4895 35.3466 37.4289 35.1996 37.3385C35.0526 37.2481 34.9249 37.1296 34.8238 36.9897C34.7227 36.8499 34.6502 36.6915 34.6104 36.5235C34.5303 36.1847 34.5878 35.8279 34.7702 35.5314C34.9527 35.2348 35.2451 35.0226 35.5837 34.9412L49.8864 31.5282C50.8955 31.2845 51.9593 31.4292 52.8666 31.9337C53.7739 32.4381 54.4582 33.2654 54.7836 34.2512C54.9614 34.7785 55.0305 35.3363 54.9866 35.891C54.9427 36.4457 54.7867 36.9857 54.5281 37.4784C54.2726 37.9741 53.919 38.4126 53.4888 38.7674C53.0585 39.1221 52.5607 39.3857 52.0254 39.5422L30.3362 45.9308C30.2164 45.9665 30.0921 45.9853 29.967 45.9866Z" fill="#0046F5"/>
<path d="M36.0717 20.1281C35.7615 20.1266 35.4617 20.0163 35.2245 19.8163L30.6737 15.9728C30.4079 15.7475 30.2424 15.426 30.2135 15.0787C30.1846 14.7315 30.2948 14.387 30.5197 14.121C30.7448 13.8562 31.0653 13.6911 31.4115 13.6615C31.7577 13.632 32.1015 13.7404 32.3682 13.9631L35.8933 16.9455L42.6316 8.62756C42.8508 8.35756 43.1682 8.18562 43.514 8.14954C43.8599 8.11346 44.206 8.21618 44.4761 8.43513C44.6102 8.54338 44.7216 8.67706 44.8038 8.82847C44.8861 8.97987 44.9376 9.14604 44.9555 9.31743C44.9734 9.48881 44.9573 9.66205 44.908 9.82718C44.8588 9.9923 44.7774 10.1461 44.6686 10.2797L37.0902 19.6378C36.9808 19.7743 36.8451 19.8874 36.6911 19.9704C36.5371 20.0534 36.368 20.1045 36.1939 20.1209L36.0717 20.1281Z" fill="#0CE8F9"/>
<path d="M37.588 28.2664C33.8409 28.2619 30.2486 26.7712 27.5994 24.1212C24.9502 21.4713 23.4604 17.8786 23.457 14.1315C23.4612 10.385 24.9513 6.79304 27.6004 4.14378C30.2496 1.49451 33.8414 0.00428135 37.588 0C41.3343 0.00487018 44.9257 1.49522 47.5747 4.14424C50.2237 6.79325 51.7141 10.3847 51.719 14.131C51.715 17.8779 50.225 21.4703 47.576 24.1202C44.9269 26.7701 41.3349 28.2612 37.588 28.2664ZM37.588 2.62596C34.5375 2.62921 31.6128 3.84241 29.4557 5.9994C27.2986 8.1564 26.0853 11.081 26.0819 14.1315C26.0845 17.1826 27.2975 20.108 29.4547 22.2658C31.6118 24.4236 34.5369 25.6374 37.588 25.641C40.6389 25.6368 43.5636 24.4228 45.7207 22.2652C47.8777 20.1075 49.0909 17.1824 49.0941 14.1315C49.09 11.0812 47.8764 8.15705 45.7194 6.00022C43.5625 3.84339 40.6383 2.62994 37.588 2.62596Z" fill="#0046F5"/>
</svg>
