<svg width="44" height="55" viewBox="0 0 44 55" fill="none" xmlns="http://www.w3.org/2000/svg">
<path d="M26.7999 23.1315C26.4567 23.1314 26.1276 22.995 25.8849 22.7523C25.6423 22.5096 25.5059 22.1805 25.5057 21.8373C25.5044 20.9074 25.1346 20.0159 24.4774 19.3581C23.8201 18.7003 22.9289 18.3298 21.9989 18.3278C21.0691 18.33 20.178 18.7005 19.5209 19.3583C18.8637 20.0161 18.494 20.9075 18.4927 21.8373C18.4925 22.1805 18.3562 22.5096 18.1135 22.7523C17.8708 22.995 17.5417 23.1314 17.1985 23.1315C16.8553 23.1314 16.5262 22.995 16.2835 22.7523C16.0408 22.5096 15.9044 22.1805 15.9043 21.8373C15.9059 20.2212 16.5484 18.6716 17.691 17.5286C18.8335 16.3855 20.3828 15.7423 21.9989 15.74C23.6149 15.743 25.1638 16.3865 26.3061 17.5296C27.4485 18.6726 28.091 20.2219 28.093 21.8379C28.0928 22.1808 27.9564 22.5096 27.714 22.7521C27.4716 22.9947 27.1428 23.1311 26.7999 23.1315Z" fill="#0CE8F9"/>
<path d="M25.3509 19.5527C25.1615 19.5528 24.9743 19.5116 24.8024 19.4319C24.5591 19.3172 24.3573 19.1298 24.225 18.8955C24.0927 18.6613 24.0364 18.3918 24.0638 18.1242C23.8394 18.2718 23.5746 18.3459 23.3062 18.3362C23.0378 18.3265 22.7791 18.2335 22.566 18.07C22.2936 17.8611 22.1152 17.5527 22.0699 17.2124C22.0246 16.8721 22.1162 16.5278 22.3245 16.2549L28.8983 7.69911C29.093 7.44702 29.3739 7.27559 29.6871 7.21764C30.0003 7.1597 30.3239 7.21929 30.5959 7.38503C30.8689 7.55003 31.0711 7.81029 31.1635 8.11559C31.2559 8.42088 31.232 8.74957 31.0963 9.03825L26.5238 18.8113C26.419 19.0336 26.253 19.2214 26.0453 19.3527C25.8375 19.484 25.5967 19.5534 25.3509 19.5527Z" fill="#0CE8F9"/>
<path d="M42.7042 23.2939H1.2942C0.950999 23.2938 0.621897 23.1574 0.379219 22.9147C0.136541 22.672 0.000143508 22.3429 0 21.9997C0.00616371 16.1669 2.32597 10.5748 6.45038 6.45037C10.5748 2.32596 16.1669 0.00616371 21.9997 0C27.8324 0.00673588 33.4242 2.32672 37.5485 6.45102C41.6727 10.5753 43.9927 16.1671 43.9995 21.9997C43.9994 22.1698 43.9658 22.3381 43.9007 22.4952C43.8356 22.6522 43.7401 22.7949 43.6199 22.9151C43.4996 23.0353 43.3568 23.1306 43.1997 23.1956C43.0426 23.2606 42.8742 23.294 42.7042 23.2939ZM2.62847 20.7055H41.365C41.031 15.7947 38.8462 11.1936 35.2517 7.83096C31.6572 4.46834 26.9208 2.59474 21.9987 2.58839C17.0763 2.59495 12.3397 4.46855 8.74484 7.83105C5.14997 11.1936 2.96451 15.7946 2.62955 20.7055H2.62847Z" fill="#0046F5"/>
<path d="M4.74537 54.7592C4.40217 54.7591 4.07307 54.6227 3.83039 54.38C3.58771 54.1373 3.45132 53.8082 3.45117 53.465V28.9013C3.45132 28.5581 3.58771 28.229 3.83039 27.9863C4.07307 27.7436 4.40217 27.6072 4.74537 27.6071C5.08857 27.6072 5.41767 27.7436 5.66035 27.9863C5.90303 28.229 6.03942 28.5581 6.03957 28.9013V53.465C6.03942 53.8082 5.90303 54.1373 5.66035 54.38C5.41767 54.6227 5.08857 54.7591 4.74537 54.7592Z" fill="#0046F5"/>
<path d="M16.2512 54.7592C15.908 54.7591 15.5789 54.6227 15.3363 54.38C15.0936 54.1373 14.9572 53.8082 14.957 53.465V28.9013C14.9572 28.5581 15.0936 28.229 15.3363 27.9863C15.5789 27.7436 15.908 27.6072 16.2512 27.6071C16.5944 27.6072 16.9235 27.7436 17.1662 27.9863C17.4089 28.229 17.5453 28.5581 17.5454 28.9013V53.465C17.5453 53.8082 17.4089 54.1373 17.1662 54.38C16.9235 54.6227 16.5944 54.7591 16.2512 54.7592Z" fill="#0046F5"/>
<path d="M27.7532 54.7592C27.41 54.7591 27.0809 54.6227 26.8382 54.38C26.5955 54.1373 26.4591 53.8082 26.459 53.465V28.9013C26.4591 28.5581 26.5955 28.229 26.8382 27.9863C27.0809 27.7436 27.41 27.6072 27.7532 27.6071C28.0964 27.6072 28.4255 27.7436 28.6682 27.9863C28.9108 28.229 29.0472 28.5581 29.0474 28.9013V53.465C29.0472 53.8082 28.9108 54.1373 28.6682 54.38C28.4255 54.6227 28.0964 54.7591 27.7532 54.7592Z" fill="#0046F5"/>
<path d="M39.2551 54.7592C38.9119 54.7591 38.5828 54.6227 38.3402 54.38C38.0975 54.1373 37.9611 53.8082 37.9609 53.465V28.9013C37.9611 28.5581 38.0975 28.229 38.3402 27.9863C38.5828 27.7436 38.9119 27.6072 39.2551 27.6071C39.5983 27.6072 39.9274 27.7436 40.1701 27.9863C40.4128 28.229 40.5492 28.5581 40.5493 28.9013V53.465C40.5492 53.8082 40.4128 54.1373 40.1701 54.38C39.9274 54.6227 39.5983 54.7591 39.2551 54.7592Z" fill="#0046F5"/>
<path d="M4.74594 40.9817C6.65188 40.9817 8.19695 39.4367 8.19695 37.5307C8.19695 35.6248 6.65188 34.0797 4.74594 34.0797C2.83999 34.0797 1.29492 35.6248 1.29492 37.5307C1.29492 39.4367 2.83999 40.9817 4.74594 40.9817Z" fill="white"/>
<path d="M4.74521 42.2737C3.48701 42.2727 2.28063 41.7725 1.39095 40.8828C0.501265 39.9931 0.00100386 38.7867 0 37.5285C0.0015762 36.2705 0.502021 35.0645 1.39158 34.1749C2.28114 33.2853 3.48719 32.7849 4.74521 32.7833C6.00324 32.7849 7.20928 33.2853 8.09884 34.1749C8.9884 35.0645 9.48884 36.2705 9.49042 37.5285C9.48942 38.7867 8.98915 39.9931 8.09947 40.8828C7.20979 41.7725 6.00341 42.2727 4.74521 42.2737ZM4.74521 35.3717C4.17345 35.3726 3.62536 35.6001 3.22106 36.0044C2.81677 36.4087 2.58925 36.9568 2.58839 37.5285C2.58839 38.1006 2.81561 38.6493 3.22008 39.0538C3.62454 39.4584 4.17314 39.6858 4.74521 39.6859C5.31697 39.685 5.86506 39.4575 6.26936 39.0532C6.67366 38.6489 6.90117 38.1008 6.90203 37.5291C6.9006 36.9575 6.6729 36.4097 6.26873 36.0056C5.86456 35.6014 5.31679 35.3737 4.74521 35.3723V35.3717Z" fill="#0046F5"/>
<path d="M16.2498 49.6089C18.1558 49.6089 19.7009 48.0639 19.7009 46.1579C19.7009 44.252 18.1558 42.7069 16.2498 42.7069C14.3439 42.7069 12.7988 44.252 12.7988 46.1579C12.7988 48.0639 14.3439 49.6089 16.2498 49.6089Z" fill="white"/>
<path d="M16.2511 50.9009C14.9929 50.8999 13.7865 50.3997 12.8968 49.51C12.0071 48.6203 11.5069 47.4139 11.5059 46.1557C11.5074 44.8977 12.0079 43.6917 12.8974 42.8021C13.787 41.9125 14.993 41.4121 16.2511 41.4105C17.5092 41.4124 18.7153 41.913 19.605 42.8025C20.4946 43.6921 20.9954 44.8981 20.9974 46.1563C20.9956 47.4144 20.495 48.6205 19.6052 49.5099C18.7154 50.3994 17.5092 50.8997 16.2511 50.9009ZM16.2511 43.9989C15.6793 43.9998 15.1312 44.2273 14.7269 44.6316C14.3226 45.0359 14.0951 45.584 14.0943 46.1557C14.0944 46.7277 14.3217 47.2762 14.7261 47.6807C15.1306 48.0851 15.6791 48.3124 16.2511 48.3126C16.8229 48.3118 17.3711 48.0844 17.7754 47.68C18.1797 47.2757 18.4072 46.7275 18.4079 46.1557C18.4063 45.5842 18.1786 45.0366 17.7744 44.6326C17.3702 44.2285 16.8226 44.0009 16.2511 43.9995V43.9989Z" fill="#0046F5"/>
<path d="M27.7518 37.5308C29.6577 37.5308 31.2028 35.9857 31.2028 34.0798C31.2028 32.1739 29.6577 30.6288 27.7518 30.6288C25.8459 30.6288 24.3008 32.1739 24.3008 34.0798C24.3008 35.9857 25.8459 37.5308 27.7518 37.5308Z" fill="white"/>
<path d="M27.753 38.8228C26.4948 38.8218 25.2884 38.3216 24.3988 37.4319C23.5091 36.5422 23.0088 35.3358 23.0078 34.0776C23.0094 32.8196 23.5098 31.6135 24.3994 30.724C25.289 29.8344 26.495 29.334 27.753 29.3324C29.011 29.334 30.2171 29.8344 31.1067 30.724C31.9962 31.6135 32.4967 32.8196 32.4982 34.0776C32.4972 35.3358 31.997 36.5422 31.1073 37.4319C30.2176 38.3216 29.0112 38.8218 27.753 38.8228ZM27.753 31.9208C27.1813 31.9217 26.6332 32.1492 26.2289 32.5535C25.8246 32.9577 25.5971 33.5058 25.5962 34.0776C25.5965 34.6495 25.8238 35.198 26.2282 35.6024C26.6327 36.0068 27.1811 36.2341 27.753 36.2344C28.3248 36.2336 28.8729 36.0061 29.2772 35.6018C29.6815 35.1975 29.909 34.6494 29.9098 34.0776C29.9083 33.5061 29.6805 32.9585 29.2764 32.5544C28.8722 32.1504 28.3245 31.9228 27.753 31.9213V31.9208Z" fill="#0046F5"/>
<path d="M39.2557 51.3348C41.1616 51.3348 42.7067 49.7897 42.7067 47.8838C42.7067 45.9778 41.1616 44.4327 39.2557 44.4327C37.3498 44.4327 35.8047 45.9778 35.8047 47.8838C35.8047 49.7897 37.3498 51.3348 39.2557 51.3348Z" fill="white"/>
<path d="M39.255 52.6268C37.9968 52.6258 36.7904 52.1255 35.9007 51.2358C35.011 50.3461 34.5108 49.1398 34.5098 47.8816C34.5113 46.6235 35.0118 45.4175 35.9013 44.5279C36.7909 43.6384 37.997 43.1379 39.255 43.1364C40.513 43.1379 41.719 43.6384 42.6086 44.5279C43.4982 45.4175 43.9986 46.6235 44.0002 47.8816C43.9992 49.1398 43.4989 50.3461 42.6092 51.2358C41.7196 52.1255 40.5132 52.6258 39.255 52.6268ZM39.255 45.7247C38.6832 45.7256 38.1351 45.9531 37.7308 46.3574C37.3265 46.7617 37.099 47.3098 37.0982 47.8816C37.0983 48.4536 37.3256 49.0022 37.73 49.4067C38.1344 49.8112 38.6829 50.0386 39.255 50.0389C39.8267 50.0381 40.3748 49.8105 40.7791 49.4062C41.1834 49.002 41.4109 48.4539 41.4118 47.8821C41.4104 47.3105 41.1827 46.7628 40.7785 46.3586C40.3743 45.9544 39.8266 45.7267 39.255 45.7253V45.7247Z" fill="#0046F5"/>
</svg>
