<svg width="212" height="190" viewBox="0 0 212 190" fill="none" xmlns="http://www.w3.org/2000/svg">
<path d="M65.1503 90.9826C46.9586 90.6005 28.8274 89.6404 10.5375 87.9624C11.9137 64.7324 13.6247 41.6543 15.6824 18.6125C32.3418 20.2369 48.8424 21.1435 65.4035 21.472C64.9763 44.5674 64.8838 67.8147 65.1503 90.9826Z" fill="#001432"/>
<path d="M65.1503 90.9827C46.9586 90.6005 28.8274 89.6404 10.5375 87.9624C11.9137 64.7324 13.6247 41.6543 15.6824 18.6125C32.3418 20.2369 48.8424 21.1435 65.4035 21.472C64.9763 44.5674 64.8838 67.8147 65.1503 90.9827Z" stroke="#7499D0" stroke-width="2" stroke-miterlimit="10" stroke-linecap="round" stroke-linejoin="round"/>
<path d="M33.0664 44.6212C31.6671 44.5918 30.2798 44.4468 28.8804 44.4174C28.7234 45.9203 28.6698 47.5509 28.5127 49.0538" fill="#001432"/>
<path d="M33.0664 44.6212C31.667 44.5918 30.2798 44.4468 28.8804 44.4174C28.7234 45.9203 28.6698 47.5509 28.5127 49.0538" stroke="#7499D0" stroke-width="2" stroke-miterlimit="10" stroke-linecap="round" stroke-linejoin="round"/>
<path d="M51.4446 49.9312C51.4619 48.6475 51.3757 47.236 51.393 45.9523C49.7745 45.7831 48.1439 45.7296 46.5255 45.5604" fill="#001432"/>
<path d="M51.4446 49.9312C51.4619 48.6475 51.3757 47.236 51.393 45.9523C49.7745 45.7831 48.1439 45.7296 46.5255 45.5604" stroke="#7499D0" stroke-width="2" stroke-miterlimit="10" stroke-linecap="round" stroke-linejoin="round"/>
<path d="M46.6249 66.9582C48.0242 66.9876 49.5392 67.0291 50.9385 67.0584C50.98 65.5435 51.0336 63.9129 51.1906 62.41" fill="#001432"/>
<path d="M46.6249 66.9582C48.0242 66.9876 49.5392 67.0291 50.9385 67.0584C50.98 65.5435 51.0336 63.9129 51.1906 62.41" stroke="#7499D0" stroke-width="2" stroke-miterlimit="10" stroke-linecap="round" stroke-linejoin="round"/>
<path d="M27.9142 61.4962C27.8968 62.7799 27.8675 64.1793 27.8502 65.4631C29.5843 65.6443 31.2027 65.8135 32.9368 65.9947" fill="#001432"/>
<path d="M27.9142 61.4962C27.8968 62.7799 27.8675 64.1793 27.8502 65.4631C29.5843 65.6443 31.2027 65.8135 32.9368 65.9947" stroke="#7499D0" stroke-width="2" stroke-miterlimit="10" stroke-linecap="round" stroke-linejoin="round"/>
<path d="M34.6758 51.5681C34.4998 52.1341 34.196 52.8035 34.02 53.3695L34.6758 51.5681Z" fill="#001432"/>
<path d="M34.6758 51.5681C34.4998 52.1341 34.196 52.8035 34.02 53.3695" stroke="#7499D0" stroke-width="2" stroke-miterlimit="10" stroke-linecap="round" stroke-linejoin="round"/>
<path d="M40.3086 56.9482C40.1326 57.5142 39.8289 58.1837 39.6529 58.7496L40.3086 56.9482Z" fill="#001432"/>
<path d="M40.3086 56.9482C40.1326 57.5142 39.8289 58.1837 39.6529 58.7496" stroke="#7499D0" stroke-width="2" stroke-miterlimit="10" stroke-linecap="round" stroke-linejoin="round"/>
<path d="M45.8228 52.2657C45.1412 52.0776 44.4718 51.7738 43.7902 51.5857L45.8228 52.2657Z" fill="#001432"/>
<path d="M45.8228 52.2657C45.1412 52.0776 44.4718 51.7738 43.7902 51.5857" stroke="#7499D0" stroke-width="2" stroke-miterlimit="10" stroke-linecap="round" stroke-linejoin="round"/>
<path d="M45.4959 60.9965C45.7082 60.0837 45.9205 59.1709 46.1328 58.2582L45.4959 60.9965Z" fill="#001432"/>
<path d="M45.4959 60.9965C45.7082 60.0837 45.9205 59.1709 46.1328 58.2582" stroke="#7499D0" stroke-width="2" stroke-miterlimit="10" stroke-linecap="round" stroke-linejoin="round"/>
<path d="M11.6283 76.3898C29.4316 78.2506 47.1918 79.4057 64.7812 79.9586L11.6283 76.3898Z" fill="#001432"/>
<path d="M11.6283 76.3898C29.4316 78.2506 47.1918 79.4057 64.7812 79.9586" stroke="#7499D0" stroke-width="2" stroke-miterlimit="10" stroke-linecap="round" stroke-linejoin="round"/>
<path d="M93.4843 93.8275C77.8484 85.7654 62.273 77.1253 46.8857 67.8036C57.5966 46.9518 68.8372 26.6227 80.6316 6.58535C94.9112 15.3238 109.367 23.4962 123.883 31.0907C113.208 51.5957 103.075 72.508 93.4843 93.8275Z" fill="#001432"/>
<path d="M93.4843 93.8275C77.8484 85.7654 62.273 77.1253 46.8857 67.8036C57.5966 46.9518 68.8372 26.6227 80.6316 6.58535C94.9112 15.3238 109.367 23.4962 123.883 31.0907C113.208 51.5957 103.075 72.508 93.4843 93.8275Z" stroke="#7499D0" stroke-width="2" stroke-miterlimit="10" stroke-linecap="round" stroke-linejoin="round"/>
<path d="M85.0609 38.0184C83.8497 37.3074 82.5228 36.5844 81.3116 35.8735C80.5885 37.2003 79.8655 38.5272 79.1425 39.854" fill="#001432"/>
<path d="M85.0609 38.0184C83.8497 37.3074 82.5228 36.5844 81.3116 35.8735C80.5885 37.2003 79.8655 38.5272 79.1425 39.854" stroke="#7499D0" stroke-width="2" stroke-miterlimit="10" stroke-linecap="round" stroke-linejoin="round"/>
<path d="M98.698 50.6631C99.2934 49.4398 99.8887 48.2165 100.6 47.0052C99.2728 46.2822 97.8303 45.5471 96.5155 44.7084" fill="#001432"/>
<path d="M98.698 50.6631C99.2934 49.4398 99.8887 48.2165 100.6 47.0052C99.2728 46.2822 97.8303 45.5471 96.5155 44.7084" stroke="#7499D0" stroke-width="2" stroke-miterlimit="10" stroke-linecap="round" stroke-linejoin="round"/>
<path d="M87.396 63.74C88.7229 64.4631 89.9341 65.174 91.2731 65.7814C91.8805 64.4425 92.6035 63.1157 93.2109 61.7767" fill="#001432"/>
<path d="M87.396 63.74C88.7229 64.4631 89.9341 65.174 91.2731 65.7814C91.8805 64.4425 92.6035 63.1157 93.2109 61.7767" stroke="#7499D0" stroke-width="2" stroke-miterlimit="10" stroke-linecap="round" stroke-linejoin="round"/>
<path d="M73.438 50.8279C72.8426 52.0513 72.1317 53.2625 71.5364 54.4858C72.9667 55.3365 74.2936 56.0596 75.724 56.9103" fill="#001432"/>
<path d="M73.438 50.8279C72.8426 52.0513 72.1317 53.2625 71.5364 54.4858C72.9667 55.3365 74.2936 56.0596 75.724 56.9103" stroke="#7499D0" stroke-width="2" stroke-miterlimit="10" stroke-linecap="round" stroke-linejoin="round"/>
<path d="M83.5508 44.639C83.1315 45.2964 82.7242 45.8382 82.4205 46.5077L83.5508 44.639Z" fill="#001432"/>
<path d="M83.5508 44.639C83.1315 45.2964 82.7242 45.8382 82.4205 46.5077" stroke="#7499D0" stroke-width="2" stroke-miterlimit="10" stroke-linecap="round" stroke-linejoin="round"/>
<path d="M86.1641 52.0415C85.7447 52.6989 85.441 53.3684 85.0338 53.9101L86.1641 52.0415Z" fill="#001432"/>
<path d="M86.1641 52.0415C85.7447 52.6989 85.441 53.3684 85.0338 53.9101" stroke="#7499D0" stroke-width="2" stroke-miterlimit="10" stroke-linecap="round" stroke-linejoin="round"/>
<path d="M93.2503 50.211C92.5929 49.7917 91.9355 49.3724 91.2902 48.8374L93.2503 50.211Z" fill="#001432"/>
<path d="M93.2503 50.211C92.5929 49.7917 91.9355 49.3724 91.2902 48.8374" stroke="#7499D0" stroke-width="2" stroke-miterlimit="10" stroke-linecap="round" stroke-linejoin="round"/>
<path d="M89.3521 58.4517C89.9111 57.5752 90.3667 56.571 90.9258 55.6945L89.3521 58.4517Z" fill="#001432"/>
<path d="M89.3521 58.4517C89.9111 57.5752 90.3667 56.571 90.9258 55.6945" stroke="#7499D0" stroke-width="2" stroke-miterlimit="10" stroke-linecap="round" stroke-linejoin="round"/>
<path d="M51.8696 58.1568C67.2018 66.8884 82.6979 75.1696 98.2423 82.9884L51.8696 58.1568Z" fill="#001432"/>
<path d="M51.8696 58.1568C67.2018 66.8884 82.6979 75.1696 98.2423 82.9884" stroke="#7499D0" stroke-width="2" stroke-miterlimit="10" stroke-linecap="round" stroke-linejoin="round"/>
<path d="M144.851 183.81C135.415 167.864 126.666 150.939 118.926 133.3C139.329 120.357 160.383 109.001 181.628 99.1837C188.137 115.174 195.541 130.44 203.619 144.841C183.501 156.178 163.792 169.194 144.851 183.81Z" fill="#001432"/>
<path d="M144.878 183.579C135.442 167.633 126.693 150.708 118.953 133.069C139.356 120.126 160.411 108.77 181.655 98.9526C188.165 114.943 195.568 130.208 203.646 144.61C183.528 155.947 163.819 168.963 144.878 183.579Z" stroke="#7499D0" stroke-width="2" stroke-miterlimit="10" stroke-linecap="round" stroke-linejoin="round"/>
<path d="M167.574 128.568C166.886 127.327 166.094 125.959 165.418 124.603C164.061 125.279 162.705 125.955 161.361 126.516" stroke="#7499D0" stroke-width="2" stroke-miterlimit="10" stroke-linecap="round" stroke-linejoin="round"/>
<path d="M171.976 147.961C173.113 147.145 174.366 146.341 175.503 145.524C174.839 144.053 174.162 142.696 173.614 141.237" stroke="#7499D0" stroke-width="2" stroke-miterlimit="10" stroke-linecap="round" stroke-linejoin="round"/>
<path d="M154.962 153.078C155.754 154.446 156.558 155.699 157.35 157.067C158.603 156.263 159.971 155.471 161.212 154.783" stroke="#7499D0" stroke-width="2" stroke-miterlimit="10" stroke-linecap="round" stroke-linejoin="round"/>
<path d="M150.273 133.071C149.021 133.875 147.884 134.691 146.631 135.495C147.283 137.082 147.82 138.658 148.484 140.129" stroke="#7499D0" stroke-width="2" stroke-miterlimit="10" stroke-linecap="round" stroke-linejoin="round"/>
<path d="M162.035 133.482C161.524 133.896 161.026 134.194 160.515 134.608" stroke="#7499D0" stroke-width="2" stroke-miterlimit="10" stroke-linecap="round" stroke-linejoin="round"/>
<path d="M160.137 141.581C159.626 141.995 159.127 142.294 158.732 142.72" stroke="#7499D0" stroke-width="2" stroke-miterlimit="10" stroke-linecap="round" stroke-linejoin="round"/>
<path d="M167.491 143.869C167.205 143.255 166.79 142.744 166.504 142.13" stroke="#7499D0" stroke-width="2" stroke-miterlimit="10" stroke-linecap="round" stroke-linejoin="round"/>
<path d="M159.823 149.028C160.577 148.523 161.344 147.902 162.098 147.396" stroke="#7499D0" stroke-width="2" stroke-miterlimit="10" stroke-linecap="round" stroke-linejoin="round"/>
<path d="M129.004 127.458C136.445 144.598 144.792 160.897 153.918 176.459L129.004 127.458Z" fill="#001432"/>
<path d="M129.004 127.458C136.445 144.598 144.792 160.897 153.918 176.459" stroke="#7499D0" stroke-width="2" stroke-miterlimit="10" stroke-linecap="round" stroke-linejoin="round"/>
</svg>
