<svg width="251" height="422" viewBox="0 0 251 422" fill="none" xmlns="http://www.w3.org/2000/svg">
<path d="M103.696 393.484C124.909 399.804 146.375 405.26 168.194 410.039C175.23 382.63 181.697 355.242 187.779 327.679C167.876 323.398 148.328 318.439 129.039 312.806C121.132 339.773 112.653 366.667 103.696 393.484Z" fill="#021D45"/>
<path d="M103.696 393.484C124.909 399.804 146.375 405.26 168.194 410.039C175.23 382.63 181.697 355.242 187.779 327.679C167.876 323.398 148.328 318.439 129.039 312.806C121.132 339.773 112.653 366.667 103.696 393.484Z" stroke="#7499D0" stroke-width="2" stroke-miterlimit="10" stroke-linecap="round" stroke-linejoin="round"/>
<path d="M157.345 351.223C159.356 351.717 161.273 352.214 163.281 352.613C162.791 354.72 162.203 356.735 161.712 358.842" fill="#001432"/>
<path d="M157.345 351.223C159.356 351.717 161.273 352.214 163.281 352.613C162.791 354.72 162.203 356.735 161.712 358.842" stroke="#7499D0" stroke-width="2" stroke-miterlimit="10" stroke-linecap="round" stroke-linejoin="round"/>
<path d="M134.581 351.605C135.082 349.783 135.675 347.863 136.175 346.04C138.285 346.625 140.49 347.207 142.6 347.792" fill="#001432"/>
<path d="M134.581 351.605C135.082 349.783 135.675 347.863 136.175 346.04C138.285 346.625 140.49 347.207 142.6 347.792" stroke="#7499D0" stroke-width="2" stroke-miterlimit="10" stroke-linecap="round" stroke-linejoin="round"/>
<path d="M134.807 372.762C132.796 372.268 130.78 371.679 128.765 371.091C129.354 369.076 129.939 366.966 130.622 364.947" fill="#001432"/>
<path d="M134.807 372.762C132.796 372.268 130.78 371.679 128.765 371.091C129.354 369.076 129.939 366.966 130.622 364.947" stroke="#7499D0" stroke-width="2" stroke-miterlimit="10" stroke-linecap="round" stroke-linejoin="round"/>
<path d="M158.141 372.358C157.643 374.275 157.142 376.097 156.645 378.014C154.444 377.528 152.144 376.95 149.939 376.368" fill="#001432"/>
<path d="M158.141 372.358C157.643 374.275 157.142 376.097 156.645 378.014C154.444 377.528 152.144 376.95 149.939 376.368" stroke="#7499D0" stroke-width="2" stroke-miterlimit="10" stroke-linecap="round" stroke-linejoin="round"/>
<path d="M152.915 362.115C153.248 360.868 153.58 359.622 153.917 358.471M138.666 361.797C138.25 363.331 137.742 364.964 137.325 366.498L138.666 361.797ZM143.778 356.384C142.531 356.052 141.19 355.722 139.944 355.39L143.778 356.384ZM144.619 366.128C144.952 364.882 145.288 363.731 145.621 362.484L144.619 366.128Z" stroke="#7499D0" stroke-width="2" stroke-miterlimit="10" stroke-linecap="round" stroke-linejoin="round"/>
<path d="M171.666 396.336C150.139 391.736 128.965 386.459 108.138 380.314L171.666 396.336Z" fill="#001432"/>
<path d="M171.666 396.336C150.139 391.736 128.965 386.459 108.138 380.314" stroke="#7499D0" stroke-width="2" stroke-miterlimit="10" stroke-linecap="round" stroke-linejoin="round"/>
<path d="M85.844 380.583C105.279 390.102 125.072 399.039 145.412 407.385C157.925 381.763 169.67 355.885 180.649 329.846C161.664 322.208 143.132 313.984 125.055 305.268C112.816 330.595 99.7126 355.67 85.844 380.583Z" fill="#001432"/>
<path d="M85.844 380.583C105.279 390.102 125.072 399.039 145.412 407.385C157.925 381.763 169.67 355.885 180.649 329.846C161.664 322.208 143.132 313.984 125.055 305.268C112.816 330.595 99.7126 355.67 85.844 380.583Z" stroke="#7499D0" stroke-width="2" stroke-miterlimit="10" stroke-linecap="round" stroke-linejoin="round"/>
<path d="M146.299 347.748C148.132 348.533 149.968 349.413 151.801 350.198C150.925 352.129 150.048 354.06 149.081 356.09" fill="#001432"/>
<path d="M146.299 347.748C148.132 348.533 149.968 349.413 151.801 350.198C150.925 352.129 150.048 354.06 149.081 356.09" stroke="#7499D0" stroke-width="2" stroke-miterlimit="10" stroke-linecap="round" stroke-linejoin="round"/>
<path d="M123.775 344.419C124.659 342.677 125.542 340.936 126.426 339.194C128.452 340.067 130.481 341.035 132.507 341.908" fill="#001432"/>
<path d="M123.775 344.419C124.659 342.677 125.542 340.936 126.426 339.194C128.452 340.067 130.481 341.035 132.507 341.908" stroke="#7499D0" stroke-width="2" stroke-miterlimit="10" stroke-linecap="round" stroke-linejoin="round"/>
<path d="M120.098 365.248C118.262 364.368 116.426 363.488 114.494 362.611C115.466 360.677 116.437 358.742 117.408 356.807" fill="#001432"/>
<path d="M120.098 365.248C118.262 364.368 116.426 363.488 114.494 362.611C115.466 360.677 116.437 358.742 117.408 356.807" stroke="#7499D0" stroke-width="2" stroke-miterlimit="10" stroke-linecap="round" stroke-linejoin="round"/>
<path d="M143.104 368.748C142.22 370.49 141.431 372.228 140.548 373.969C138.427 373.1 136.306 372.231 134.277 371.263" fill="#001432"/>
<path d="M143.104 368.748C142.22 370.49 141.431 372.228 140.548 373.969C138.427 373.1 136.306 372.231 134.277 371.263" stroke="#7499D0" stroke-width="2" stroke-miterlimit="10" stroke-linecap="round" stroke-linejoin="round"/>
<path d="M139.941 357.857C140.467 356.699 141.088 355.536 141.614 354.378M125.888 355.159C125.183 356.609 124.387 358.158 123.683 359.608L125.888 355.159ZM131.983 350.659C130.729 350.137 129.567 349.516 128.313 348.994L131.983 350.659ZM131.023 360.471C131.549 359.312 132.17 358.15 132.696 356.991L131.023 360.471Z" stroke="#7499D0" stroke-width="2" stroke-miterlimit="10" stroke-linecap="round" stroke-linejoin="round"/>
<path d="M151.572 394.53C131.523 386.363 111.833 377.612 92.6924 368.367L151.572 394.53Z" fill="#001432"/>
<path d="M151.572 394.53C131.523 386.363 111.833 377.612 92.6924 368.367" stroke="#7499D0" stroke-width="2" stroke-miterlimit="10" stroke-linecap="round" stroke-linejoin="round"/>
<path d="M73.5561 371.839C92.4384 384.321 112.331 395.911 133.318 406.321C150.255 382.241 165.268 357.474 178.459 332.206C159.428 323.336 141.404 313.479 124.39 302.73C109.342 326.549 92.3689 349.682 73.5561 371.839Z" fill="#021D45"/>
<path d="M73.5561 371.839C92.4384 384.321 112.331 395.911 133.318 406.321C150.255 382.241 165.268 357.474 178.459 332.206C159.428 323.336 141.404 313.479 124.39 302.73C109.342 326.549 92.3689 349.682 73.5561 371.839Z" stroke="#7499D0" stroke-width="2" stroke-miterlimit="10" stroke-linecap="round" stroke-linejoin="round"/>
<path d="M141.346 347.27C143.186 348.244 145.026 349.219 146.866 350.194C145.701 352.041 144.632 353.885 143.467 355.732" fill="#001432"/>
<path d="M141.346 347.27C143.186 348.244 145.026 349.219 146.866 350.194C145.701 352.041 144.632 353.885 143.467 355.732" stroke="#7499D0" stroke-width="2" stroke-miterlimit="10" stroke-linecap="round" stroke-linejoin="round"/>
<path d="M118.445 341.487C119.62 339.925 120.697 338.271 121.773 336.617C123.715 337.777 125.654 338.843 127.69 340.001" fill="#001432"/>
<path d="M118.445 341.487C119.62 339.925 120.697 338.271 121.773 336.617C123.715 337.777 125.654 338.843 127.69 340.001" stroke="#7499D0" stroke-width="2" stroke-miterlimit="10" stroke-linecap="round" stroke-linejoin="round"/>
<path d="M111.9 361.76C110.057 360.69 108.21 359.526 106.461 358.453C107.724 356.697 108.986 354.941 110.245 353.09" fill="#001432"/>
<path d="M111.9 361.76C110.057 360.69 108.21 359.526 106.461 358.453C107.724 356.697 108.986 354.941 110.245 353.09" stroke="#7499D0" stroke-width="2" stroke-miterlimit="10" stroke-linecap="round" stroke-linejoin="round"/>
<path d="M135.664 367.794C134.587 369.448 133.416 371.106 132.339 372.76C130.211 371.701 128.08 370.547 126.043 369.39" fill="#001432"/>
<path d="M135.664 367.794C134.587 369.448 133.416 371.106 132.339 372.76C130.211 371.701 128.08 370.547 126.043 369.39" stroke="#7499D0" stroke-width="2" stroke-miterlimit="10" stroke-linecap="round" stroke-linejoin="round"/>
<path d="M133.537 356.675C134.256 355.604 134.972 354.438 135.691 353.367M119.329 352.369C118.336 353.735 117.438 355.098 116.449 356.558L119.329 352.369ZM126.115 348.602C124.949 347.886 123.692 347.269 122.526 346.554L126.115 348.602ZM123.916 358.271C124.635 357.199 125.354 356.128 126.168 355.054L123.916 358.271Z" stroke="#7499D0" stroke-width="2" stroke-miterlimit="10" stroke-linecap="round" stroke-linejoin="round"/>
<path d="M141.503 394.339C120.811 384.203 101.221 373.076 82.7317 360.959L141.503 394.339Z" fill="#001432"/>
<path d="M141.503 394.339C120.811 384.203 101.221 373.076 82.7317 360.959" stroke="#7499D0" stroke-width="2" stroke-miterlimit="10" stroke-linecap="round" stroke-linejoin="round"/>
<path d="M149.519 324.848C149.398 326.656 147.738 327.952 146.025 327.827C144.217 327.705 142.921 326.045 143.046 324.332C143.168 322.524 144.827 321.228 146.541 321.353C148.348 321.475 149.641 323.04 149.519 324.848Z" fill="#001432"/>
<path d="M149.519 324.848C149.398 326.656 147.738 327.952 146.025 327.827C144.217 327.705 142.921 326.045 143.046 324.332C143.168 322.524 144.827 321.228 146.541 321.353C148.348 321.475 149.641 323.04 149.519 324.848Z" stroke="#7499D0" stroke-width="2" stroke-miterlimit="10" stroke-linecap="round" stroke-linejoin="round"/>
<path d="M151.509 317.18C152.68 315.523 153.651 313.588 154.145 311.576C154.225 311.194 154.31 310.906 154.295 310.527C154.161 309.488 152.908 308.965 151.869 309.099C150.261 309.255 148.781 310.26 147.69 311.534C145.953 313.308 144.61 315.447 144.225 317.834C143.84 320.221 144.607 322.945 146.469 324.488M168.045 226.963C162.86 232.947 157.227 239.613 154.177 246.846C146.146 265.466 148.066 288.742 154.568 307.669L168.045 226.963ZM154.488 310.614C154.755 310.13 154.923 309.554 155.186 308.974L154.488 310.614ZM213.551 117.148C212.209 114.256 210.203 111.389 207.309 110.169C204.125 108.771 200.45 109.478 197.27 110.737C189.135 113.985 182.842 120.771 178.768 128.517C165.208 154.083 168.914 181.943 172.131 209.44C183.574 195.722 196.288 183.001 205.778 167.838C210.523 160.256 214.393 152.138 216.15 143.34C217.907 134.542 217.365 125.166 213.551 117.148ZM220.73 159.113C214.176 176.633 201.614 190.868 189.02 204.249C183.817 209.76 178.517 215.179 173.416 220.876C173.441 221.54 173.557 222.105 173.582 222.768C174.564 233.741 175.08 244.921 174.167 255.965C173.393 265.675 171.573 275.329 168.406 284.465C166.352 290.426 164.105 296.301 160.893 301.736C159.736 303.773 157.523 308.032 155.281 308.971C155.281 308.971 155.281 308.971 155.186 308.974C162.242 292.195 167.841 274.52 169.056 256.347C169.731 246.546 169.076 236.7 168.042 226.868C167.622 223.277 167.198 219.592 166.684 216.004C166.155 212.038 165.626 208.072 165.097 204.105C162.739 186.825 160.84 169.149 163.606 151.866C166.471 134.674 174.749 117.564 189.09 107.723C194.735 103.904 201.751 101.172 208.274 103.015C215.373 105.025 219.997 111.875 222.441 118.806C226.826 131.929 225.567 146.402 220.73 159.113ZM213.551 117.148C212.209 114.256 210.203 111.389 207.309 110.169C204.125 108.771 200.45 109.478 197.27 110.737C189.135 113.985 182.842 120.771 178.768 128.517C165.208 154.083 168.914 181.943 172.131 209.44C183.574 195.722 196.288 183.001 205.778 167.838C210.523 160.256 214.393 152.138 216.15 143.34C217.907 134.542 217.365 125.166 213.551 117.148ZM168.045 226.963C167.625 223.372 167.202 219.686 166.687 216.099C164.151 219.327 161.808 222.642 159.564 226.048C153.461 235.389 148.623 245.537 146.376 256.441C143.331 271.362 145.53 286.939 150.622 301.174C151.262 303.048 151.996 304.918 152.728 306.694C153.35 308.094 153.389 309.137 154.337 309.101C154.526 309.094 154.902 308.985 155.183 308.88C162.239 292.1 167.838 274.426 169.052 256.252C169.735 246.64 169.079 236.794 168.045 226.963Z" stroke="#7499D0" stroke-width="2" stroke-miterlimit="10" stroke-linecap="round" stroke-linejoin="round"/>
<path d="M108.333 105.541C109.225 106.552 110.212 107.559 111.378 108.274C115.164 110.504 121.088 109.048 125.258 108.891C130.945 108.677 136.793 107.697 142.352 106.634C151.306 104.968 159.729 101.804 168.85 104.593C181.047 108.405 191.728 107.244 204.405 108.665C214.031 109.727 226.353 111.825 236.09 110.795C236.09 110.795 232.706 116.712 225.058 117.759C217.41 118.806 178.677 118.555 178.677 118.555" fill="#021D45"/>
<path d="M178.674 118.46C178.674 118.46 217.407 118.711 225.055 117.664C232.703 116.617 236.087 110.7 236.087 110.7C226.35 111.731 214.028 109.632 204.402 108.57C191.725 107.149 181.044 108.31 168.847 104.498C159.722 101.615 151.299 104.779 142.349 106.539C136.695 107.606 130.938 108.487 125.255 108.796C121.085 108.953 115.161 110.41 111.375 108.179C110.209 107.464 109.222 106.457 108.33 105.447C87.2193 81.6591 63.8559 35.8423 51.2825 6.89318" stroke="#7499D0" stroke-width="2" stroke-miterlimit="10" stroke-linecap="round" stroke-linejoin="round"/>
<path d="M179.352 144.06C183.877 143.226 188.147 140.692 191.048 137.071C191.686 136.383 192.227 135.603 192.38 134.649C192.79 132.925 191.68 131.163 190.493 129.879C185.463 124.848 180.24 119.73 174.389 115.584M173.389 222.681L171.935 209.258L173.389 222.681ZM167.595 111.569C165.934 110.303 162.073 111.112 162.073 111.112L167.595 111.569ZM174.197 105.436C175.755 103.954 177.583 102.082 178.456 100.056C178.89 98.9952 179.034 97.756 178.521 96.7313C178.011 95.8014 177.038 95.1736 176.073 94.7354C174.819 94.2131 173.478 93.8839 172.158 94.1234C170.46 94.3771 168.88 95.2907 167.502 96.4815C165.481 98.266 163.467 100.24 161.646 102.302L174.197 105.436ZM154.605 144.707C133.265 142.567 114.037 146.138 97.8642 132.51C92.5716 128.059 88.0963 122.627 83.4421 117.487C73.1396 106.011 15.4257 32.6343 1.99877 8.74752L154.605 144.707ZM145.408 144.958C142.654 147.434 148.589 151.292 150.246 152.463C152.192 153.719 154.228 154.876 156.261 155.939C158.488 157.089 161.209 158.79 163.831 157.837C164.859 157.418 165.589 156.632 166.318 155.845C169.507 152.308 171.818 148.14 173.069 143.537C173.321 142.674 173.478 141.814 173.348 140.869C173.122 139.929 172.522 139.097 171.83 138.364C167.46 133.213 162.631 128.46 157.713 123.899L145.408 144.958ZM167.96 154.075C174.67 150.785 179.953 144.892 182.441 137.87C182.785 136.908 183.033 135.949 182.805 134.914C182.583 134.068 181.993 133.521 181.399 132.879C176.468 127.939 170.993 123.684 165.605 119.236L167.96 154.075Z" stroke="#7499D0" stroke-width="2" stroke-miterlimit="10" stroke-linecap="round" stroke-linejoin="round"/>
<path d="M182.733 120.395C182.733 120.395 171.125 134.784 168.78 158.22L163.696 161.828C163.696 161.828 163.447 137.54 178.148 119.619L183.276 119.71L182.733 120.395Z" fill="#021D45"/>
<path d="M216.024 119.807C216.024 119.807 211.689 108.011 204.749 107.703C197.714 107.398 207.735 106.357 207.735 106.357L215.414 108.631C215.414 108.631 220.904 115.827 221.928 120.344" fill="#021C44"/>
<path d="M216.151 143.34C217.908 134.542 217.369 125.261 213.552 117.148C212.21 114.256 209.413 110.565 206.239 109.45M120.631 104.414C113.773 106.286 111.288 100.78 111.288 100.78L120.631 104.414ZM154.925 286.87C152.082 264.294 158.255 249.255 158.255 249.255L154.925 286.87ZM164.418 307.109C187.685 267.13 179.187 225.405 179.187 225.405L164.418 307.109ZM175.95 194.87C174.18 180.606 175.036 163.015 175.036 163.015L175.95 194.87ZM164.025 402.603C155.987 403.38 144.836 399.624 144.836 399.624L164.025 402.603ZM168.884 415.708C153.267 416.865 136.908 408.369 136.908 408.369L168.884 415.708ZM200.313 388.33C194.583 392.437 181.786 395.386 181.786 395.386L200.313 388.33ZM188.978 399.861C182.546 402.95 175.504 402.456 175.504 402.456L188.978 399.861ZM195.692 404.259C187.305 408.371 180.168 407.88 180.168 407.88L195.692 404.259ZM223.11 121.439C221.603 114.187 216.458 108.591 216.458 108.591L223.11 121.439Z" stroke="#7499D0" stroke-width="2" stroke-miterlimit="10" stroke-linecap="round" stroke-linejoin="round"/>
<path d="M229.129 122.541C229.129 122.541 234.98 121.656 238.834 115.627L229.129 122.541Z" fill="#001432"/>
<path d="M229.129 122.541C229.129 122.541 234.98 121.656 238.834 115.627" stroke="#7499D0" stroke-width="2" stroke-miterlimit="10" stroke-linecap="round" stroke-linejoin="round"/>
<path d="M199.788 124.689C199.788 124.689 206.167 125.208 212.517 124.969L199.788 124.689Z" fill="#001432"/>
<path d="M199.788 124.689C199.788 124.689 206.167 125.208 212.517 124.969" stroke="#7499D0" stroke-width="2" stroke-miterlimit="10" stroke-linecap="round" stroke-linejoin="round"/>
<path d="M230.656 140.421C230.656 140.421 230.914 172.491 198.093 203.243" stroke="#7499D0" stroke-width="2" stroke-miterlimit="10" stroke-linecap="round" stroke-linejoin="round"/>
</svg>
