<svg width="34" height="34" viewBox="0 0 34 34" fill="none" xmlns="http://www.w3.org/2000/svg">
<path d="M14.8141 23.6355C14.4498 23.6338 14.0977 23.5042 13.8192 23.2694L8.47537 18.7561C8.16325 18.4916 7.96889 18.114 7.935 17.7062C7.9011 17.2985 8.03044 16.894 8.2946 16.5816C8.55884 16.2707 8.93519 16.0768 9.34172 16.0421C9.74824 16.0074 10.152 16.1347 10.4651 16.3963L14.6045 19.8983L22.517 10.1309C22.7744 9.81387 23.1471 9.61197 23.5532 9.5696C23.9594 9.52723 24.3657 9.64785 24.683 9.90495C24.8404 10.0321 24.9712 10.189 25.0678 10.3668C25.1644 10.5446 25.2249 10.7397 25.2459 10.941C25.2669 11.1422 25.2479 11.3457 25.1901 11.5396C25.1323 11.7335 25.0367 11.914 24.9089 12.0709L16.01 23.0598C15.8816 23.2201 15.7222 23.3529 15.5414 23.4503C15.3606 23.5477 15.162 23.6078 14.9575 23.627L14.8141 23.6355Z" fill="#0CE8F9"/>
<path d="M16.5934 33.192C12.1933 33.1868 7.97508 31.4362 4.86421 28.3245C1.75335 25.2128 0.00398671 20.9941 0 16.594C0.00485375 12.1946 1.75462 7.97677 4.86541 4.86586C7.9762 1.75494 12.194 0.0050274 16.5934 0C20.9924 0.00571884 25.2097 1.75577 28.3203 4.86639C31.431 7.97702 33.181 12.1943 33.1867 16.5934C33.1821 20.9932 31.4325 25.2117 28.3218 28.3233C25.2111 31.435 20.9932 33.1859 16.5934 33.192ZM16.5934 3.08355C13.0113 3.08736 9.57698 4.51198 7.044 7.04484C4.51102 9.5777 3.08622 13.0119 3.08223 16.594C3.08535 20.1768 4.50973 23.612 7.04277 26.1458C9.57581 28.6795 13.0106 30.1049 16.5934 30.1091C20.1759 30.1042 23.6103 28.6786 26.1432 26.145C28.6761 23.6114 30.1007 20.1766 30.1045 16.594C30.0997 13.0122 28.6746 9.57847 26.1418 7.0458C23.609 4.51312 20.1752 3.08823 16.5934 3.08355Z" fill="#0046F5"/>
</svg>
