<svg width="128" height="108" viewBox="0 0 128 108" fill="none" xmlns="http://www.w3.org/2000/svg">
<path d="M90.5801 54.4722C101.914 55.4166 113.248 55.9979 124.727 56.1432C125.381 41.6127 125.817 27.1548 126.035 12.6969C115.573 12.6243 105.256 12.1157 94.9392 11.2439C93.7041 25.6291 92.2511 40.087 90.5801 54.4722Z" fill="#001432"/>
<path d="M90.5801 54.4722C101.914 55.4166 113.248 55.9979 124.727 56.1432C125.381 41.6127 125.817 27.1548 126.035 12.6969C115.573 12.6243 105.256 12.1157 94.9392 11.2439C93.7041 25.6291 92.2511 40.087 90.5801 54.4722Z" stroke="#7499D0" stroke-width="2" stroke-miterlimit="10" stroke-linecap="round" stroke-linejoin="round"/>
<path d="M113.539 27.736C114.411 27.8086 115.283 27.8086 116.155 27.8813C116.155 28.8258 116.082 29.8429 116.082 30.7874" fill="#001432"/>
<path d="M113.539 27.736C114.411 27.8086 115.283 27.8086 116.155 27.8813C116.155 28.8258 116.082 29.8429 116.082 30.7874" stroke="#7499D0" stroke-width="2" stroke-miterlimit="10" stroke-linecap="round" stroke-linejoin="round"/>
<path d="M101.77 29.8429C101.842 29.0437 101.988 28.1719 102.06 27.3727C103.077 27.3727 104.094 27.4453 105.112 27.4453" fill="#001432"/>
<path d="M101.77 29.8429C101.842 29.0437 101.988 28.1719 102.06 27.3727C103.077 27.3727 104.094 27.4453 105.112 27.4453" stroke="#7499D0" stroke-width="2" stroke-miterlimit="10" stroke-linecap="round" stroke-linejoin="round"/>
<path d="M103.661 40.7409C102.789 40.6682 101.844 40.5956 100.973 40.5229C101.045 39.5784 101.118 38.5613 101.118 37.6168" fill="#001432"/>
<path d="M103.661 40.7409C102.789 40.6682 101.844 40.5956 100.973 40.5229C101.045 39.5784 101.118 38.5613 101.118 37.6168" stroke="#7499D0" stroke-width="2" stroke-miterlimit="10" stroke-linecap="round" stroke-linejoin="round"/>
<path d="M115.647 38.5613C115.574 39.3605 115.502 40.2323 115.429 41.0315C114.339 41.0315 113.322 41.0315 112.232 41.0315" fill="#001432"/>
<path d="M115.647 38.5613C115.574 39.3605 115.502 40.2323 115.429 41.0315C114.339 41.0315 113.322 41.0315 112.232 41.0315" stroke="#7499D0" stroke-width="2" stroke-miterlimit="10" stroke-linecap="round" stroke-linejoin="round"/>
<path d="M112.086 31.95C112.159 32.3132 112.304 32.7491 112.377 33.1124L112.086 31.95Z" fill="#001432"/>
<path d="M112.086 31.95C112.159 32.3132 112.304 32.7491 112.377 33.1124" stroke="#7499D0" stroke-width="2" stroke-miterlimit="10" stroke-linecap="round" stroke-linejoin="round"/>
<path d="M108.236 34.9286C108.309 35.2919 108.454 35.7278 108.527 36.091L108.236 34.9286Z" fill="#001432"/>
<path d="M108.236 34.9286C108.309 35.2919 108.454 35.7278 108.527 36.091" stroke="#7499D0" stroke-width="2" stroke-miterlimit="10" stroke-linecap="round" stroke-linejoin="round"/>
<path d="M105.111 31.6591C105.547 31.5865 105.983 31.4412 106.419 31.3685L105.111 31.6591Z" fill="#001432"/>
<path d="M105.111 31.6591C105.547 31.5865 105.983 31.4412 106.419 31.3685" stroke="#7499D0" stroke-width="2" stroke-miterlimit="10" stroke-linecap="round" stroke-linejoin="round"/>
<path d="M104.747 37.1082C104.675 36.5269 104.602 35.9457 104.529 35.3645L104.747 37.1082Z" fill="#001432"/>
<path d="M104.747 37.1082C104.675 36.5269 104.602 35.9457 104.529 35.3645" stroke="#7499D0" stroke-width="2" stroke-miterlimit="10" stroke-linecap="round" stroke-linejoin="round"/>
<path d="M124.8 48.878C113.612 48.878 102.496 48.4421 91.5254 47.6429L124.8 48.878Z" fill="#001432"/>
<path d="M124.8 48.878C113.612 48.878 102.496 48.4421 91.5254 47.6429" stroke="#7499D0" stroke-width="2" stroke-miterlimit="10" stroke-linecap="round" stroke-linejoin="round"/>
<path d="M72.7801 54.3996C83.0241 50.4037 93.2681 46.0446 103.439 41.2495C98.1358 27.5908 92.4689 14.2228 86.4388 1C76.994 5.50446 67.4765 9.64564 57.959 13.4236C63.2626 26.8643 68.203 40.523 72.7801 54.3996Z" fill="#001432"/>
<path d="M72.7801 54.3996C83.0241 50.4037 93.2681 46.0446 103.439 41.2495C98.1358 27.5908 92.4689 14.2228 86.4388 1C76.994 5.50446 67.4765 9.64564 57.959 13.4236C63.2626 26.8643 68.203 40.523 72.7801 54.3996Z" stroke="#7499D0" stroke-width="2" stroke-miterlimit="10" stroke-linecap="round" stroke-linejoin="round"/>
<path d="M81.6445 20.253C82.4437 19.8897 83.3156 19.5265 84.1147 19.1632C84.478 20.035 84.8413 20.9069 85.2045 21.7787" fill="#001432"/>
<path d="M81.6445 20.253C82.4437 19.8897 83.3156 19.5265 84.1147 19.1632C84.478 20.035 84.8413 20.9069 85.2045 21.7787" stroke="#7499D0" stroke-width="2" stroke-miterlimit="10" stroke-linecap="round" stroke-linejoin="round"/>
<path d="M72.3468 27.2276C72.0562 26.4284 71.7656 25.6292 71.4023 24.83C72.2742 24.4668 73.2187 24.1035 74.0905 23.6676" fill="#001432"/>
<path d="M72.3468 27.2276C72.0562 26.4284 71.7656 25.6292 71.4023 24.83C72.2742 24.4668 73.2187 24.1035 74.0905 23.6676" stroke="#7499D0" stroke-width="2" stroke-miterlimit="10" stroke-linecap="round" stroke-linejoin="round"/>
<path d="M78.5205 36.0911C77.6487 36.4544 76.8495 36.8177 75.9777 37.1083C75.6871 36.2364 75.3238 35.3646 75.0332 34.4928" fill="#001432"/>
<path d="M78.5205 36.0911C77.6487 36.4544 76.8495 36.8177 75.9777 37.1083C75.6871 36.2364 75.3238 35.3646 75.0332 34.4928" stroke="#7499D0" stroke-width="2" stroke-miterlimit="10" stroke-linecap="round" stroke-linejoin="round"/>
<path d="M88.039 28.9712C88.3296 29.7704 88.6928 30.5695 88.9834 31.3687C88.039 31.8046 87.1671 32.1679 86.2227 32.6038" fill="#001432"/>
<path d="M88.039 28.9712C88.3296 29.7704 88.6928 30.5695 88.9834 31.3687C88.039 31.8046 87.1671 32.1679 86.2227 32.6038" stroke="#7499D0" stroke-width="2" stroke-miterlimit="10" stroke-linecap="round" stroke-linejoin="round"/>
<path d="M82.1523 24.4668C82.3703 24.9027 82.5882 25.266 82.7336 25.7019L82.1523 24.4668Z" fill="#001432"/>
<path d="M82.1523 24.4668C82.3703 24.9027 82.5882 25.266 82.7336 25.7019" stroke="#7499D0" stroke-width="2" stroke-miterlimit="10" stroke-linecap="round" stroke-linejoin="round"/>
<path d="M80.0449 28.8986C80.2629 29.3345 80.4082 29.7704 80.6261 30.1337L80.0449 28.8986Z" fill="#001432"/>
<path d="M80.0449 28.8986C80.2629 29.3345 80.4082 29.7704 80.6261 30.1337" stroke="#7499D0" stroke-width="2" stroke-miterlimit="10" stroke-linecap="round" stroke-linejoin="round"/>
<path d="M75.7598 27.3001C76.1957 27.0822 76.6316 26.8642 77.0675 26.5736L75.7598 27.3001Z" fill="#001432"/>
<path d="M75.7598 27.3001C76.1957 27.0822 76.6316 26.8642 77.0675 26.5736" stroke="#7499D0" stroke-width="2" stroke-miterlimit="10" stroke-linecap="round" stroke-linejoin="round"/>
<path d="M77.6488 32.6764C77.3582 32.0952 77.1402 31.4413 76.8496 30.8601L77.6488 32.6764Z" fill="#001432"/>
<path d="M77.6488 32.6764C77.3582 32.0952 77.1402 31.4413 76.8496 30.8601" stroke="#7499D0" stroke-width="2" stroke-miterlimit="10" stroke-linecap="round" stroke-linejoin="round"/>
<path d="M100.969 34.9287C90.8701 39.3605 80.6987 43.5017 70.5273 47.3523L100.969 34.9287Z" fill="#001432"/>
<path d="M100.969 34.9287C90.8701 39.3605 80.6987 43.5017 70.5273 47.3523" stroke="#7499D0" stroke-width="2" stroke-miterlimit="10" stroke-linecap="round" stroke-linejoin="round"/>
<path d="M35.0014 107C41.9034 97.7004 48.4421 87.747 54.3996 77.285C42.5572 67.9129 30.2063 59.4852 17.6374 52.002C12.5518 61.5194 6.95751 70.5283 1 78.956C12.7697 87.3111 24.1762 96.6833 35.0014 107Z" fill="#001432"/>
<path d="M35.0014 106.855C41.9034 97.5551 48.4421 87.6017 54.3996 77.1398C42.5572 67.7676 30.2063 59.3399 17.6374 51.8567C12.5518 61.3742 6.95751 70.3831 1 78.8108C12.7697 87.1658 24.1762 96.538 35.0014 106.855Z" stroke="#7499D0" stroke-width="2" stroke-miterlimit="10" stroke-linecap="round" stroke-linejoin="round"/>
<path d="M24.4668 71.1823C24.9754 70.4558 25.5565 69.6566 26.0651 68.8574C26.8643 69.366 27.6635 69.8746 28.4627 70.3105" stroke="#7499D0" stroke-width="2" stroke-miterlimit="10" stroke-linecap="round" stroke-linejoin="round"/>
<path d="M20.4699 82.9519C19.816 82.3707 19.0894 81.7895 18.4355 81.2082C18.9441 80.3364 19.4527 79.5372 19.8886 78.6654" stroke="#7499D0" stroke-width="2" stroke-miterlimit="10" stroke-linecap="round" stroke-linejoin="round"/>
<path d="M30.7166 87.2385C30.1354 88.0377 29.5541 88.7642 28.9729 89.5634C28.2464 88.9822 27.4472 88.401 26.7207 87.8924" stroke="#7499D0" stroke-width="2" stroke-miterlimit="10" stroke-linecap="round" stroke-linejoin="round"/>
<path d="M34.9277 75.1056C35.6543 75.6868 36.3081 76.268 37.0347 76.8492C36.5261 77.7937 36.0902 78.7382 35.5816 79.61" stroke="#7499D0" stroke-width="2" stroke-miterlimit="10" stroke-linecap="round" stroke-linejoin="round"/>
<path d="M27.5918 74.5968C27.8824 74.8874 28.173 75.1054 28.4636 75.396" stroke="#7499D0" stroke-width="2" stroke-miterlimit="10" stroke-linecap="round" stroke-linejoin="round"/>
<path d="M28.2441 79.7554C28.5348 80.046 28.8254 80.2639 29.0433 80.5546" stroke="#7499D0" stroke-width="2" stroke-miterlimit="10" stroke-linecap="round" stroke-linejoin="round"/>
<path d="M23.5215 80.6997C23.7394 80.3365 24.0301 80.0459 24.248 79.6826" stroke="#7499D0" stroke-width="2" stroke-miterlimit="10" stroke-linecap="round" stroke-linejoin="round"/>
<path d="M27.9542 84.4051C27.5183 84.0419 27.0824 83.6059 26.6465 83.2427" stroke="#7499D0" stroke-width="2" stroke-miterlimit="10" stroke-linecap="round" stroke-linejoin="round"/>
<path d="M48.5135 72.9985C42.774 83.1699 36.5258 92.76 29.8418 101.842L48.5135 72.9985Z" fill="#001432"/>
<path d="M48.5135 72.9985C42.774 83.1699 36.5258 92.76 29.8418 101.842" stroke="#7499D0" stroke-width="2" stroke-miterlimit="10" stroke-linecap="round" stroke-linejoin="round"/>
</svg>
