<svg width="292" height="178" viewBox="0 0 292 178" fill="none" xmlns="http://www.w3.org/2000/svg">
<path d="M289.416 67.1434C291.373 78.2889 289.417 89.9489 284.391 100.241C278.734 111.92 269.42 117.018 261.023 125.936" stroke="#709BE7" stroke-width="1.4" stroke-miterlimit="10"/>
<path d="M229.895 158.863C219.595 158.738 206.271 150.545 198.083 154.466C192.523 157.145 187.287 163.332 182.5 167.229C182.5 167.229 176.562 173.5 174.723 175.26C174.519 175.456 174.121 175.347 174.027 175.045C172.116 166.401 170.103 157.855 168.289 149.313C165.824 138.557 167.937 133.402 156.503 134.852C139.85 137.088 123.389 135.128 108.461 127.099C103.023 124.18 97.7033 120.462 91.631 119.129C84.3633 117.57 76.8192 119.505 69.4035 120.143C44.8525 122.207 19.5605 107.85 9.04658 85.5145C-1.46732 63.1791 3.15737 34.6735 20.3493 16.9453" stroke="#709BE7" stroke-width="1.4" stroke-miterlimit="10"/>
<path d="M270.085 45.5153C270.085 45.5153 299.032 80.2569 260.962 115.032" stroke="#709BE7" stroke-width="1.4" stroke-miterlimit="10"/>
<path d="M71.9179 110.396C71.9179 110.396 34.6086 114.981 19.0054 87.5327" stroke="#709BE7" stroke-width="1.4" stroke-miterlimit="10"/>
<path d="M187.002 153.524L177.396 162.816C177.09 163.109 176.694 162.9 176.703 162.501L176.691 158.499" stroke="#709BE7" stroke-width="1.4" stroke-miterlimit="10"/>
<path d="M127.777 117.419L126.201 120.886C126.401 120.89 126.598 120.995 126.798 120.999C127.789 121.421 128.165 122.529 127.646 123.418C127.224 124.409 126.115 124.785 125.227 124.265C124.236 123.844 123.86 122.735 124.379 121.846" fill="#001432"/>
<path d="M127.777 117.419L126.201 120.886C126.401 120.89 126.598 120.995 126.798 120.999C127.789 121.421 128.165 122.529 127.646 123.418C127.224 124.409 126.115 124.785 125.227 124.265C124.236 123.844 123.86 122.735 124.379 121.846" stroke="#709BE7" stroke-width="1.5" stroke-miterlimit="10" stroke-linecap="round" stroke-linejoin="round"/>
<path d="M130.232 105.77L132.509 106.82" stroke="#709BE7" stroke-width="1.5" stroke-miterlimit="10" stroke-linecap="round" stroke-linejoin="round"/>
<path d="M124.38 121.846C123.958 122.837 122.849 123.213 121.96 122.693C121.072 122.174 120.594 121.163 121.113 120.274C121.535 119.283 122.643 118.908 123.532 119.427C123.73 119.531 123.928 119.636 124.023 119.838L125.6 116.372" fill="#001432"/>
<path d="M124.38 121.846C123.958 122.837 122.849 123.213 121.96 122.693C121.072 122.174 120.594 121.163 121.113 120.274C121.535 119.283 122.643 118.908 123.532 119.427C123.73 119.531 123.928 119.636 124.023 119.838L125.6 116.372" stroke="#709BE7" stroke-width="1.5" stroke-miterlimit="10" stroke-linecap="round" stroke-linejoin="round"/>
<path d="M135.046 109.777C135.97 108.697 136.794 107.614 137.214 106.723C139.316 102.068 137.562 99.9294 134.889 98.6706C132.216 97.4118 129.41 97.6505 127.31 102.206C126.782 103.494 126.338 105.485 126.292 107.585" fill="#001432"/>
<path d="M135.046 109.777C135.97 108.697 136.794 107.614 137.214 106.723C139.316 102.068 137.562 99.9294 134.889 98.6706C132.216 97.4118 129.41 97.6505 127.31 102.206C126.782 103.494 126.338 105.485 126.292 107.585" stroke="#709BE7" stroke-width="1.5" stroke-miterlimit="10" stroke-linecap="round" stroke-linejoin="round"/>
<path d="M114.105 106.818L112.982 103.292C112.78 103.388 112.678 103.486 112.476 103.581C111.47 103.859 110.479 103.438 110.2 102.431C109.922 101.425 110.344 100.434 111.351 100.156C112.357 99.8779 113.348 100.3 113.626 101.306" fill="#001432"/>
<path d="M114.105 106.818L112.982 103.292C112.78 103.388 112.678 103.486 112.476 103.581C111.47 103.859 110.479 103.438 110.2 102.431C109.922 101.425 110.344 100.434 111.351 100.156C112.357 99.8779 113.348 100.3 113.626 101.306" stroke="#709BE7" stroke-width="1.5" stroke-miterlimit="10" stroke-linecap="round" stroke-linejoin="round"/>
<path d="M120.084 117.051L117.667 117.798" stroke="#709BE7" stroke-width="1.5" stroke-miterlimit="10" stroke-linecap="round" stroke-linejoin="round"/>
<path d="M113.527 101.304C113.249 100.298 113.671 99.3065 114.677 99.0285C115.683 98.7504 116.675 99.1722 116.953 100.179C117.233 101.085 116.809 102.176 115.803 102.454C115.6 102.55 115.4 102.545 115.2 102.541L116.324 106.066" fill="#001432"/>
<path d="M113.527 101.304C113.249 100.298 113.671 99.3065 114.677 99.0285C115.683 98.7504 116.675 99.1722 116.953 100.179C117.233 101.085 116.809 102.176 115.803 102.454C115.6 102.55 115.4 102.545 115.2 102.541L116.324 106.066" stroke="#709BE7" stroke-width="1.5" stroke-miterlimit="10" stroke-linecap="round" stroke-linejoin="round"/>
<path d="M135.164 131.785L134.261 141.067L111.453 141.168L108.473 112.796C117.961 108.903 127.463 108.911 136.882 112.718L136.12 120.103" fill="#001432"/>
<path d="M135.164 131.785L134.261 141.067L111.453 141.168L108.473 112.796C117.961 108.903 127.463 108.911 136.882 112.718L136.12 120.103" stroke="#709BE7" stroke-width="1.5" stroke-miterlimit="10" stroke-linecap="round" stroke-linejoin="round"/>
<path d="M111.239 128.16C111.239 128.16 111.504 129.766 110.3 129.94C109.095 130.114 109.039 128.112 109.039 128.112L108.337 128.197L108.467 131.4C108.443 132.5 109.527 133.224 110.534 132.946C111.438 132.766 111.858 131.875 111.775 131.073L111.239 128.16Z" fill="#001432"/>
<path d="M112.574 135.691L107.747 136.886C107.843 137.088 108.036 137.392 108.132 137.595C108.405 138.801 107.675 140.185 106.368 140.457C105.162 140.73 103.778 140 103.506 138.694C103.233 137.487 103.963 136.103 105.269 135.832" fill="#001432"/>
<path d="M112.574 135.691L107.747 136.886C107.843 137.088 108.036 137.392 108.132 137.595C108.405 138.801 107.675 140.185 106.368 140.457C105.162 140.73 103.778 140 103.506 138.694C103.233 137.487 103.963 136.103 105.269 135.832" stroke="#709BE7" stroke-width="1.5" stroke-miterlimit="10" stroke-linecap="round" stroke-linejoin="round"/>
<path d="M126.426 128.893L127.258 132.012" stroke="#709BE7" stroke-width="1.5" stroke-miterlimit="10" stroke-linecap="round" stroke-linejoin="round"/>
<path d="M105.267 135.931C104.06 136.205 102.676 135.475 102.404 134.168C102.131 132.962 102.861 131.578 104.168 131.306C105.374 131.033 106.758 131.763 107.03 133.069C107.123 133.371 107.119 133.571 107.012 133.869L111.839 132.675" fill="#001432"/>
<path d="M105.267 135.931C104.06 136.205 102.676 135.475 102.404 134.168C102.131 132.962 102.861 131.578 104.168 131.306C105.374 131.033 106.758 131.763 107.03 133.069C107.123 133.371 107.119 133.571 107.012 133.869L111.839 132.675" stroke="#709BE7" stroke-width="1.5" stroke-miterlimit="10" stroke-linecap="round" stroke-linejoin="round"/>
<path d="M131.255 136.7C137.593 135.038 138.569 131.559 137.553 127.736C136.536 123.913 134.094 121.259 127.756 122.92C123.129 124.119 113.969 131.321 114.518 133.633C115.168 135.948 126.628 137.899 131.255 136.7Z" fill="#001432" stroke="#709BE7" stroke-width="1.5" stroke-miterlimit="10" stroke-linecap="round" stroke-linejoin="round"/>
<path d="M243.438 33.6296L207.127 33.7353C207.19 44.5393 211.021 52.3249 216.199 57.9395C216.786 58.5525 217.582 58.77 218.281 58.7853L232.185 58.7894C233.084 58.8091 233.793 58.4245 234.406 57.8378C239.436 51.9464 243.401 44.4314 243.438 33.6296Z" stroke="#709BE7" stroke-width="1.5" stroke-miterlimit="10" stroke-linecap="round" stroke-linejoin="round"/>
<path d="M207.669 40.9489C207.669 40.9489 200.806 39.1983 200.885 44.7014C200.865 50.2022 205.025 52.0937 211.727 52.0403" stroke="#709BE7" stroke-width="1.5" stroke-miterlimit="10" stroke-linecap="round" stroke-linejoin="round"/>
<path d="M230.023 25.0341C229.979 27.0336 231.779 27.073 231.735 29.0725" stroke="#709BE7" stroke-width="1.5" stroke-miterlimit="10" stroke-linecap="round" stroke-linejoin="round"/>
<path d="M224.322 25.0093C224.278 27.0089 226.077 27.0482 226.034 29.0477" stroke="#709BE7" stroke-width="1.5" stroke-miterlimit="10" stroke-linecap="round" stroke-linejoin="round"/>
<path d="M218.718 25.0868C218.674 27.0864 220.474 27.1257 220.43 29.1253" stroke="#709BE7" stroke-width="1.5" stroke-miterlimit="10" stroke-linecap="round" stroke-linejoin="round"/>
<path d="M243.119 39.0239L211.109 39.1237" stroke="#709BE7" stroke-width="1.5" stroke-miterlimit="10" stroke-linecap="round" stroke-linejoin="round"/>
<path d="M240.834 47.476L225.229 47.5346" stroke="#709BE7" stroke-width="1.5" stroke-miterlimit="10" stroke-linecap="round" stroke-linejoin="round"/>
<path d="M124.232 46.3248C124.257 54.3273 130.975 67.2774 139.377 67.2612C144.678 67.2771 149.291 62.1768 151.919 56.3329" stroke="#709BE7" stroke-width="1.5" stroke-miterlimit="10" stroke-linecap="round" stroke-linejoin="round"/>
<path d="M153.229 51.3604C153.229 51.3604 148.223 42.4487 138.884 39.5437C129.546 36.6388 131.87 30.9882 134.1 29.6367C136.33 28.2852 150.001 25.1835 155.489 39.507C159.267 49.6921 155.35 55.0077 153.229 51.3604Z" stroke="#709BE7" stroke-width="1.5" stroke-miterlimit="10" stroke-linecap="round" stroke-linejoin="round"/>
<path d="M126.326 51.1718C126.326 51.1718 127.397 43.3934 143.643 41.4483C152.87 40.3499 153.09 30.2523 148.975 26.3613C143.09 21.0313 127.908 24.6001 124.288 34.6233C121.198 43.2577 123.735 55.3161 126.326 51.1718Z" fill="#001432" stroke="#709BE7" stroke-width="1.5" stroke-miterlimit="10" stroke-linecap="round" stroke-linejoin="round"/>
<path d="M125.318 46.9489L124.183 48.5244L122.284 48.4828L122.844 50.2955L121.612 51.7689L123.298 52.406L123.557 54.3121L125.278 53.3495L126.958 54.2865L127.199 52.3913L129.014 51.7309L127.645 50.3006L128.185 48.5119L126.283 48.5703L125.318 46.9489Z" fill="#001432" stroke="#709BE7" stroke-width="1.5" stroke-miterlimit="10" stroke-linecap="round" stroke-linejoin="round"/>
<path d="M140.971 58.394C140.971 58.394 141.034 60.0958 139.632 60.1651C138.232 60.1345 138.17 58.4327 138.17 58.4327" fill="#001432"/>
<path d="M140.971 58.394C140.971 58.394 141.034 60.0958 139.632 60.1651C138.232 60.1345 138.17 58.4327 138.17 58.4327" stroke="#709BE7" stroke-width="1.5" stroke-miterlimit="10" stroke-linecap="round" stroke-linejoin="round"/>
<path d="M50.0756 80.1107C50.0756 80.1107 58.5329 91.2984 69.037 91.2282C79.541 91.1579 87.9884 79.94 87.9884 79.94C87.9884 79.94 79.5312 68.7523 69.0271 68.8226C58.5253 68.7928 50.0756 80.1107 50.0756 80.1107Z" fill="#001432" stroke="#709BE7" stroke-width="1.5" stroke-miterlimit="10" stroke-linecap="round" stroke-linejoin="round"/>
<path d="M69.0288 91.5281C62.7259 91.5902 57.5366 86.4755 57.5744 80.1748C57.5123 73.8719 62.6249 68.7826 68.9277 68.7204C75.2306 68.6583 80.42 73.773 80.3821 80.0737C80.4442 86.3766 75.3317 91.466 69.0288 91.5281Z" fill="#001432" stroke="#709BE7" stroke-width="1.5" stroke-miterlimit="10" stroke-linecap="round" stroke-linejoin="round"/>
<path d="M68.9752 84.8254C66.3736 84.8685 64.2201 82.7208 64.2769 80.1215C64.2338 77.5199 66.3793 75.4663 68.9808 75.4232C71.5824 75.3802 73.7359 77.5278 73.6791 80.1272C73.7244 82.6287 71.5767 84.7823 68.9752 84.8254Z" fill="#001432" stroke="#709BE7" stroke-width="1.5" stroke-miterlimit="10" stroke-linecap="round" stroke-linejoin="round"/>
<path d="M66.8053 78.8764C66.1055 78.8611 65.4188 78.2459 65.4341 77.546C65.4494 76.8462 66.0646 76.1595 66.7644 76.1748C67.4642 76.1901 68.1509 76.8053 68.1356 77.5051C68.1203 78.205 67.5073 78.7917 66.8053 78.8764Z" fill="#709BE7"/>
<path d="M50.0749 80.1106C50.0749 80.1106 47.5433 76.9545 47.4331 72.8511L50.0749 80.1106Z" fill="#001432"/>
<path d="M50.0749 80.1106C50.0749 80.1106 47.5433 76.9545 47.4331 72.8511" stroke="#709BE7" stroke-width="1.5" stroke-miterlimit="10" stroke-linecap="round" stroke-linejoin="round"/>
<path d="M53.153 76.5772C53.153 76.5772 50.6215 73.421 50.5112 69.3177L53.153 76.5772Z" fill="#001432"/>
<path d="M53.153 76.5772C53.153 76.5772 50.6215 73.421 50.5112 69.3177" stroke="#709BE7" stroke-width="1.5" stroke-miterlimit="10" stroke-linecap="round" stroke-linejoin="round"/>
<path d="M56.6198 73.5523C56.6198 73.5523 54.0883 70.3961 53.978 66.2928L56.6198 73.5523Z" fill="#001432"/>
<path d="M56.6198 73.5523C56.6198 73.5523 54.0883 70.3961 53.978 66.2928" stroke="#709BE7" stroke-width="1.5" stroke-miterlimit="10" stroke-linecap="round" stroke-linejoin="round"/>
<path d="M60.2663 71.4316C60.2663 71.4316 57.7348 68.2754 57.6245 64.172L60.2663 71.4316Z" fill="#001432"/>
<path d="M60.2663 71.4316C60.2663 71.4316 57.7348 68.2754 57.6245 64.172" stroke="#709BE7" stroke-width="1.5" stroke-miterlimit="10" stroke-linecap="round" stroke-linejoin="round"/>
<path d="M64.5124 69.424C64.5124 69.424 61.9808 66.2678 61.8706 62.1645L64.5124 69.424Z" fill="#001432"/>
<path d="M64.5124 69.424C64.5124 69.424 61.9808 66.2678 61.8706 62.1645" stroke="#709BE7" stroke-width="1.5" stroke-miterlimit="10" stroke-linecap="round" stroke-linejoin="round"/>
<path d="M199.308 107.682C204.15 105.787 205.579 99.9173 203.38 95.2681C199.941 87.8911 193.219 84.2431 190.442 83.1821C189.748 82.8669 188.942 83.1493 188.625 83.9425C187.992 85.4291 187.029 88.3087 186.652 91.8013" stroke="#709BE7" stroke-width="1.5" stroke-miterlimit="10" stroke-linecap="round" stroke-linejoin="round"/>
<path d="M176.025 111.173C177.728 115.612 182.786 117.623 187.224 115.92C192.066 114.025 193.495 108.155 191.296 103.506C187.857 96.1287 181.135 92.4808 178.358 91.4198C177.664 91.1046 176.858 91.387 176.541 92.1802C175.377 95.0555 172.807 102.801 176.025 111.173Z" stroke="#709BE7" stroke-width="1.5" stroke-miterlimit="10" stroke-linecap="round" stroke-linejoin="round"/>
<path d="M204.407 98.5913C204.407 98.5913 206.78 99.8436 207.634 101.963C208.388 104.08 214.46 119.116 214.46 119.116" stroke="#709BE7" stroke-width="1.5" stroke-miterlimit="10" stroke-linecap="round" stroke-linejoin="round"/>
<path d="M192.06 105.223C192.06 105.223 194.433 106.475 195.287 108.594C196.041 110.711 201.448 124.133 201.448 124.133" stroke="#709BE7" stroke-width="1.5" stroke-miterlimit="10" stroke-linecap="round" stroke-linejoin="round"/>
<path d="M176.216 111.578C176.216 111.578 175.26 114.157 176.116 116.177C176.972 118.196 182.277 131.715 182.277 131.715" stroke="#709BE7" stroke-width="1.5" stroke-miterlimit="10" stroke-linecap="round" stroke-linejoin="round"/>
<path d="M185.585 113.083C184.985 113.07 184.494 112.659 184.507 112.059C184.52 111.459 184.931 110.968 185.531 110.981C186.131 110.994 186.622 111.405 186.609 112.005C186.596 112.605 186.185 113.096 185.585 113.083Z" fill="#709BE7"/>
<path d="M188.751 110.152C188.151 110.138 187.66 109.728 187.673 109.128C187.686 108.528 188.097 108.037 188.697 108.05C189.297 108.063 189.788 108.474 189.775 109.074C189.762 109.674 189.351 110.165 188.751 110.152Z" fill="#709BE7"/>
<path d="M188.847 105.753C188.247 105.74 187.756 105.329 187.769 104.729C187.782 104.129 188.193 103.638 188.793 103.651C189.393 103.664 189.884 104.075 189.871 104.675C189.858 105.275 189.447 105.766 188.847 105.753Z" fill="#709BE7"/>
<path d="M197.761 105.248C197.161 105.234 196.67 104.824 196.683 104.224C196.696 103.624 197.107 103.133 197.707 103.146C198.307 103.159 198.798 103.57 198.785 104.17C198.772 104.77 198.361 105.261 197.761 105.248Z" fill="#709BE7"/>
<path d="M200.927 102.216C200.327 102.203 199.836 101.792 199.849 101.192C199.862 100.592 200.273 100.101 200.873 100.114C201.473 100.127 201.964 100.538 201.951 101.138C201.938 101.738 201.527 102.229 200.927 102.216Z" fill="#709BE7"/>
<path d="M201.021 97.9171C200.421 97.904 199.93 97.4931 199.943 96.8933C199.956 96.2934 200.367 95.8023 200.967 95.8154C201.567 95.8285 202.058 96.2394 202.045 96.8392C202.031 97.4391 201.621 97.9302 201.021 97.9171Z" fill="#709BE7"/>
<path d="M74.9679 25.8423C75.7809 25.2599 76.1027 24.2667 76.2201 23.4691C76.242 22.4693 75.8618 21.5608 75.1751 20.9456C74.6862 20.4348 73.2974 19.9043 73.3149 19.1045C73.3302 18.4047 74.3475 17.6267 74.6584 17.1334C75.3932 15.5491 75.4326 13.7495 74.6678 12.1324C74.4744 11.8281 74.2832 11.4238 74.2897 11.1239C74.1095 10.2198 75.0268 9.43964 75.3464 8.54641C75.6704 7.45324 75.5923 6.45129 75.2164 5.34281C74.4669 3.02585 72.2915 1.87799 70.1008 1.42996C70.1008 1.42996 72.2478 3.87751 69.3397 4.21397C66.5316 4.55263 63.6301 4.58916 64.0753 7.0995" stroke="#709BE7" stroke-width="1.5" stroke-miterlimit="10" stroke-linecap="round" stroke-linejoin="round"/>
<path d="M68.2605 16.9935C67.2629 16.8716 66.5653 16.7563 65.7742 16.3389C64.7854 15.8172 63.9987 15.1998 63.3164 14.3847C60.9673 12.0327 57.5731 7.1573 53.704 10.2734C52.6846 11.1513 52.0563 12.4379 52.2256 13.8419" stroke="#709BE7" stroke-width="1.5" stroke-miterlimit="10" stroke-linecap="round" stroke-linejoin="round"/>
<path d="M70.3076 10.2366C69.3947 10.8168 67.9951 10.7861 67.0062 10.2644C65.5241 9.43175 64.9658 7.51907 63.5836 6.68864C62.3949 6.16251 60.7865 6.52741 60.0648 7.51186C59.2387 8.69407 59.508 10.1003 60.286 11.1176" stroke="#709BE7" stroke-width="1.5" stroke-miterlimit="10" stroke-linecap="round" stroke-linejoin="round"/>
<path d="M73.9996 28.9219C74.7169 28.1374 75.2365 27.2485 75.7561 26.3597L50.9333 13.4136C47.2832 20.2353 49.9966 28.7967 56.8228 32.2469C61.6691 34.7535 67.1809 34.274 71.3455 31.3644" stroke="#709BE7" stroke-width="1.5" stroke-miterlimit="10" stroke-linecap="round" stroke-linejoin="round"/>
<path d="M58.2392 36.0788C56.6302 41.0448 58.8837 43.1946 58.8837 43.1946L46.5224 36.7227C46.5224 36.7227 50.7017 37.7143 54.2496 30.9903" stroke="#709BE7" stroke-width="1.5" stroke-miterlimit="10" stroke-linecap="round" stroke-linejoin="round"/>
<path d="M69.4316 27.4215C69.4316 27.4215 64.5497 31.1156 59.5034 28.6046" stroke="#709BE7" stroke-width="1.5" stroke-miterlimit="10" stroke-linecap="round" stroke-linejoin="round"/>
</svg>
