<svg width="56" height="56" viewBox="0 0 56 56" fill="none" xmlns="http://www.w3.org/2000/svg">
<path d="M27.7127 55.675C27.6127 55.675 27.4127 55.675 27.3127 55.575L1.21268 48.675C0.41268 48.475 -0.0873207 47.675 0.0126793 46.875C0.0126793 46.775 0.0126793 46.675 0.0126793 46.675V8.975C0.0126793 8.875 0.0126793 8.875 0.0126793 8.775C0.0126793 8.675 0.0126793 8.675 0.0126793 8.575C0.0126793 7.875 0.51268 7.175 1.21268 6.975L27.3127 0.075C27.6127 -0.025 27.9127 -0.025 28.1127 0.075L54.2127 6.975C54.9127 7.175 55.4127 7.775 55.4127 8.575C55.4127 8.675 55.4127 8.675 55.4127 8.775C55.4127 8.875 55.4127 8.875 55.4127 8.975V46.675C55.4127 46.775 55.4127 46.875 55.4127 46.875C55.5127 47.675 55.0127 48.475 54.2127 48.675L28.1127 55.575C28.0127 55.575 27.8127 55.675 27.7127 55.675ZM29.3127 16.675V51.875L40.1127 49.075V17.075C40.1127 16.175 40.8127 15.475 41.7127 15.475C42.6127 15.475 43.3127 16.175 43.3127 17.075V48.175L52.1127 45.875V10.675L29.3127 16.675ZM3.21268 45.875L26.1127 51.875V16.675L3.21268 10.675V45.875ZM7.91268 8.575L27.7127 13.775L35.2127 11.775L29.0127 10.075C28.1127 9.875 27.6127 8.975 27.9127 8.075C28.1127 7.175 29.0127 6.675 29.9127 6.975L41.6127 10.075L47.6127 8.475L27.8127 3.275L7.91268 8.575Z" fill="#0046F5"/>
<path d="M13.7121 38.4751C13.2121 38.4751 12.8121 38.2751 12.5121 37.9751L8.11209 33.0751C7.51209 32.3751 7.6121 31.3751 8.2121 30.7751C8.9121 30.1751 9.91209 30.2751 10.5121 30.8751L13.5121 34.2751L18.9121 26.6751C19.4121 25.9751 20.4121 25.7751 21.2121 26.2751C21.9121 26.7751 22.1121 27.7751 21.6121 28.5751L15.0121 37.8751C14.8121 38.1751 14.3121 38.4751 13.7121 38.4751C13.8121 38.4751 13.8121 38.4751 13.7121 38.4751Z" fill="#0CE8F9"/>
</svg>
