<svg xmlns="http://www.w3.org/2000/svg" width="497" height="380" fill="none">
  <defs/>
  <g>
    <path fill="#709BE7" d="M1 140.6c-2.8 15.6.6 32.6 8.2 46.7 10.8 20.1 29.2 35.2 48.7 47.1 19.5 11.9 40.7 20.8 60.6 32 44.2 24.8 81.8 59.9 125.7 85.2 57.1 32.9 120.1 38 179.5 8 23.5-11.9 45.5-30.1 57.3-54.1 14.6-29.5 6.3-59.8-6.2-88.7-9.8-22.7-21.7-45.1-24.5-69.6-3-26 5.7-51.1 3.3-77.2-1.8-19-9.3-38.3-24.1-50.3C414.4 7.5 394 4.3 374.7 4.4c-37.6.2-75.1 11.6-106.4 32.4-26.6 17.6-49.6 42.2-80.1 51.6-30.5 9.4-63.4 2.1-95.3.5s-68.6 5.4-85 32.9C4.4 127.6 2.1 134 1 140.6z" opacity=".1"/>
    <path fill="#709BE7" d="M239.8 147.2l27.6 64.7c3.5 8.3-.3 17.8-8.6 21.3-7 3-15.2.6-19.5-5.6l-45.6-66.3c-7.2-10.5-4.1-24.8 6.7-31.4 9.2-5.6 21.1-3.7 28.2 4.4l11.2 12.9z"/>
    <path fill="#709BE7" d="M248 198.7l54.1-49.3s15.5 13.5 15.5 13.8c-.3 1.7-34.1 42.1-52.6 65.6-4.2 5.4-11.6 7.1-17.8 4.2-9.5-4.5-12.5-16.5-6.3-24.9l5.9-8.1c.3-.5.7-.9 1.2-1.3z"/>
    <path fill="#709BE7" d="M307.8 143.3l-10.2 10.8 8.8 9 15.4-.8 8.6-3.8 3.7 1.8 5.1-3.1-3.6-2.9 2.5-4.6 2.9.3-1.1-2.7-26.6-7.1-5.5 3.1z"/>
    <path fill="#709BE7" stroke="#709BE7" stroke-linecap="round" stroke-linejoin="round" stroke-miterlimit="10" stroke-width="2" d="M344.9 132.3c.2-2 2-3.4 4-3.2l13.1 1.6c2 .2 3.4 2 3.2 4-.2 2-2 3.4-4 3.2l-13.1-1.6c-2-.2-3.4-2-3.2-4z"/>
    <path fill="#001432" stroke="#709BE7" stroke-linecap="round" stroke-linejoin="round" stroke-miterlimit="10" stroke-width="2" d="M331.4 159l-14.1-8.7c-2.3-1.4-3-4.4-1.6-6.6l23.4-37.8c1.4-2.3 4.4-3 6.6-1.6l14.1 8.7c2.3 1.4 3 4.4 1.6 6.6L338 157.4c-1.4 2.3-4.4 3-6.6 1.6z"/>
    <path fill="#0C1438" d="M332.5 155.3l-12.6-7.8c-1-.6-1.3-1.9-.7-2.8l22.4-36.2c.6-1 1.9-1.3 2.8-.7l12.6 7.8c1 .6 1.3 1.9.7 2.8l-22.4 36.2c-.5 1-1.8 1.3-2.8.7z"/>
    <path stroke="#709BE7" stroke-linecap="round" stroke-linejoin="round" stroke-miterlimit="10" stroke-width="2" d="M316.4 161.7s8 1.1 13.7-3.6"/>
    <path fill="#709BE7" stroke="#709BE7" stroke-linecap="round" stroke-linejoin="round" stroke-miterlimit="10" stroke-width="2" d="M343.999 139.5c.2-2 2-3.4 4-3.2l5.6.7c2 .2 3.4 2 3.2 4-.2 2-2 3.4-4 3.2l-5.6-.7c-2-.2-3.4-2-3.2-4z"/>
    <path fill="#709BE7" stroke="#709BE7" stroke-linecap="round" stroke-linejoin="round" stroke-miterlimit="10" stroke-width="2" d="M339.9 146.2c.2-2 2-3.4 4-3.2l5.4.6c2 .2 3.4 2 3.2 4-.2 2-2 3.4-4 3.2l-5.4-.6c-2.1-.2-3.5-2-3.2-4z"/>
    <path fill="#709BE7" stroke="#709BE7" stroke-linecap="round" stroke-linejoin="round" stroke-miterlimit="10" stroke-width="2" d="M335.9 152.9c.2-2 2-3.4 4-3.2l5.1.6c2 .2 3.4 2 3.2 4-.2 2-2 3.4-4 3.2l-5.1-.6c-2-.2-3.4-2-3.2-4z"/>
    <path fill="#709BE7" d="M305.299 151.5s-4.3-7.5 5.4-18.3l10.5-11.8 7.2-8.1c.4-.5 1.1-.4 1.5.1 1.4 1.9 4 6.4 0 10.9l-2.5 2.7-4 4.4s4.9 6.1 2 12.7c-2.9 6.6-8.8 8.4-8.8 8.4"/>
    <path stroke="#709BE7" stroke-linecap="round" stroke-linejoin="round" stroke-miterlimit="10" stroke-width="2" d="M187.4 71.3c-3.8 1.3-7.7 0-11.5-3.8M158.1 55.3c-3.4 0-6.2 2.8-6.2 6.2 0 3.4 2.8 6.2 6.2 6.2M182.9 44.3c-2.7-2.7-7.2-2.7-10 0"/>
    <path fill="#709BE7" d="M177.1 51h1.4c.6 0 1.2-.5 1.2-1.2v-2.4c0-.6-.5-1.2-1.2-1.2h-1.4c-.6 0-1.2.5-1.2 1.2v2.4c.1.6.6 1.2 1.2 1.2z"/>
    <path stroke="#709BE7" stroke-linecap="round" stroke-linejoin="round" stroke-miterlimit="10" stroke-width="2" d="M189.7 21.9v23.2l4.1 16.6h-4.1l-.7 7.1-.3 3-.5 4.1-.3 3-10 3.9-.3 23.8 7.5 2.4M131.1 19.3v33.6l1.3 53-6.9 3.4"/>
    <path fill="#709BE7" stroke="#709BE7" stroke-linecap="round" stroke-linejoin="round" stroke-miterlimit="10" stroke-width="2" d="M198.6 7.7c-1 6.9-5.8 16.8-25.3 17.9-1.8.1-3.2 1.6-3.3 3.4-.2 6.3-2.9 19.7-22.5 21-1.7.1-3.1 1.5-3.2 3.2-.5 5.6-3 17.1-15.3 17.1V19.8C129 9.4 137.4 1 147.8 1h44.8c3.7 0 6.5 3.2 6 6.7z"/>
    <path fill="#709BE7" d="M69.3 152.5l-25.6 60c-3.4 7.9.3 17.1 8.3 20.4 6.7 2.8 14.5.6 18.8-5.4l43.7-63.2c6.2-8.9 5-21.1-2.8-28.6-9.9-9.5-26-7.9-33.8 3.5l-6.5 9.5c-.9 1.2-1.6 2.5-2.1 3.8z"/>
    <path fill="#001432" stroke="#709BE7" stroke-linecap="round" stroke-linejoin="round" stroke-miterlimit="10" stroke-width="2" d="M244.4 145.5l-21.2-26.6-37.5-10.9-30.8 14.1-30.7-14L86.7 119l-21.2 26.6 36.8 38.6.1 83.7h52.5v-.2h52.6L209 179l35.4-33.5z"/>
    <path stroke="#709BE7" stroke-linecap="round" stroke-linejoin="round" stroke-miterlimit="10" stroke-width="2" d="M100.699 252.3h107.1M102.299 267.7l-3.1 70.1M208 267.7l4.2 70.1"/>
    <path fill="#001432" d="M152.6 337.8l2.3-21.3s7.7-2.3 7.7-10.1v-21.7"/>
    <path stroke="#709BE7" stroke-linecap="round" stroke-linejoin="round" stroke-miterlimit="10" stroke-width="2" d="M152.6 337.8l2.3-21.3s7.7-2.3 7.7-10.1v-21.7M192.501 283.6s-1.5 30.6 17.4 30.6M128.599 283.6s1.5 30.6-17.4 30.6M154.9 316.5l4.7 21.3"/>
    <path fill="#709BE7" d="M63.3 244.1l79.999 53.8s12-12.4 10.1-13.2c-1.5-.6-66.9-56.1-88.2-75.3-4.9-4.4-12.2-4.8-17.5-1-7.2 5.1-8 15.5-1.6 21.7l.1.1c5.2 5.1 11 9.8 17.1 13.9z"/>
    <path fill="#001432" d="M204 281.9l-27.8 13.2c-1.4.7-3.1.1-3.8-1.4l-8.9-18.8c-.7-1.4-.1-3.1 1.4-3.8l27.8-13.2c1.4-.7 3.1-.1 3.8 1.4l.9 1.9"/>
    <path stroke="#709BE7" stroke-linecap="round" stroke-linejoin="round" stroke-miterlimit="10" stroke-width="2" d="M204 281.9l-27.8 13.2c-1.4.7-3.1.1-3.8-1.4l-8.9-18.8c-.7-1.4-.1-3.1 1.4-3.8l27.8-13.2c1.4-.7 3.1-.1 3.8 1.4l.9 1.9"/>
    <path fill="#001432" stroke="#709BE7" stroke-linecap="round" stroke-linejoin="round" stroke-miterlimit="10" stroke-width="2" d="M208.5 261.4l-39 18.4c-1.7.8-2.4 2.8-1.6 4.4l8.5 18c.8 1.7 2.8 2.4 4.4 1.6l39-18.4c1.7-.8 2.4-2.8 1.6-4.4l-8.5-18c-.8-1.7-2.8-2.4-4.4-1.6z"/>
    <path fill="#001432" d="M165.1 278.3c.8 1.7 2.8 2.4 4.4 1.6l-4.4-1.6z"/>
    <path stroke="#709BE7" stroke-linecap="round" stroke-linejoin="round" stroke-miterlimit="10" stroke-width="2" d="M165.1 278.3c.8 1.7 2.8 2.4 4.4 1.6M168.9 274.7l23.9-11.4"/>
    <path fill="#001432" d="M210.5 269.6l-9 4.3c-2.5 1.2-3.5 4.1-2.4 6.6 1.2 2.5 4.1 3.5 6.6 2.3l9-4.3"/>
    <path stroke="#709BE7" stroke-linecap="round" stroke-linejoin="round" stroke-miterlimit="10" stroke-width="2" d="M210.5 269.6l-9 4.3c-2.5 1.2-3.5 4.1-2.4 6.6 1.2 2.5 4.1 3.5 6.6 2.3l9-4.3"/>
    <path fill="#709BE7" d="M203.401 280.1a1.6 1.6 0 100-3.2 1.6 1.6 0 000 3.2zM164.901 278.1c-5.9-.6-13.6.5-19.1 1.5-4 .7-6.7 4.5-6.1 8.5l1.3 8.3s19.1 13.5 44.1 9.9c5.1-.7 12.2-1.2 16.2-4.5 6.5-5.5 12-17.2 7.3-13.3-1.9 1.6-8.3 7.7-9.8 8.7-4.7 3-10.8 4.2-7.4 1.9 5.8-3.9 14.5-10.3 12.9-11.7-7.3-2.3-15 16.3-33.6 2.5"/>
    <path stroke="#709BE7" stroke-linecap="round" stroke-linejoin="round" stroke-width="2" d="M424.199 178.6c1.3-1.5 2.7-3 4-4.4"/>
    <path stroke="#709BE7" stroke-dasharray="11.83 11.83" stroke-linecap="round" stroke-linejoin="round" stroke-width="2" d="M436.2 165.5c15-16.4 29.7-33.2 37.7-53.7 5-12.8 7.1-27.8.5-39.8-7.5-13.6-24.4-19.7-39.9-18.6-25.4 1.8-49.3 16.6-67 35"/>
    <path stroke="#709BE7" stroke-linecap="round" stroke-linejoin="round" stroke-width="2" d="M363.5 92.7c-1.3 1.5-2.6 3-3.9 4.6M369.301 269c.6-1.9 1.1-3.8 1.8-5.7"/>
    <path stroke="#709BE7" stroke-dasharray="15.4 15.4" stroke-linecap="round" stroke-linejoin="round" stroke-width="2" d="M376.5 248.8c3.1-7.1 6.6-13.9 10.5-20.6"/>
    <path stroke="#709BE7" stroke-linecap="round" stroke-linejoin="round" stroke-width="2" d="M390.9 221.7c1.1-1.7 2.2-3.4 3.3-5M228.1 267.7c1.5-1.2 3.1-2.4 4.8-3.5"/>
    <path stroke="#709BE7" stroke-dasharray="11.85 11.85" stroke-linecap="round" stroke-linejoin="round" stroke-width="2" d="M243.199 258.2c16.3-8.4 37.1-14.8 51.8-16.8 41.7-5.6 105.1 1.4 130.3 39.6 1.3 2 2.5 4 3.6 6.1 9.9 19.2 10.1 43.1.5 62.4-6.4 12.8-19.6 24.5-33.6 21.2-14.5-3.5-23.9-21.7-27.9-34.8-1.4-4.7-2.5-9.6-3.2-14.5"/>
    <path stroke="#709BE7" stroke-linecap="round" stroke-linejoin="round" stroke-width="2" d="M364.099 315.6c-.2-2-.3-4-.3-6"/>
    <path fill="#001432" stroke="#709BE7" stroke-linecap="round" stroke-linejoin="round" stroke-miterlimit="10" stroke-width="2" d="M271.201 253.3l-17.7 7c-1.4.6-3-.1-3.5-1.5l-4-10.1c-.6-1.4.1-3 1.5-3.5l17.7-7c1.4-.6 3 .1 3.5 1.5l4 10.1c.6 1.3-.1 2.9-1.5 3.5z"/>
    <path stroke="#709BE7" stroke-linecap="round" stroke-linejoin="round" stroke-miterlimit="10" stroke-width="2" d="M246.4 249.9l22.8-9"/>
    <path fill="#001432" stroke="#709BE7" stroke-linecap="round" stroke-linejoin="round" stroke-miterlimit="10" stroke-width="2" d="M426.899 296.6l-18-24.7c-1.4-1.9-1-4.7 1-6.1l14.1-10.3c1.9-1.4 4.7-1 6.1 1l18 24.7c1.4 1.9 1 4.7-1 6.1l-14.1 10.2c-2 1.4-4.7 1-6.1-.9z"/>
    <path stroke="#709BE7" stroke-linecap="round" stroke-linejoin="round" stroke-miterlimit="10" stroke-width="2" d="M422.1 256.7l23.2 31.8"/>
    <path fill="#001432" stroke="#709BE7" stroke-linecap="round" stroke-linejoin="round" stroke-miterlimit="10" stroke-width="2" d="M348.8 251.8l-32.6.9c-2.6.1-4.7-2-4.8-4.5l-.5-18.6c-.1-2.6 2-4.7 4.5-4.8l32.6-.9c2.6-.1 4.7 2 4.8 4.5l.5 18.6c.1 2.6-1.9 4.7-4.5 4.8z"/>
    <path stroke="#709BE7" stroke-linecap="round" stroke-linejoin="round" stroke-miterlimit="10" stroke-width="2" d="M311 231.9l41.9-1.2"/>
    <path fill="#001432" stroke="#709BE7" stroke-linecap="round" stroke-linejoin="round" stroke-miterlimit="10" stroke-width="2" d="M410.4 353l14.4-20.5c1.1-1.6 3.4-2 5-.9l11.7 8.2c1.6 1.1 2 3.4.9 5L428 365.3c-1.1 1.6-3.4 2-5 .9l-11.7-8.2c-1.6-1.2-2-3.4-.9-5z"/>
    <path stroke="#709BE7" stroke-linecap="round" stroke-linejoin="round" stroke-miterlimit="10" stroke-width="2" d="M440 338.8l-18.5 26.3"/>
    <path fill="#001432" stroke="#709BE7" stroke-linecap="round" stroke-linejoin="round" stroke-miterlimit="10" stroke-width="2" d="M412.3 180.4l12.4-17.6c1-1.4 2.9-1.7 4.3-.7l10.1 7.1c1.4 1 1.7 2.9.7 4.3L427.4 191c-1 1.4-2.9 1.7-4.3.7l-10.1-7.1c-1.4-.9-1.7-2.8-.7-4.2z"/>
    <path stroke="#709BE7" stroke-linecap="round" stroke-linejoin="round" stroke-miterlimit="10" stroke-width="2" d="M437.799 168.2l-16 22.7"/>
    <path fill="#001432" stroke="#709BE7" stroke-linecap="round" stroke-linejoin="round" stroke-miterlimit="10" stroke-width="2" d="M401.399 76.7l-20.6 14.3c-1.6 1.1-3.8.7-5-.9l-8.2-11.7c-1.1-1.6-.7-3.8.9-5l20.7-14.4c1.6-1.1 3.8-.7 5 .9l8.2 11.7c1.1 1.7.7 3.9-1 5.1z"/>
    <path stroke="#709BE7" stroke-linecap="round" stroke-linejoin="round" stroke-miterlimit="10" stroke-width="2" d="M368.799 79.8l26.4-18.4"/>
    <path fill="#001432" stroke="#709BE7" stroke-linecap="round" stroke-linejoin="round" stroke-miterlimit="10" stroke-width="2" d="M470.6 106.4l-9.1-29.1c-.7-2.3.6-4.7 2.9-5.5l16.7-5.2c2.3-.7 4.7.6 5.5 2.9l9.1 29.1c.7 2.3-.6 4.7-2.9 5.5l-16.7 5.2c-2.3.7-4.8-.6-5.5-2.9z"/>
    <path stroke="#709BE7" stroke-linecap="round" stroke-linejoin="round" stroke-miterlimit="10" stroke-width="2" d="M479 67.3l11.7 37.4"/>
    <path fill="#001432" d="M417.1 197.4s-2.9 3-4.1 4.9l4.1-4.9z"/>
    <path stroke="#709BE7" stroke-linecap="round" stroke-linejoin="round" stroke-miterlimit="10" stroke-width="2" d="M417.1 197.4s-2.9 3-4.1 4.9"/>
    <path fill="#001432" d="M398 57.2s17.6-10.5 36.8-10.7L398 57.2z"/>
    <path stroke="#709BE7" stroke-linecap="round" stroke-linejoin="round" stroke-miterlimit="10" stroke-width="2" d="M398 57.2s17.6-10.5 36.8-10.7"/>
    <path fill="#001432" d="M486.299 108.5s-2.6 16.7-15.6 33.4l15.6-33.4z"/>
    <path stroke="#709BE7" stroke-linecap="round" stroke-linejoin="round" stroke-miterlimit="10" stroke-width="2" d="M486.299 108.5s-2.6 16.7-15.6 33.4"/>
    <path fill="#001432" d="M236.3 252.3s-6.7 4.8-14.3 9.4l14.3-9.4z"/>
    <path stroke="#709BE7" stroke-linecap="round" stroke-linejoin="round" stroke-miterlimit="10" stroke-width="2" d="M236.3 252.3s-6.7 4.8-14.3 9.4"/>
    <path fill="#001432" d="M294.301 249.2s12.3-2.8 16.3-2.8l-16.3 2.8z"/>
    <path stroke="#709BE7" stroke-linecap="round" stroke-linejoin="round" stroke-miterlimit="10" stroke-width="2" d="M294.301 249.2s12.3-2.8 16.3-2.8"/>
    <path fill="#001432" d="M380.6 348.9s12 23.7 31.1 11.9l-31.1-11.9z"/>
    <path stroke="#709BE7" stroke-linecap="round" stroke-linejoin="round" stroke-miterlimit="10" stroke-width="2" d="M380.6 348.9s12 23.7 31.1 11.9"/>
  </g>
  <defs>
    <clipPath id="clip0">
      <path fill="#fff" d="M0 0h496.8v379.4H0z"/>
    </clipPath>
  </defs>
</svg>
