<svg width="41" height="64" viewBox="0 0 41 64" fill="none" xmlns="http://www.w3.org/2000/svg">
<path d="M39.2 63.7H1.60001C0.700006 63.7 0 63 0 62.1V1.60001C0 0.700006 0.700006 0 1.60001 0H39.2C40.1 0 40.8 0.700006 40.8 1.60001V62.1C40.8 63 40.1 63.7 39.2 63.7ZM3.2 60.5H37.6V55.7H3.2V60.5ZM3.2 52.4H37.6V3.2H3.2V52.4ZM22.4 60H18.5C17.6 60 16.9 59.3 16.9 58.4C16.9 57.5 17.6 56.8 18.5 56.8H22.4C23.3 56.8 24 57.5 24 58.4C24 59.3 23.2 60 22.4 60Z" fill="#0046F5"/>
<path d="M34.0996 43.4H30.1996C29.2996 43.4 28.5996 42.7 28.5996 41.8C28.5996 40.9 29.2996 40.2 30.1996 40.2H32.4996V37.8C32.4996 36.9 33.1996 36.2 34.0996 36.2C34.9996 36.2 35.6996 36.9 35.6996 37.8V41.8C35.6996 42.7 34.9996 43.4 34.0996 43.4ZM10.5996 43.4H6.6996C5.7996 43.4 5.09961 42.7 5.09961 41.8V37.8C5.09961 36.9 5.7996 36.2 6.6996 36.2C7.5996 36.2 8.29961 36.9 8.29961 37.8V40.2H10.5996C11.4996 40.2 12.1996 40.9 12.1996 41.8C12.1996 42.7 11.4996 43.4 10.5996 43.4ZM28.2996 37.4H12.5996C11.6996 37.4 10.9996 36.7 10.9996 35.8V19.7C10.9996 18.8 11.6996 18.1 12.5996 18.1H28.2996C29.1996 18.1 29.8996 18.8 29.8996 19.7V35.8C29.8996 36.7 29.1996 37.4 28.2996 37.4ZM24.9996 34.2H26.5996V27.8H23.8996C23.8996 28.7 23.1996 29.3 22.2996 29.3C21.3996 29.3 20.6996 28.6 20.6996 27.7V25.4H18.3996C17.4996 25.4 16.7996 24.7 16.7996 23.8V21.3H14.1996V26.1H16.4996C17.3996 26.1 18.0996 26.8 18.0996 27.7C18.0996 28.6 17.3996 29.3 16.4996 29.3H14.1996V34.2H16.7996V31.8C16.7996 30.9 17.4996 30.2 18.3996 30.2C19.2996 30.2 19.9996 30.9 19.9996 31.8V34.2H21.6996V31.8C21.6996 30.9 22.3996 30.2 23.2996 30.2C24.1996 30.2 24.8996 30.9 24.8996 31.8V34.2H24.9996ZM23.9996 24.5H26.6996V21.2H20.0996V22.1H22.3996C23.2996 22.1 23.9996 22.8 23.9996 23.7V24.5ZM34.0996 19.3C33.1996 19.3 32.4996 18.6 32.4996 17.7V15.2H30.1996C29.2996 15.2 28.5996 14.5 28.5996 13.6C28.5996 12.7 29.2996 12 30.1996 12H34.0996C34.9996 12 35.6996 12.7 35.6996 13.6V17.6C35.6996 18.5 34.9996 19.3 34.0996 19.3ZM6.6996 19.3C5.7996 19.3 5.09961 18.6 5.09961 17.7V13.7C5.09961 12.8 5.7996 12.1 6.6996 12.1H10.5996C11.4996 12.1 12.1996 12.8 12.1996 13.7C12.1996 14.6 11.4996 15.3 10.5996 15.3H8.29961V17.7C8.29961 18.5 7.5996 19.3 6.6996 19.3Z" fill="#0CE8F9"/>
</svg>
