<svg width="63" height="52" viewBox="0 0 63 52" fill="none" xmlns="http://www.w3.org/2000/svg">
<path d="M31.8278 52C16.4006 52 0 47.6228 0 39.5067C0 31.7832 14.6432 27.6524 28.2561 27.0864C28.4551 27.0773 28.6539 27.1077 28.8411 27.1758C29.0283 27.2439 29.2001 27.3484 29.3467 27.4833C29.4933 27.6182 29.6117 27.7808 29.6951 27.9617C29.7785 28.1426 29.8252 28.3382 29.8326 28.5373C29.8414 28.7361 29.8107 28.9348 29.7424 29.1218C29.6741 29.3088 29.5696 29.4805 29.4348 29.627C29.3 29.7735 29.1376 29.8919 28.9569 29.9754C28.7762 30.059 28.5807 30.106 28.3818 30.1138C12.7224 30.7683 3.02983 35.4973 3.02983 39.5073C3.02983 43.9818 14.8569 48.9689 31.8271 48.9689C46.4747 48.9689 57.0076 45.2264 59.8368 41.5241C60.0815 41.2063 60.4419 40.9982 60.8395 40.9452C61.237 40.8922 61.6394 40.9986 61.9588 41.2411C62.1178 41.3615 62.2513 41.5121 62.3518 41.6843C62.4523 41.8564 62.5177 42.0468 62.5444 42.2444C62.571 42.4419 62.5583 42.6428 62.507 42.8355C62.4558 43.0281 62.3669 43.2087 62.2455 43.3669C58.2931 48.5318 46.071 52 31.8278 52Z" fill="#0046F5"/>
<path d="M37.4091 2.73229L41.1722 2.05804C41.2626 2.04185 41.3557 2.06222 41.431 2.11467C41.5063 2.16712 41.5578 2.24735 41.574 2.33771L42.3091 6.44094L37.8646 7.23728L37.1294 3.13405C37.1132 3.04369 37.1336 2.95059 37.186 2.87525C37.2385 2.7999 37.3187 2.74848 37.4091 2.73229V2.73229Z" fill="white"/>
<path d="M37.8667 8.75269C37.5108 8.75212 37.1663 8.62687 36.8931 8.3987C36.6199 8.17054 36.4353 7.85387 36.3713 7.50373L35.975 5.28075C35.8861 4.79384 35.8946 4.29412 36 3.81051C36.1054 3.3269 36.3057 2.86901 36.5893 2.46331C36.8723 2.05515 37.2334 1.70715 37.6517 1.43942C38.0701 1.17169 38.5373 0.989538 39.0265 0.903501C39.5132 0.812336 40.0133 0.819724 40.4971 0.925232C40.981 1.03074 41.4387 1.23222 41.8433 1.51776C42.2509 1.8005 42.5985 2.16099 42.8663 2.5785C43.1341 2.99602 43.3167 3.46234 43.4037 3.95066L43.8 6.17366C43.8708 6.56888 43.7817 6.97601 43.5524 7.30558C43.4395 7.46908 43.2955 7.60867 43.1286 7.71632C42.9616 7.82397 42.7751 7.89756 42.5796 7.93285L38.1336 8.72917C38.0455 8.74483 37.9562 8.75271 37.8667 8.75269ZM39.6494 3.87822L39.5603 3.88627C39.3646 3.92268 39.1908 4.0337 39.0754 4.19588C38.966 4.35823 38.9241 4.55673 38.9584 4.74946L39.0878 5.48075L40.551 5.21821L40.4179 4.49062C40.3695 4.32124 40.2695 4.17118 40.1317 4.06139C39.9939 3.9516 39.8253 3.88757 39.6494 3.87822Z" fill="#0046F5"/>
<path d="M60.7871 29.5763C60.4353 29.5757 60.0947 29.4528 59.8236 29.2287C59.5525 29.0045 59.3677 28.6931 59.3009 28.3478C59.2632 28.1525 59.2643 27.9516 59.3042 27.7567C59.3441 27.5618 59.4221 27.3767 59.5336 27.2119C59.6451 27.0472 59.788 26.906 59.9541 26.7965C60.1202 26.687 60.3062 26.6113 60.5016 26.5737L61.197 26.4363C61.3924 26.3974 61.5936 26.3977 61.7889 26.4372C61.9842 26.4766 62.1697 26.5545 62.3347 26.6661C62.4998 26.7778 62.641 26.9211 62.7502 27.0878C62.8594 27.2544 62.9345 27.4411 62.971 27.6369C63.0096 27.8323 63.0093 28.0333 62.97 28.2286C62.9308 28.4238 62.8533 28.6093 62.7422 28.7745C62.631 28.9398 62.4883 29.0814 62.3223 29.1914C62.1563 29.3014 61.9702 29.3774 61.7747 29.4153L61.0793 29.5484C60.9831 29.5676 60.8852 29.5769 60.7871 29.5763Z" fill="#0CE8F9"/>
<path d="M41.064 33.3616C40.7115 33.3613 40.3701 33.2386 40.098 33.0146C39.826 32.7905 39.6401 32.4789 39.5723 32.1331C39.5346 31.9375 39.5359 31.7364 39.576 31.5412C39.6162 31.3461 39.6944 31.1609 39.8063 30.9961C39.9182 30.8313 40.0615 30.6902 40.228 30.5808C40.3945 30.4715 40.581 30.3961 40.7767 30.359L48.6339 28.8512C49.0278 28.7764 49.4353 28.8607 49.7671 29.0858C50.099 29.3108 50.3281 29.6582 50.4043 30.0519C50.442 30.2475 50.4407 30.4486 50.4006 30.6437C50.3604 30.8388 50.2821 31.024 50.1703 31.1888C50.0584 31.3537 49.9151 31.4948 49.7486 31.6041C49.582 31.7134 49.3956 31.7888 49.1999 31.8259L41.347 33.3337C41.2539 33.3528 41.159 33.3621 41.064 33.3616Z" fill="#0CE8F9"/>
<path d="M29.4761 35.5822C29.112 35.5917 28.7552 35.4784 28.4632 35.2607C28.1712 35.0429 27.9609 34.7332 27.8662 34.3815C27.8136 34.1974 27.7994 34.0044 27.8246 33.8145C27.8498 33.6247 27.9137 33.442 28.0124 33.2779C28.1111 33.1138 28.2425 32.9717 28.3985 32.8606C28.5544 32.7494 28.7315 32.6715 28.9188 32.6316L29.2099 32.5753C29.4052 32.537 29.6062 32.5376 29.8013 32.577C29.9964 32.6164 30.1818 32.6939 30.3469 32.805C30.5121 32.9161 30.6537 33.0586 30.7638 33.2245C30.8738 33.3903 30.9501 33.5762 30.9883 33.7716C31.0267 33.9667 31.0264 34.1674 30.9873 34.3624C30.9482 34.5573 30.8711 34.7427 30.7603 34.9078C30.6496 35.073 30.5074 35.2147 30.3419 35.3249C30.1763 35.435 29.9907 35.5115 29.7957 35.55C29.6904 35.5709 29.5834 35.5817 29.4761 35.5822Z" fill="#0CE8F9"/>
<path d="M46.0635 36.2776C45.7115 36.2775 45.3706 36.1548 45.0994 35.9306C44.8282 35.7064 44.6436 35.3947 44.5773 35.049L43.2312 28.0246C43.1929 27.829 43.1938 27.6277 43.2337 27.4323C43.2737 27.237 43.3519 27.0515 43.4638 26.8865C43.5758 26.7216 43.7193 26.5804 43.8861 26.4711C44.0528 26.3619 44.2396 26.2867 44.4355 26.25C44.6307 26.2114 44.8316 26.2119 45.0266 26.2515C45.2215 26.2911 45.4067 26.369 45.5714 26.4807C45.736 26.5924 45.8769 26.7356 45.9858 26.9021C46.0947 27.0686 46.1695 27.255 46.2059 27.4506L47.552 34.4794C47.5895 34.6749 47.5881 34.876 47.5478 35.071C47.5075 35.266 47.4292 35.4512 47.3174 35.6159C47.2056 35.7807 47.0624 35.9218 46.896 36.0311C46.7296 36.1405 46.5433 36.2161 46.3477 36.2534C46.2538 36.2695 46.1587 36.2776 46.0635 36.2776Z" fill="#0CE8F9"/>
<path d="M60.7882 35.2955C60.7882 35.2955 49.1073 14.6583 46.7673 12.2656C45.9848 11.503 45.005 10.9739 43.9381 10.738C43.5682 10.6224 43.1878 10.5437 42.8024 10.5033C42.6649 10.4953 42.5318 10.4587 42.39 10.4587C41.1675 10.4115 39.9594 10.7357 38.9247 11.3886C37.8901 12.0415 37.0776 12.9926 36.5941 14.1165C35.2765 17.1964 31.8262 40.6549 31.8262 40.6549L43.1213 19.9773L60.7882 35.2955Z" fill="white"/>
<path d="M31.8283 42.1706C31.6644 42.1716 31.5016 42.1442 31.3472 42.0895C31.0099 41.9768 30.7231 41.749 30.5369 41.446C30.3507 41.1431 30.2769 40.7843 30.3286 40.4325C30.684 38.0176 33.8408 16.6874 35.1987 13.5226C35.8068 12.1203 36.8232 10.9337 38.1155 10.1176C39.4078 9.30143 40.916 8.89358 42.4435 8.94719C42.4999 8.94719 42.799 8.97566 42.8559 8.98371C43.3741 9.03605 43.8859 9.13976 44.3835 9.29332C45.6937 9.59456 46.8926 10.2585 47.8431 11.2092C50.2581 13.6749 60.9018 32.4205 62.1068 34.5506C62.2817 34.8619 62.3415 35.2248 62.2757 35.5757C62.21 35.9267 62.0228 36.2433 61.747 36.4701C61.4701 36.6971 61.1218 36.8187 60.7638 36.8135C60.4057 36.8083 60.0611 36.6766 59.7909 36.4417L43.5513 22.36L33.1621 41.3824C33.0305 41.6209 32.8373 41.8199 32.6028 41.9585C32.3682 42.0971 32.1008 42.1704 31.8283 42.1706ZM42.3488 12.003C41.4334 11.9608 40.5266 12.1969 39.7481 12.6803C38.9696 13.1637 38.3558 13.8716 37.9877 14.7109C37.3288 16.2546 35.8897 24.4233 34.6327 32.3585L41.7909 19.251C41.8999 19.052 42.0519 18.8799 42.2358 18.747C42.4197 18.6142 42.6309 18.5241 42.8541 18.4831C43.0769 18.4416 43.3063 18.4512 43.5248 18.5114C43.7433 18.5716 43.9453 18.6807 44.1154 18.8305L55.0136 28.276C51.0203 21.425 46.84 14.5059 45.6814 13.3213C45.0939 12.7577 44.3603 12.3699 43.5637 12.2018C43.2664 12.107 42.9605 12.0421 42.6504 12.008C42.5482 12.0067 42.446 12.003 42.3494 12.003H42.3488Z" fill="#0046F5"/>
</svg>
