<svg width="69" height="54" viewBox="0 0 69 54" fill="none" xmlns="http://www.w3.org/2000/svg">
<path d="M35.7499 37H6.16666C3.875 37 2 35.125 2 33.0417V16.7917C2 14.5 3.875 12.8334 6.16666 12.8334H35.7499C38.0416 12.8334 39.9166 14.7084 39.9166 16.7917V33.0417C39.9166 35.3333 38.0416 37 35.7499 37Z" stroke="#0046F5" stroke-width="3" stroke-miterlimit="10" stroke-linecap="round" stroke-linejoin="round"/>
<path d="M49.7089 27.4166H62.8339C65.1255 27.4166 67.0005 29.2916 67.0005 31.3749V47.6249C67.0005 49.9166 65.1255 51.5833 62.8339 51.5833H33.2506C30.959 51.5833 29.084 49.7082 29.084 47.6249V45.9582" stroke="#0CE8F9" stroke-width="3" stroke-miterlimit="10" stroke-linecap="round" stroke-linejoin="round"/>
<path d="M2 17.2084H39.9166" stroke="#0046F5" stroke-width="3" stroke-miterlimit="10" stroke-linecap="round" stroke-linejoin="round"/>
<path d="M51.375 31.7916H66.9999" stroke="#0CE8F9" stroke-width="3" stroke-miterlimit="10" stroke-linecap="round" stroke-linejoin="round"/>
<path d="M62.6243 16.7916C62.6243 10.3333 56.7909 5.12499 49.4993 5.12499H47.6243M21.166 10.9583L24.291 5.54165C25.1243 4.29166 26.5827 3.45832 28.041 3.45832H29.7076C31.9993 3.45832 34.0826 5.12499 34.0826 7.20832C34.0826 9.29165 32.2076 10.9583 29.7076 10.9583H21.166V10.9583ZM22.2077 10.9583L19.0827 5.54165C18.2493 4.29166 16.791 3.45832 15.3327 3.45832H13.666C11.3743 3.45832 9.29102 5.12499 9.29102 7.20832C9.29102 9.29165 11.166 10.9583 13.666 10.9583H22.2077V10.9583ZM47.8326 2L44.2909 5.12499L47.8326 8.24999V2Z" stroke="#0046F5" stroke-width="3" stroke-miterlimit="10" stroke-linecap="round" stroke-linejoin="round"/>
</svg>
