<svg width="64" height="53" viewBox="0 0 64 53" fill="none" xmlns="http://www.w3.org/2000/svg">
<path d="M45.9 42H5.89999C2.59999 42 0 39.3 0 36.1V5.9C0 2.6 2.69999 0 5.89999 0H57.6C60.9 0 63.5 2.7 63.5 5.9V32.9C63.5 33.8 62.8 34.5 61.9 34.5C61 34.5 60.3 33.8 60.3 32.9V11.8H3.20001V36C3.20001 37.5 4.39999 38.7 5.89999 38.7H45.9C46.8 38.7 47.5 39.4 47.5 40.3C47.5 41.2 46.8 42 45.9 42ZM3.20001 8.60001H60.3V5.9C60.3 4.4 59.1 3.2 57.6 3.2H5.89999C4.39999 3.2 3.20001 4.4 3.20001 5.9V8.60001Z" fill="#0046F5"/>
<path d="M40.3992 52.9C37.9992 52.9 35.9992 50.9 35.9992 48.5C35.9992 46.1 37.9992 44.1 40.3992 44.1C42.7992 44.1 44.7992 46.1 44.7992 48.5C44.6992 50.9 42.7992 52.9 40.3992 52.9ZM40.3992 47.4C39.7992 47.4 39.2992 47.9 39.2992 48.5C39.2992 49.1 39.7992 49.6 40.3992 49.6C40.9992 49.6 41.4992 49.1 41.4992 48.5C41.4992 47.9 40.9992 47.4 40.3992 47.4ZM61.8992 42H53.2992C52.3992 42 51.6992 41.3 51.6992 40.4C51.6992 39.5 52.3992 38.8 53.2992 38.8H61.8992C62.7992 38.8 63.4992 39.5 63.4992 40.4C63.4992 41.3 62.7992 42 61.8992 42ZM27.3992 27.5C24.9992 27.5 22.9992 25.5 22.9992 23.1C22.9992 20.7 24.9992 18.7 27.3992 18.7C29.7992 18.7 31.7992 20.7 31.7992 23.1C31.7992 25.5 29.7992 27.5 27.3992 27.5ZM27.3992 22C26.7992 22 26.2992 22.5 26.2992 23.1C26.2992 23.7 26.7992 24.2 27.3992 24.2C27.9992 24.2 28.4992 23.7 28.4992 23.1C28.4992 22.5 28.0992 22 27.3992 22ZM14.5992 27.5C12.1992 27.5 10.1992 25.5 10.1992 23.1C10.1992 20.7 12.1992 18.7 14.5992 18.7C16.9992 18.7 18.9992 20.7 18.9992 23.1C18.9992 25.5 17.0992 27.5 14.5992 27.5ZM14.5992 22C13.9992 22 13.4992 22.5 13.4992 23.1C13.4992 23.7 13.9992 24.2 14.5992 24.2C15.1992 24.2 15.6992 23.7 15.6992 23.1C15.6992 22.5 15.2992 22 14.5992 22Z" fill="#0CE8F9"/>
<path d="M40.4 27.5C38 27.5 36 25.5 36 23.1C36 20.7 38 18.7 40.4 18.7C42.8 18.7 44.8 20.7 44.8 23.1C44.8 25.5 42.8 27.5 40.4 27.5ZM40.4 22C39.8 22 39.3 22.5 39.3 23.1C39.3 23.7 39.8 24.2 40.4 24.2C41 24.2 41.5 23.7 41.5 23.1C41.5 22.5 41 22 40.4 22Z" fill="#0046F5"/>
</svg>
