<svg width="89" height="89" viewBox="0 0 89 89" fill="none" xmlns="http://www.w3.org/2000/svg">
<path d="M44.5 85C22.1184 85 4 66.8816 4 44.5C4 22.1184 22.1184 4 44.5 4C66.8816 4 85 22.1184 85 44.5C85 66.8816 66.8816 85 44.5 85Z" fill="#0C1438"/>
<path d="M44.5 85C22.1184 85 4 66.8816 4 44.5C4 22.1184 22.1184 4 44.5 4C66.8816 4 85 22.1184 85 44.5C85 66.8816 66.8816 85 44.5 85Z" stroke="#25408F" stroke-width="6.09022"/>
<path d="M45.8711 42.9771C45.1099 48.1537 40.999 52.2647 35.8223 53.0259" stroke="#0CE8F9" stroke-width="2.58835" stroke-miterlimit="10" stroke-linecap="round" stroke-linejoin="round"/>
<path d="M31.2532 52.8739C24.8585 51.9603 19.9863 46.6314 19.9863 39.9321C19.9863 32.7761 25.772 26.8381 33.0803 26.8381C39.6273 26.8381 45.1085 31.7103 46.022 38.1051" stroke="#0046F5" stroke-width="2.58835" stroke-miterlimit="10" stroke-linecap="round" stroke-linejoin="round"/>
<path d="M37.0399 35.9735L28.9703 44.0431M32.32 37.3438C32.32 38.4096 31.4064 39.3232 30.3406 39.3232C29.2748 39.3232 28.3613 38.4096 28.3613 37.3438C28.3613 36.278 29.2748 35.3645 30.3406 35.3645C31.4064 35.5168 32.32 36.278 32.32 37.3438ZM37.6489 42.6728C37.6489 43.7386 36.7354 44.6521 35.6696 44.6521C34.6038 44.6521 33.6903 43.7386 33.6903 42.6728C33.6903 41.607 34.6038 40.6934 35.6696 40.6934C36.7354 40.8457 37.6489 41.607 37.6489 42.6728Z" stroke="#0CE8F9" stroke-width="2.58835" stroke-miterlimit="10" stroke-linecap="round" stroke-linejoin="round"/>
<path d="M53.027 41.1503H66.4255M58.356 59.2687H31.559C30.0364 59.2687 28.8184 58.0507 28.8184 56.6804V56.0714M49.9819 35.9736H63.6849C65.2075 35.9736 66.4255 37.1917 66.4255 38.562V51.5037" stroke="#0046F5" stroke-width="2.58835" stroke-miterlimit="10" stroke-linecap="round" stroke-linejoin="round"/>
<path d="M69.1649 61.4001H63.8359" stroke="#0CE8F9" stroke-width="2.58835" stroke-miterlimit="10" stroke-linecap="round" stroke-linejoin="round"/>
</svg>
